<svg width="17" height="16" viewBox="0 0 17 16" fill="none" xmlns="http://www.w3.org/2000/svg">
<path d="M8.63342 7.86681L7.6934 8.80681C7.1734 9.32681 7.1734 10.1735 7.6934 10.6935C8.2134 11.2135 9.06007 11.2135 9.58007 10.6935L11.0601 9.21349C12.1001 8.17349 12.1001 6.48682 11.0601 5.44016C10.0201 4.40016 8.33341 4.40016 7.28674 5.44016L5.67342 7.05348C4.78008 7.94681 4.78008 9.39348 5.67342 10.2868" stroke="#222222" stroke-width="1.5" stroke-linecap="round" stroke-linejoin="round"/>
<path d="M6.50016 14.6663H10.5002C13.8335 14.6663 15.1668 13.333 15.1668 9.99967V5.99967C15.1668 2.66634 13.8335 1.33301 10.5002 1.33301H6.50016C3.16683 1.33301 1.8335 2.66634 1.8335 5.99967V9.99967C1.8335 13.333 3.16683 14.6663 6.50016 14.6663Z" stroke="white" stroke-width="1.5" stroke-linecap="round" stroke-linejoin="round"/>
</svg>
