<svg width="110" height="109" viewBox="0 0 110 109" fill="none" xmlns="http://www.w3.org/2000/svg">
<g filter="url(#filter0_dd_78_15118)">
<g clip-path="url(#clip0_78_15118)">
<rect x="3.5" y="1" width="103" height="103" rx="51.5" fill="white"/>
<path d="M31.1694 43.0127C31.1694 43.0127 31.5522 70.2058 33.232 71.6641C34.9118 73.1223 59.9866 98.0014 72.3021 82.646C84.6176 67.2905 76.983 44.8268 76.983 44.8268L31.1694 43.0127Z" fill="#A76825"/>
<path d="M33.6012 50.8651C33.6012 50.8651 33.821 65.8317 41.5167 68.8448C41.5167 68.8448 37.7897 73.9955 38.7502 76.3281C39.7107 78.6607 50.1449 83.2293 52.5559 82.0621C54.9668 80.8949 59.2928 67.1927 59.2928 67.1927L47.8323 50.1846L33.6012 50.8651Z" fill="#030000"/>
<path d="M62.3674 63.7285H48.2874C48.6364 82.5826 40.0964 86.4725 40.0964 86.4725C45.5126 95.9961 55.3271 95.414 55.3271 95.414C55.3271 95.414 65.1416 95.9967 70.5548 86.4725C70.5578 86.4707 62.0178 82.5814 62.3674 63.7285Z" fill="#BB715A"/>
<path d="M65.2743 80.2402C63.9003 77.3891 62.7265 73.3258 62.4302 67.6152H48.2228C48.045 71.046 47.5556 73.8875 46.8884 76.2231C50.1917 78.2065 57.2551 81.5881 65.2743 80.2402Z" fill="#A45C4B"/>
<path d="M36.7599 44.9682C36.7599 44.9682 33.8778 40.3335 30.9763 41.9352C29.3474 42.8354 31.65 55.341 37.3358 54.3736C37.3358 54.3736 38.3288 53.9715 38.2755 51.9378L36.7599 44.9682Z" fill="#D1856A"/>
<path opacity="0.4" d="M32.4007 43.4365C32.4007 43.4365 31.074 48.3574 33.3487 49.3637C33.3487 49.3637 34.5427 49.6638 34.5077 50.1877C34.4727 50.7116 35.2098 54.1754 36.463 52.9758C36.463 52.9758 37.3879 51.3225 36.0785 50.8094C34.769 50.2963 35.669 50.2141 36.6017 48.8849C36.5999 48.8849 34.3459 42.9594 32.4007 43.4365Z" fill="#A6644F"/>
<path d="M32.0897 47.0236C31.9812 46.5838 31.902 46.1372 31.8527 45.6866C31.7971 45.2269 31.7913 44.7625 31.8355 44.3016C31.8675 44.0615 31.9036 43.8215 32.0363 43.5634C32.1105 43.4153 32.2248 43.2917 32.3658 43.207C32.4471 43.1606 32.5364 43.1305 32.6289 43.1182L32.6638 43.1134H32.681H32.6893H32.694H32.7278H32.7693C32.8015 43.1128 32.8337 43.1156 32.8653 43.1218C32.9476 43.135 33.0283 43.1574 33.1058 43.1884C33.1695 43.2117 33.2315 43.2396 33.2913 43.2718C33.4031 43.3299 33.5108 43.3959 33.6136 43.4692C33.8068 43.6089 33.9899 43.7624 34.1617 43.9283C34.4958 44.248 34.806 44.5924 35.0896 44.9587C35.3719 45.323 35.6348 45.7024 35.8771 46.0953C36.1237 46.4917 36.337 46.9084 36.5146 47.3411C36.608 47.5658 36.6854 47.7971 36.7463 48.033C36.8179 48.2982 36.838 48.575 36.8055 48.848L36.7895 48.9746L36.7054 49.061C36.549 49.223 36.3878 49.4084 36.2444 49.5909C36.1035 49.7664 35.9773 49.9535 35.867 50.1502C35.8234 50.228 35.7901 50.3114 35.768 50.398L35.7609 50.4484C35.7609 50.4526 35.7485 50.4412 35.752 50.4484C35.7682 50.4646 35.7889 50.4753 35.8113 50.479C35.8302 50.4867 35.8502 50.4914 35.8705 50.4928L35.9037 50.4988L35.9523 50.5054L35.9754 50.5102L36.1532 50.5504C36.2366 50.5808 36.3183 50.6159 36.3979 50.6555C36.5365 50.7389 36.6558 50.8517 36.7475 50.9861C36.8303 51.1123 36.8905 51.2522 36.9252 51.3996C36.9574 51.5371 36.9713 51.6784 36.9667 51.8197C36.9633 51.9566 36.9456 52.0928 36.914 52.2259L36.8595 52.4204L36.7824 52.6052C36.7258 52.7253 36.656 52.8387 36.5744 52.9431C36.4969 53.0483 36.4035 53.1407 36.2977 53.2167C36.2458 53.2534 36.1918 53.2871 36.136 53.3175L35.9618 53.3901L36.1117 53.2803C36.1563 53.2393 36.1986 53.1959 36.2385 53.1501C36.2782 53.1051 36.3137 53.0565 36.3446 53.0049C36.3796 52.957 36.4093 52.9053 36.4328 52.8506C36.4859 52.7454 36.527 52.6345 36.5555 52.52L36.5934 52.349L36.6118 52.1767C36.6205 52.0634 36.6168 51.9495 36.6005 51.8371C36.5879 51.7295 36.561 51.6241 36.5205 51.5238C36.4863 51.4314 36.4359 51.346 36.3718 51.2718C36.3133 51.2079 36.2425 51.1569 36.1638 51.1217C36.1301 51.1136 36.097 51.1028 36.0649 51.0893L35.8806 51.0713L35.8575 51.0683H35.8516L35.8812 51.0713H35.8605L35.8012 51.0671C35.7593 51.0655 35.7177 51.0601 35.6768 51.0509C35.5771 51.0336 35.4822 50.9952 35.3983 50.9381C35.294 50.8673 35.2152 50.7641 35.1737 50.6441C35.1388 50.5418 35.1261 50.4331 35.1364 50.3254C35.1536 50.1653 35.1952 50.0088 35.2596 49.8615C35.3692 49.6113 35.5053 49.3738 35.6655 49.1534C35.8164 48.938 35.978 48.7305 36.1496 48.5317L36.0501 48.7447C36.0516 48.5706 36.0272 48.3972 35.9778 48.2304C35.9229 48.0339 35.8542 47.8415 35.7722 47.6549C35.5981 47.2652 35.4003 46.8868 35.1797 46.5219C34.9598 46.1493 34.7204 45.7887 34.4627 45.4418C34.2112 45.0944 33.9402 44.762 33.651 44.4462C33.5094 44.2954 33.3594 44.153 33.2018 44.0195C33.1287 43.9571 33.0517 43.8993 32.9713 43.8467C32.9113 43.8093 32.8494 43.775 32.7859 43.7441C32.7859 43.7363 32.7391 43.7357 32.7177 43.7309L32.6769 43.7255H32.6929C32.6754 43.724 32.6579 43.7263 32.6413 43.7321C32.588 43.7578 32.5439 43.7998 32.5151 43.8521C32.4203 43.9817 32.3528 44.1833 32.3024 44.3832C32.2095 44.8089 32.1516 45.2416 32.1294 45.677C32.1045 46.1241 32.0897 46.5754 32.0897 47.0236Z" fill="#985238"/>
<path d="M33.0839 48.11C33.0839 48.11 33.0246 47.8795 32.9701 47.5231C32.9429 47.343 32.9215 47.1348 32.9079 46.9068C32.8952 46.6652 32.901 46.4231 32.9251 46.1824C32.9355 46.0561 32.9553 45.9307 32.9844 45.8074C33.01 45.6834 33.0445 45.5615 33.0875 45.4425C33.1316 45.327 33.1829 45.2143 33.2409 45.1052C33.3031 45.002 33.3766 44.909 33.4406 44.8202C33.5141 44.7398 33.5929 44.672 33.661 44.6096C33.7205 44.5568 33.7862 44.5117 33.8565 44.4751L34.039 44.3701L34.3086 45.1503L34.2008 45.1851C34.1569 45.1937 34.1145 45.209 34.0752 45.2307C34.0319 45.2583 33.9774 45.2835 33.9205 45.3201C33.8719 45.3675 33.8115 45.4125 33.7534 45.4713C33.695 45.5399 33.6408 45.612 33.5911 45.6873C33.536 45.7737 33.4875 45.8642 33.4459 45.958C33.3987 46.0572 33.3591 46.1599 33.3274 46.2652C33.2584 46.4788 33.2054 46.6972 33.1686 46.9188C33.1354 47.1342 33.1094 47.3388 33.1005 47.5153C33.085 47.7131 33.0795 47.9116 33.0839 48.11Z" fill="#985238"/>
<path d="M73.8225 44.9683C73.8225 44.9683 76.7022 40.3331 79.6055 41.9354C81.2326 42.8356 78.9301 55.3411 73.2466 54.3738C73.2466 54.3738 72.2536 53.9717 72.3045 51.938L73.8225 44.9683Z" fill="#D1856A"/>
<path opacity="0.4" d="M78.1811 43.4365C78.1811 43.4365 79.506 48.3574 77.2331 49.3637C77.2331 49.3637 76.0392 49.6638 76.0765 50.1877C76.1138 50.7116 75.3738 54.1754 74.1212 52.9758C74.1212 52.9758 73.1963 51.3225 74.5057 50.8094C75.8152 50.2963 74.9151 50.2141 73.9807 48.8849C73.9807 48.8849 76.2359 42.9594 78.1811 43.4365Z" fill="#A6644F"/>
<path d="M78.4951 47.0224C78.4924 46.5712 78.4766 46.1235 78.4477 45.6794C78.4251 45.244 78.3668 44.8112 78.2735 44.3856C78.2238 44.1857 78.155 43.9841 78.0608 43.8545C78.0319 43.8021 77.9876 43.7602 77.934 43.7345C77.9177 43.7287 77.9003 43.7264 77.8831 43.7279H77.8991L77.8582 43.7333C77.8369 43.7381 77.7889 43.7387 77.7901 43.7465C77.7265 43.7773 77.6645 43.8115 77.6046 43.8491C77.524 43.9014 77.447 43.9591 77.3741 44.0219C77.2165 44.1552 77.0666 44.2974 76.925 44.448C76.6358 44.764 76.3647 45.0966 76.1132 45.4442C75.8552 45.7908 75.6158 46.1514 75.3963 46.5243C75.1756 46.8889 74.9777 47.2671 74.8038 47.6567C74.7219 47.8437 74.653 48.0362 74.5976 48.2328C74.5488 48.3995 74.5248 48.5727 74.5265 48.7465L74.4269 48.5341C74.5985 48.7328 74.7599 48.9403 74.9104 49.1558C75.0708 49.3762 75.2071 49.6137 75.3169 49.8639C75.3814 50.0114 75.4229 50.1681 75.4401 50.3284C75.4505 50.4362 75.4376 50.5449 75.4022 50.6471C75.3603 50.7669 75.2813 50.8698 75.177 50.9405C75.0931 50.9975 74.9982 51.0358 74.8986 51.0527C74.8579 51.0621 74.8164 51.0677 74.7747 51.0695L74.7155 51.0737H74.6918L74.7214 51.0707H74.7155H74.6924L74.5081 51.0893C74.4759 51.1026 74.4429 51.1134 74.4091 51.1217C74.3304 51.1565 74.2598 51.2076 74.2018 51.2718C74.1374 51.346 74.0868 51.4314 74.0524 51.5238C74.0121 51.6241 73.9854 51.7295 73.973 51.8371C73.9569 51.9495 73.9529 52.0634 73.9612 52.1767L73.9802 52.3496L74.0181 52.5206C74.0469 52.6348 74.0881 52.7455 74.1407 52.8506C74.1645 52.9052 74.1941 52.9569 74.229 53.0049C74.2599 53.0566 74.2956 53.1052 74.3357 53.1501C74.3754 53.196 74.4177 53.2395 74.4625 53.2803L74.6118 53.3901L74.4382 53.3175C74.3821 53.2873 74.3278 53.2536 74.2758 53.2167C74.17 53.1408 74.0766 53.0484 73.9991 52.9431C73.9175 52.839 73.8479 52.7259 73.7917 52.6058L73.7141 52.4204L73.6602 52.2259C73.6279 52.0929 73.6102 51.9566 73.6075 51.8197C73.6021 51.7496 73.604 51.6792 73.6134 51.6096C73.6172 51.5377 73.6289 51.4665 73.6483 51.3972C73.6832 51.2499 73.7434 51.1099 73.8261 50.9837C73.9177 50.8488 74.0372 50.7358 74.1763 50.6525C74.2555 50.6126 74.337 50.5775 74.4204 50.5474L74.6017 50.5072L74.6242 50.5024L74.6734 50.4958L74.706 50.4898C74.7263 50.4883 74.7463 50.4836 74.7652 50.476C74.7876 50.4723 74.8083 50.4616 74.8245 50.4454C74.828 50.437 74.8186 50.4484 74.8156 50.4454L74.8085 50.3944C74.7866 50.308 74.7536 50.2248 74.7101 50.1472C74.5996 49.9507 74.4736 49.7637 74.3333 49.5879C74.1882 49.4035 74.0339 49.2266 73.8711 49.058L73.7882 48.9722L73.7716 48.8455C73.7394 48.5724 73.7596 48.2955 73.8308 48.03C73.8914 47.794 73.9689 47.5627 74.0625 47.3381C74.2413 46.9059 74.4558 46.4898 74.7036 46.0941C74.9451 45.7017 75.2072 45.3227 75.4887 44.9587C75.7721 44.592 76.0823 44.2474 76.4166 43.9277C76.5886 43.7623 76.7715 43.6089 76.9641 43.4686C77.0671 43.3955 77.175 43.3297 77.287 43.2718C77.3466 43.2392 77.4086 43.2114 77.4725 43.1884C77.55 43.1571 77.6306 43.1345 77.713 43.1212C77.7447 43.1154 77.7768 43.1128 77.809 43.1134H77.8505H77.8849H77.8884H77.8973H77.9145L77.9494 43.1182C78.042 43.1303 78.1314 43.1607 78.2125 43.2076C78.3534 43.2922 78.4676 43.4156 78.542 43.5634C78.6747 43.8203 78.7108 44.0633 78.7428 44.301C78.7985 44.7756 78.7701 45.2335 78.7268 45.6866C78.6789 46.1366 78.6015 46.5828 78.4951 47.0224Z" fill="#985238"/>
<path d="M77.4962 48.1095C77.4962 48.1095 77.5063 47.8695 77.4826 47.5172C77.4719 47.3408 77.4476 47.1362 77.4145 46.9207C77.3783 46.699 77.3252 46.4806 77.2557 46.2672C77.2243 46.1618 77.1847 46.059 77.1372 45.9599C77.0958 45.8661 77.0475 45.7757 76.9926 45.6893C76.9427 45.614 76.8883 45.5418 76.8296 45.4733C76.7704 45.4133 76.7111 45.3694 76.6631 45.322C76.6039 45.2854 76.5523 45.262 76.5085 45.2326C76.4693 45.2108 76.4269 45.1954 76.3829 45.187L76.2756 45.1522L76.5446 44.3721L76.7277 44.4771C76.798 44.5138 76.8636 44.5589 76.9233 44.6115C76.9902 44.6715 77.0696 44.7417 77.1431 44.8227C77.2071 44.911 77.2805 45.0028 77.3428 45.1078C77.4009 45.2165 77.452 45.329 77.4956 45.4445C77.5389 45.5635 77.5734 45.6857 77.5987 45.8099C77.6275 45.9331 77.6473 46.0583 77.658 46.1844C77.6813 46.4251 77.6869 46.6672 77.6746 46.9087C77.6603 47.1368 77.639 47.3468 77.6118 47.525C77.583 47.7217 77.5444 47.9168 77.4962 48.1095Z" fill="#985238"/>
<path d="M53.7409 72.8216C53.7409 72.8216 44.8335 68.0429 41.7898 62.7296C39.2864 59.0042 35.4273 41.9204 35.1115 38.9697C35.102 38.8719 35.0901 38.7741 35.0807 38.6763C35.0712 38.5784 35.0647 38.5316 35.0647 38.5316H35.0706C35.0161 37.9219 34.9847 37.3056 34.9847 36.6815C34.9847 25.3017 44.0929 16.0781 55.3276 16.0781C66.5624 16.0781 75.6706 25.3017 75.6706 36.6815C75.6707 37.4132 75.6323 38.1443 75.5557 38.8719C75.5557 38.8719 71.6107 58.6477 68.8643 62.7296C65.6428 68.8207 56.9132 72.8216 56.9132 72.8216C56.9132 72.8216 55.6879 73.7445 53.7409 72.8216Z" fill="#D1856A"/>
<path d="M36.7771 44.2806C36.7771 44.2806 38.6216 43.5515 44.26 33.3125C49.8012 23.2583 55.6719 25.9912 55.6719 25.9912C55.6719 25.9912 61.8495 22.0389 73.3065 43.1068C76.2098 48.4477 72.2062 24.3181 72.2062 24.3181L53.3445 22.8809L37.7352 24.9428C37.7352 24.9428 34.1569 41.834 36.7771 44.2806Z" fill="#A45C4B"/>
<path d="M61.7523 38.8165C61.7523 38.8165 61.6771 38.9197 61.5627 39.0944C61.4484 39.269 61.2801 39.5228 61.0887 39.8361C60.8973 40.1494 60.6846 40.5226 60.4494 40.9163L60.1158 41.5464C60.0038 41.7612 59.8788 41.9761 59.7816 42.2011C59.6844 42.4261 59.5713 42.647 59.4676 42.8666C59.416 42.9764 59.3645 43.0857 59.3141 43.1937L59.1826 43.5207C59.0167 43.9522 58.833 44.3477 58.7246 44.7023C58.4976 45.4123 58.3459 45.8852 58.3459 45.8852L58.6019 44.6657C58.6748 44.2973 58.817 43.8856 58.9397 43.4307C58.9722 43.3179 59.0048 43.2033 59.0386 43.0869C59.0724 42.9704 59.118 42.8576 59.1571 42.7418C59.2383 42.509 59.3212 42.2725 59.4048 42.0361C59.4883 41.7996 59.5825 41.568 59.6744 41.3388C59.7662 41.1095 59.8581 40.8845 59.9469 40.6666C60.1431 40.2394 60.3131 39.8331 60.4838 39.4964C60.6544 39.1598 60.7901 38.8747 60.8985 38.6773L61.0632 38.373L61.7523 38.8165Z" fill="#985238"/>
<path d="M50.4162 45.8862C50.4162 45.8862 50.7285 45.6359 50.5833 45.0784C50.4382 44.5209 45.4284 40.2698 42.0825 45.4523C42.0825 45.4523 46.8279 50.1421 50.4162 45.8862Z" fill="#D0E5EC"/>
<path d="M48.964 45.1761C48.9641 45.6042 48.8388 46.0228 48.6039 46.3788C48.3691 46.7349 48.0352 47.0123 47.6446 47.1761C47.254 47.3399 46.8242 47.3826 46.4096 47.2989C45.995 47.2152 45.6142 47.0087 45.3155 46.7058C45.0168 46.4028 44.8135 46.0169 44.7314 45.5969C44.6493 45.1768 44.6921 44.7416 44.8543 44.3462C45.0166 43.9508 45.291 43.6131 45.6428 43.3757C45.9947 43.1383 46.4082 43.012 46.8309 43.0127C47.3969 43.0137 47.9393 43.242 48.3392 43.6476C48.7391 44.0532 48.9638 44.6029 48.964 45.1761Z" fill="#2C1217"/>
<path d="M47.8323 45.1755C47.8323 45.3772 47.7732 45.5745 47.6626 45.7422C47.5519 45.91 47.3946 46.0408 47.2105 46.118C47.0264 46.1952 46.8239 46.2154 46.6285 46.176C46.4331 46.1367 46.2536 46.0395 46.1128 45.8968C45.9719 45.7542 45.876 45.5724 45.8371 45.3745C45.7982 45.1766 45.8182 44.9715 45.8944 44.785C45.9707 44.5986 46.0998 44.4393 46.2654 44.3272C46.4311 44.2151 46.6258 44.1553 46.825 44.1553C47.0922 44.1553 47.3484 44.2628 47.5373 44.4541C47.7262 44.6454 47.8323 44.9049 47.8323 45.1755Z" fill="#040000"/>
<path d="M43.831 46.7449C43.1844 46.4083 42.555 46.0389 41.945 45.6383L41.7797 45.5302L41.8905 45.325C42.1174 44.9074 42.3873 44.5154 42.6958 44.1554C43.0153 43.7874 43.3843 43.4666 43.7919 43.2024C44.2098 42.9362 44.6692 42.7436 45.1506 42.6329C45.6315 42.5243 46.1269 42.4977 46.6165 42.5543C47.0966 42.6064 47.5674 42.7254 48.0154 42.9078C48.4566 43.0818 48.8772 43.3054 49.2692 43.5745C49.4649 43.7062 49.6525 43.8499 49.8309 44.0048C50.0117 44.1567 50.1816 44.3216 50.3393 44.4981C50.4195 44.5883 50.4947 44.6831 50.5644 44.7819C50.6021 44.835 50.6356 44.8909 50.6645 44.9493C50.6956 45.0166 50.7095 45.0907 50.7048 45.1648C50.6949 45.405 50.6373 45.6407 50.5354 45.8579C50.5565 45.6342 50.544 45.4086 50.4981 45.1888C50.4898 45.1478 50.4726 45.1093 50.4477 45.076C50.4166 45.0375 50.3832 45.001 50.3476 44.9667C50.2693 44.892 50.187 44.8217 50.1011 44.7561C49.7512 44.4896 49.3788 44.2549 48.9883 44.0546C48.6034 43.8556 48.2031 43.6888 47.7914 43.5559C47.3866 43.4279 46.9695 43.3442 46.5471 43.3063C46.1345 43.2733 45.7194 43.2998 45.3141 43.3849C45.1122 43.4274 44.9141 43.4864 44.7216 43.5613C44.529 43.6379 44.3419 43.7279 44.1617 43.8307C43.7935 44.0417 43.4527 44.2983 43.1473 44.5947C42.8315 44.8992 42.5398 45.2285 42.2751 45.5794L42.2206 45.2662C42.4937 45.502 42.7574 45.7463 43.0293 45.9923C43.3013 46.2384 43.5685 46.4868 43.831 46.7449Z" fill="#030000"/>
<path d="M46.412 44.4374C46.4119 44.5392 46.382 44.6388 46.326 44.7234C46.27 44.808 46.1905 44.8739 46.0975 44.9127C46.0045 44.9516 45.9023 44.9616 45.8037 44.9416C45.7051 44.9216 45.6145 44.8724 45.5435 44.8002C45.4725 44.7281 45.4243 44.6362 45.4048 44.5363C45.3854 44.4363 45.3957 44.3328 45.4344 44.2388C45.473 44.1447 45.5384 44.0644 45.6221 44.008C45.7059 43.9516 45.8043 43.9216 45.9048 43.9219C45.9716 43.9218 46.0377 43.9351 46.0994 43.961C46.1611 43.9869 46.2171 44.0249 46.2643 44.0728C46.3114 44.1207 46.3487 44.1776 46.3741 44.2401C46.3994 44.3027 46.4123 44.3697 46.412 44.4374Z" fill="#D0E5EC"/>
<path d="M42.5471 45.1753C42.5471 45.1753 41.852 46.5556 40.4359 45.4688C40.4359 45.4688 41.4136 45.7742 42.5956 44.292L42.5471 45.1753Z" fill="#030000"/>
<path d="M40.7303 44.1095C40.8455 44.1684 40.9662 44.2157 41.0906 44.2505C41.3575 44.3333 41.6366 44.3682 41.9154 44.3537C42.0598 44.3459 42.203 44.3226 42.3426 44.2841C42.4062 44.2682 42.4687 44.2481 42.5298 44.2241C42.5854 44.2053 42.6393 44.1819 42.691 44.1539C42.7705 44.1177 42.8468 44.0747 42.9191 44.0255L43.0027 43.9727L43.1958 44.3087L43.0898 44.3549C42.998 44.3976 42.9031 44.4329 42.8059 44.4605C42.7424 44.4826 42.6772 44.4995 42.611 44.5109C42.5381 44.5276 42.4643 44.5396 42.39 44.547C42.2308 44.5654 42.0701 44.5664 41.9106 44.55C41.6185 44.5201 41.3338 44.4388 41.0693 44.3099C40.9501 44.2544 40.8366 44.1873 40.7303 44.1095Z" fill="#030000"/>
<path d="M41.7317 43.2422C41.8273 43.3061 41.9294 43.3594 42.0362 43.4012C42.0868 43.4233 42.1389 43.4415 42.1921 43.4558C42.2502 43.4764 42.3096 43.493 42.3698 43.5056L42.5606 43.538C42.6259 43.55 42.6923 43.5544 42.7585 43.5512H42.9546C43.0192 43.5512 43.082 43.5308 43.1425 43.5224L43.3149 43.493C43.3665 43.4827 43.4168 43.4666 43.4648 43.445L43.7623 43.3346L43.895 43.6989L43.53 43.7679C43.4717 43.7818 43.4121 43.7894 43.3522 43.7907H43.1531C43.083 43.7922 43.0128 43.7902 42.9428 43.7847L42.7295 43.7457C42.6585 43.7362 42.5888 43.7189 42.5215 43.6941L42.3266 43.6245C42.2672 43.6005 42.2094 43.5726 42.1536 43.541C42.1022 43.5164 42.0525 43.4883 42.0048 43.457C41.9062 43.3959 41.8146 43.3238 41.7317 43.2422Z" fill="#030000"/>
<path d="M52.0274 39.1254C52.0274 39.1254 51.1167 40.079 47.5396 38.6352C43.597 37.0425 40.0182 38.1005 39.6692 38.4965C39.6692 38.4965 45.2572 34.1674 52.0274 39.1254Z" fill="#030000"/>
<path d="M59.9552 45.8862C59.9552 45.8862 59.643 45.6359 59.7875 45.0784C59.9321 44.5209 64.9425 40.2698 68.289 45.4523C68.289 45.4523 63.5435 50.1421 59.9552 45.8862Z" fill="#D0E5EC"/>
<path d="M57.7807 43.7504C55.7277 43.0733 53.5172 43.0733 51.4642 43.7504L51.1258 42.851C53.3827 42.0809 55.8247 42.0809 58.0816 42.851L57.7807 43.7504Z" fill="#6E6666"/>
<path d="M64.0297 51.8257C62.0917 51.8207 60.2344 51.0348 58.8641 49.64C57.4937 48.2451 56.7216 46.3547 56.7167 44.3821C56.7167 39.9428 60.4766 39.3496 64.0297 39.3496C67.5827 39.3496 71.3425 39.9428 71.3425 44.3821C71.3425 46.3563 70.5721 48.2496 69.2006 49.6455C67.8292 51.0415 65.9692 51.8257 64.0297 51.8257ZM64.0297 40.3447C59.4426 40.3447 57.6566 41.4736 57.6566 44.4013C57.6566 46.1217 58.3281 47.7717 59.5233 48.9882C60.7184 50.2047 62.3394 50.8881 64.0297 50.8881C65.7199 50.8881 67.3409 50.2047 68.5361 48.9882C69.7312 47.7717 70.4026 46.1217 70.4026 44.4013C70.4026 41.4545 68.6167 40.3255 64.0297 40.3255V40.3447Z" fill="#141414"/>
<path d="M74.7532 40.5764L70.7036 42.1191L71.0331 43.0152L75.0827 41.4724L74.7532 40.5764Z" fill="#141414"/>
<path d="M45.3802 51.8257C43.4407 51.8257 41.5805 51.0415 40.2091 49.6455C38.8376 48.2496 38.0672 46.3563 38.0672 44.3821C38.0672 39.9428 41.8271 39.3496 45.3802 39.3496C48.9333 39.3496 52.6932 39.9428 52.6932 44.3821C52.6882 46.3547 51.9161 48.2451 50.5458 49.64C49.1754 51.0348 47.3182 51.8207 45.3802 51.8257ZM45.3802 40.3447C40.7931 40.3447 39.0072 41.4736 39.0072 44.4013C39.0072 46.1217 39.6786 47.7717 40.8738 48.9882C42.069 50.2047 43.69 50.8881 45.3802 50.8881C47.0704 50.8881 48.6914 50.2047 49.8866 48.9882C51.0817 47.7717 51.7532 46.1217 51.7532 44.4013C51.7532 41.4545 49.9672 40.3255 45.3802 40.3255V40.3447Z" fill="#141414"/>
<path d="M34.6806 40.5898L34.4 41.5029L38.6523 42.8568L38.9329 41.9437L34.6806 40.5898Z" fill="#141414"/>
<path d="M61.4069 45.1761C61.4068 45.6041 61.532 46.0225 61.7667 46.3785C62.0014 46.7344 62.3351 47.0119 62.7255 47.1758C63.1159 47.3396 63.5455 47.3826 63.96 47.2991C64.3745 47.2157 64.7553 47.0097 65.0542 46.707C65.353 46.4044 65.5566 46.0189 65.6391 45.5991C65.7216 45.1793 65.6793 44.7441 65.5176 44.3487C65.3559 43.9532 65.082 43.6152 64.7307 43.3774C64.3793 43.1396 63.9662 43.0127 63.5435 43.0127C63.2629 43.0122 62.9849 43.0679 62.7255 43.1764C62.4661 43.2849 62.2304 43.4443 62.0319 43.6452C61.8334 43.8462 61.676 44.0849 61.5688 44.3476C61.4615 44.6103 61.4065 44.8918 61.4069 45.1761Z" fill="#2C1217"/>
<path d="M62.5386 45.1755C62.5386 45.3772 62.5977 45.5745 62.7084 45.7422C62.8191 45.91 62.9764 46.0408 63.1604 46.118C63.3445 46.1952 63.547 46.2154 63.7424 46.176C63.9378 46.1367 64.1173 46.0395 64.2582 45.8968C64.399 45.7542 64.495 45.5724 64.5338 45.3745C64.5727 45.1766 64.5528 44.9715 64.4765 44.785C64.4003 44.5986 64.2712 44.4393 64.1055 44.3272C63.9399 44.2151 63.7451 44.1553 63.5459 44.1553C63.2788 44.1553 63.0226 44.2628 62.8337 44.4541C62.6448 44.6454 62.5386 44.9049 62.5386 45.1755Z" fill="#040000"/>
<path d="M66.5405 46.7449C66.8028 46.4868 67.0698 46.236 67.3416 45.9923C67.6135 45.7481 67.8748 45.502 68.151 45.2662L68.0964 45.5794C67.8321 45.2287 67.5411 44.8995 67.226 44.5947C66.9198 44.2983 66.5784 44.0415 66.2099 43.8301C66.0293 43.7276 65.842 43.6378 65.6493 43.5613C65.4569 43.4864 65.2587 43.4274 65.0568 43.3849C64.6513 43.2998 64.236 43.2733 63.8232 43.3063C63.4008 43.3443 62.9837 43.428 62.5789 43.5559C62.1664 43.6893 61.7655 43.8569 61.3802 44.057C60.9894 44.2573 60.6168 44.4922 60.2669 44.7591C60.181 44.8245 60.0987 44.8946 60.0204 44.9691C59.9847 45.0033 59.9514 45.04 59.9209 45.079C59.8956 45.1118 59.8783 45.1503 59.8705 45.1912C59.824 45.4109 59.8114 45.6366 59.8332 45.8603C59.7313 45.6431 59.6735 45.4074 59.6631 45.1672C59.6585 45.0931 59.6723 45.019 59.7034 44.9517C59.7326 44.8935 59.7661 44.8375 59.8035 44.7843C59.8731 44.6856 59.9483 44.591 60.0287 44.5011C60.1864 44.3242 60.3565 44.1592 60.5377 44.0072C60.7159 43.8523 60.9033 43.7086 61.0988 43.5769C61.4909 43.3073 61.9114 43.0829 62.3526 42.9078C62.8006 42.7254 63.2714 42.6064 63.7515 42.5543C64.241 42.4977 64.7365 42.5243 65.2174 42.6329C65.699 42.7435 66.1586 42.9361 66.5766 43.2024C66.9834 43.4668 67.3516 43.7876 67.6704 44.1554C67.9797 44.5152 68.2504 44.9073 68.478 45.325L68.5888 45.5302L68.4235 45.6383C67.8126 46.0403 67.1881 46.407 66.5405 46.7449Z" fill="#030000"/>
<path d="M63.9572 44.4374C63.957 44.5395 63.9868 44.6394 64.0428 44.7243C64.0987 44.8093 64.1783 44.8755 64.2714 44.9147C64.3646 44.9538 64.4671 44.9641 64.566 44.9442C64.6649 44.9243 64.7557 44.8751 64.827 44.8029C64.8983 44.7307 64.9469 44.6387 64.9665 44.5385C64.9862 44.4383 64.976 44.3345 64.9374 44.2402C64.8987 44.1459 64.8333 44.0653 64.7495 44.0086C64.6656 43.9519 64.567 43.9218 64.4661 43.9219C64.3993 43.9218 64.3331 43.9351 64.2713 43.961C64.2095 43.9868 64.1533 44.0248 64.1061 44.0727C64.0588 44.1206 64.0213 44.1774 63.9957 44.24C63.9702 44.3026 63.9571 44.3697 63.9572 44.4374Z" fill="#D0E5EC"/>
<path d="M67.8239 45.1753C67.8239 45.1753 68.5189 46.5556 69.9356 45.4688C69.9356 45.4688 68.958 45.7742 67.7759 44.292L67.8239 45.1753Z" fill="#030000"/>
<path d="M69.6412 44.1099C69.5348 44.1869 69.4213 44.2532 69.3023 44.308C69.0377 44.4369 68.753 44.5181 68.4609 44.548C68.3015 44.5644 68.1408 44.5634 67.9815 44.545C67.9072 44.5377 67.8334 44.5257 67.7605 44.509C67.6943 44.4975 67.6291 44.4807 67.5656 44.4586C67.4685 44.4308 67.3736 44.3955 67.2818 44.353L67.1757 44.3068L67.3689 43.9707L67.4524 44.0235C67.5248 44.0726 67.6011 44.1156 67.6805 44.1519C67.7322 44.1799 67.7861 44.2034 67.8417 44.2221C67.9028 44.2461 67.9654 44.2661 68.0289 44.2822C68.1685 44.3207 68.3117 44.344 68.4562 44.3518C68.7347 44.3673 69.0139 44.3333 69.2809 44.2516C69.4054 44.2165 69.526 44.1691 69.6412 44.1099Z" fill="#030000"/>
<path d="M68.6398 43.2422C68.5555 43.3234 68.4625 43.3949 68.3625 43.4552C68.3148 43.4865 68.2651 43.5146 68.2138 43.5392C68.158 43.571 68.1002 43.5988 68.0407 43.6227L67.8458 43.6923C67.7786 43.7171 67.7088 43.7344 67.6378 43.7439L67.4245 43.7829C67.3546 43.7884 67.2844 43.7904 67.2142 43.7889H67.0151C66.9552 43.7876 66.8956 43.78 66.8373 43.7661L66.4724 43.6971L66.6051 43.3328L66.9067 43.4456C66.9547 43.4672 67.005 43.4833 67.0566 43.4936L67.229 43.523C67.2883 43.5314 67.3522 43.5488 67.4168 43.5518H67.613C67.6792 43.5555 67.7456 43.5513 67.8109 43.5392L68.0016 43.5068C68.0619 43.4942 68.1213 43.4776 68.1794 43.457C68.2326 43.4427 68.2847 43.4245 68.3352 43.4024C68.4421 43.3603 68.5443 43.3065 68.6398 43.2422Z" fill="#030000"/>
<path d="M58.3436 39.1254C58.3436 39.1254 59.2549 40.079 62.8295 38.6352C66.7745 37.0425 70.3545 38.1005 70.7023 38.4965C70.7023 38.4965 65.1143 34.1674 58.3436 39.1254Z" fill="#030000"/>
<path d="M54.9798 57.0812C54.9798 57.0812 52.6465 56.0706 52.5606 56.7512C52.4747 57.4317 53.8558 57.7515 54.9798 57.0812Z" fill="#985238"/>
<path d="M55.6719 57.0812C55.6719 57.0812 58.0053 56.0706 58.0918 56.7512C58.1783 57.4317 56.7977 57.7515 55.6719 57.0812Z" fill="#985238"/>
<path d="M49.4268 61.0816C49.4268 61.0816 53.3155 58.7976 55.3271 59.537C55.3271 59.537 57.2569 58.83 61.2274 61.0816C61.2274 61.0816 59.8344 64.7735 55.6453 64.7741C50.9958 64.7753 49.4268 61.0816 49.4268 61.0816Z" fill="#EF3A52"/>
<path d="M61.2214 61.0966C61.2241 61.0915 61.2261 61.0861 61.2274 61.0804C61.161 61.042 61.0982 61.0108 61.0324 60.9748C58.1818 60.1947 55.3271 60.1893 55.3271 60.1893C54.5331 59.9894 51.1794 60.6303 49.6922 60.9322C49.5227 61.024 49.4268 61.0804 49.4268 61.0804L49.4345 61.0966H61.2214Z" fill="#B62743"/>
<path d="M49.7568 61.2867C49.7568 61.2867 51.897 63.7657 55.493 63.6361C59.0261 63.5083 60.8997 61.6653 61.2274 61.082L49.7568 61.2867Z" fill="#B62743"/>
<path d="M55.3271 60.8382C53.8321 60.6437 49.4268 61.0782 49.4268 61.0782C52.4486 63.0219 55.3271 62.8275 55.3271 62.8275C55.3271 62.8275 58.2073 63.0219 61.2274 61.0782C61.2274 61.0812 56.822 60.6437 55.3271 60.8382Z" fill="#55010E"/>
<path d="M51.9225 62.2762C53.86 62.9261 55.3271 62.8313 55.3271 62.8313C55.3271 62.8313 56.7729 62.9243 58.6891 62.2912C55.5025 60.9092 52.976 61.7661 51.9225 62.2762Z" fill="#F16362"/>
<path d="M59.2021 63.0615C59.2021 63.0615 56.4606 63.7588 56.902 64.1555C57.3434 64.5522 59.7911 63.1311 59.2021 63.0615Z" fill="#F37F94"/>
<path d="M56.5524 64.2237C56.5524 64.2237 56.617 63.6398 54.7375 64.0437C52.858 64.4476 56.9215 64.861 56.5524 64.2237Z" fill="#F37F94"/>
<path d="M37.7352 54.1441C37.7353 54.4471 37.6467 54.7432 37.4806 54.9951C37.3145 55.2471 37.0784 55.4435 36.8021 55.5595C36.5258 55.6755 36.2218 55.7059 35.9284 55.6469C35.6351 55.5878 35.3656 55.442 35.154 55.2279C34.9425 55.0137 34.7984 54.7408 34.74 54.4437C34.6816 54.1466 34.7116 53.8387 34.826 53.5588C34.9404 53.2789 35.1342 53.0397 35.3829 52.8714C35.6316 52.7031 35.924 52.6133 36.223 52.6133C36.4216 52.6132 36.6182 52.6527 36.8017 52.7296C36.9851 52.8065 37.1518 52.9193 37.2922 53.0614C37.4327 53.2036 37.544 53.3724 37.62 53.5582C37.696 53.7439 37.7352 53.9431 37.7352 54.1441Z" fill="#EA892E"/>
<path d="M37.1225 54.1449C37.123 54.3252 37.0706 54.5015 36.9721 54.6516C36.8735 54.8018 36.7332 54.9189 36.5689 54.9882C36.4046 55.0575 36.2237 55.0759 36.049 55.041C35.8744 55.0062 35.7139 54.9196 35.5879 54.7923C35.4619 54.665 35.376 54.5027 35.3411 54.3259C35.3062 54.1491 35.3238 53.9658 35.3918 53.7992C35.4599 53.6326 35.5751 53.4902 35.7231 53.39C35.8711 53.2898 36.0451 53.2363 36.223 53.2363C36.341 53.2362 36.4578 53.2595 36.5669 53.3051C36.6759 53.3507 36.775 53.4176 36.8586 53.5019C36.9421 53.5863 37.0084 53.6865 37.0537 53.7968C37.0989 53.9071 37.1223 54.0254 37.1225 54.1449Z" fill="#B16226"/>
<path d="M75.7968 54.1441C75.7968 54.447 75.7082 54.743 75.542 54.9948C75.3759 55.2466 75.1397 55.4428 74.8635 55.5586C74.5872 55.6744 74.2832 55.7047 73.99 55.6455C73.6968 55.5863 73.4274 55.4404 73.2161 55.2262C73.0048 55.012 72.8609 54.7391 72.8027 54.4421C72.7445 54.145 72.7746 53.8372 72.8892 53.5575C73.0038 53.2778 73.1977 53.0388 73.4464 52.8707C73.6952 52.7026 73.9875 52.613 74.2865 52.6133C74.485 52.6132 74.6815 52.6528 74.8649 52.7297C75.0482 52.8066 75.2148 52.9194 75.3551 53.0616C75.4954 53.2037 75.6066 53.3725 75.6824 53.5583C75.7582 53.7441 75.7971 53.9431 75.7968 54.1441Z" fill="#EA892E"/>
<path d="M75.186 54.1444C75.186 54.3245 75.1332 54.5007 75.0344 54.6505C74.9356 54.8003 74.7951 54.917 74.6307 54.986C74.4664 55.0549 74.2855 55.073 74.1111 55.0378C73.9366 55.0027 73.7763 54.9159 73.6505 54.7885C73.5247 54.6611 73.4391 54.4988 73.4044 54.3221C73.3697 54.1454 73.3875 53.9622 73.4555 53.7957C73.5236 53.6293 73.6389 53.487 73.7868 53.3869C73.9347 53.2868 74.1086 53.2334 74.2865 53.2334C74.4046 53.2334 74.5216 53.257 74.6307 53.3027C74.7399 53.3485 74.839 53.4156 74.9225 53.5002C75.0061 53.5848 75.0723 53.6852 75.1175 53.7957C75.1627 53.9063 75.186 54.0247 75.186 54.1444Z" fill="#B16226"/>
<path d="M34.7109 42.9081C34.7109 42.9081 36.4204 46.4349 38.2779 41.0748C39.8564 36.523 49.4267 18.6069 55.3271 24.6319V12.9047C55.3271 12.9047 54.5645 8.95422 50.5833 9.47151C46.2212 10.0374 29.8665 13.0997 33.8524 42.0572L34.7109 42.9081Z" fill="#030000"/>
<path d="M75.9414 42.909C75.9414 42.909 74.2338 46.4358 72.3768 41.0757C70.7984 36.5245 61.2274 18.6078 55.3271 24.6328V12.9056C55.3271 12.9056 56.0897 8.9557 60.0672 9.47239C64.4306 10.0383 80.4647 13.4889 76.7988 42.058L75.9414 42.909Z" fill="#030000"/>
<path d="M55.3271 24.6322V12.9049C55.2743 12.6688 55.2032 12.4372 55.1144 12.2124C55.0824 12.4563 55.0375 12.6983 54.9799 12.9373C49.5791 10.7019 45.9049 14.2978 45.9049 14.2978C52.7301 12.6457 54.2386 17.2137 54.2386 17.2137C50.4957 16.2421 47.4247 18.7685 47.4247 18.7685C52.6074 17.7484 54.9781 21.49 54.9781 21.49C48.6073 18.2849 41.5167 31.2117 41.5167 31.2117C42.0339 28.3912 45.3953 22.8859 45.3953 22.8859C41.6375 26.5153 37.7352 35.5847 37.7352 35.5847C39.9423 23.9228 44.6914 17.3139 44.6914 17.3139C35.3331 25.3805 35.3236 39.732 35.3236 39.732C33.571 29.7481 36.3677 20.7933 38.5481 15.729C34.6885 20.2898 31.9469 28.2148 33.8512 42.055L34.7098 42.9071C34.7098 42.9071 36.4192 46.434 38.2768 41.0738C39.8564 36.5232 49.4268 18.6095 55.3271 24.6322Z" fill="black"/>
<path d="M77.2988 36.2215C76.7928 33.5324 75.798 31.2406 75.798 31.2406C76.5647 34.2208 76.1861 39.081 76.1861 39.081C74.8304 30.4671 69.3378 23.4663 69.3378 23.4663C71.962 27.2889 75.0953 39.7291 74.2557 39.7291C73.4161 39.7291 67.034 27.0303 64.9744 23.7705C62.9148 20.5108 56.8516 21.9102 56.8516 21.9102C59.0801 18.4116 63.1323 19.5776 63.1323 19.5776C59.4854 17.1172 56.4167 18.3462 56.4167 18.3462C58.6546 14.8476 65.372 18.3462 65.372 18.3462C61.0857 13.876 56.4167 14.913 56.4167 14.913C58.9053 12.6854 63.5441 14.913 63.5441 14.913C60.7184 12.365 56.3776 13.2327 55.3276 13.4902V24.6329C61.2279 18.6072 70.7989 36.524 72.3774 41.0757C74.2343 46.4359 75.942 42.9091 75.942 42.9091L76.8023 42.0569C77.0672 39.9812 77.2272 38.0416 77.2988 36.2215Z" fill="black"/>
<path d="M50.6088 60.9772C50.6088 60.9772 55.6624 62.9671 59.7484 60.9544C58.3264 60.8427 56.2597 60.7185 55.3271 60.8397C54.3281 60.7083 52.0238 60.8607 50.6088 60.9772Z" fill="#D7F0FC"/>
<path d="M106.5 104C106.157 102.416 105.784 101.105 105.38 100.227C102.694 94.3962 96.1202 93.0939 91.258 89.3127C91.258 89.3127 89.5954 85.8375 87.931 85.19C86.2666 84.5424 83.9896 83.2096 82.1652 81.6565C82.1652 81.6565 80.5263 72.2811 79.1742 70.2072C79.1742 70.2072 88.7701 28.4399 75.67 13.7079C66.3337 3.21152 53.7682 6.71013 53.7682 6.71013C53.7682 6.71013 36.1259 4.11888 30.4656 28.9986C24.8052 53.8783 30.4656 72.2553 30.4656 72.2553C30.4656 72.2553 27.3359 75.6069 25.9269 82.2494C25.9269 82.2494 23.3749 83.1196 20.5592 86.1003C17.7436 89.081 13.8507 91.0272 12.9554 91.416C12.9554 91.416 9.75582 93.0855 6.68657 95.4181C5.10395 96.6183 4.10318 99.9285 3.5 104L106.5 104ZM35.8172 30.8295C41.2399 14.7569 55.2897 16.8177 55.2897 16.8177C89.0331 20.4465 68.6398 79.5724 68.6398 79.5724C63.2159 83.4977 57.4305 83.4227 57.4305 83.4227C33.6106 81.5317 30.3269 47.1067 35.8172 30.8295Z" fill="#FDE37B"/>
<path d="M106.5 104.001C106.157 102.416 105.784 101.106 105.38 100.228C105.064 99.5402 104.679 98.8873 104.231 98.2793C103.018 100.25 101.797 102.157 100.569 104.001H106.5Z" fill="#E3C963"/>
<path d="M35.0801 17.1006C33.2201 20.1233 31.6008 24.0072 30.4655 28.9989C25.6904 49.9953 28.9747 66.3602 30.1165 70.957C41.8834 97.7588 56.8528 98.932 56.8528 98.932C22.9417 74.9398 29.8001 34.9801 35.0801 17.1006Z" fill="#E3C963"/>
<path d="M106.5 104C106.157 102.416 105.784 101.105 105.38 100.228C105.38 100.228 104.592 101.623 103.14 104H106.5Z" fill="#D9B83C"/>
<path opacity="0.3" d="M106.5 104C106.157 102.417 105.784 101.105 105.38 100.228C105.38 100.228 104.59 101.628 103.14 104H106.5Z" fill="#BB4439"/>
<path d="M39.0814 104C31.2358 95.5828 27.6517 86.6928 26.1052 81.4785C26.0459 81.7336 25.9808 81.9844 25.9239 82.2496C25.9239 82.2496 25.3598 82.4447 24.4758 82.9542C25.6099 91.6749 27.8911 98.5617 30.875 104H39.0814Z" fill="#E3C963"/>
<path d="M19.7492 104.001C18.6353 96.9565 18.7579 91.1133 19.0542 87.5234C18.0136 88.4028 16.9085 89.2008 15.7485 89.9107C14.8752 95.0631 14.4479 99.744 14.3733 104.001H19.7492Z" fill="#E3C963"/>
<path d="M72.7454 104C77.6307 100.653 82.9438 94.8342 86.8189 84.6936C85.1532 83.8733 83.5908 82.8535 82.1653 81.6559C82.1653 81.6559 82.1617 81.6385 82.1576 81.6133C79.1197 88.5781 74.0489 96.6327 65.6156 103.997L72.7454 104Z" fill="#E3C963"/>
<path d="M88.2978 104C90.3231 100.614 92.2333 96.3904 93.8877 91.0776C92.9758 90.5452 92.0976 89.9558 91.2581 89.3127C91.2581 89.3127 91.1988 89.1927 91.1016 89.0049C89.6222 94.5073 86.9889 99.6219 83.3811 104H88.2978Z" fill="#E3C963"/>
<path d="M80.3528 73.3672C80.0292 72.2042 79.6909 71.1907 79.3638 70.5467L79.3555 70.5317C79.3129 70.4483 79.272 70.3739 79.2287 70.3043C79.2252 70.2971 79.221 70.2887 79.2175 70.2827C79.2039 70.2599 79.1902 70.2317 79.1742 70.2101C79.1742 70.2101 88.7701 28.4428 75.6701 13.7109C66.3337 3.21445 53.7682 6.71306 53.7682 6.71306C53.7682 6.71306 85.4277 12.8569 76.9813 61.856C76.9813 61.856 72.0682 77.7276 72.0427 83.7058C70.1628 86.2689 68.0308 88.632 65.6796 90.7589C65.6796 90.7589 73.377 89.6787 81.3654 77.5842C81.0727 76.2135 80.7237 74.6971 80.3528 73.3702V73.3672Z" fill="#E3C963"/>
</g>
</g>
<defs>
<filter id="filter0_dd_78_15118" x="0.5" y="0" width="109" height="109" filterUnits="userSpaceOnUse" color-interpolation-filters="sRGB">
<feFlood flood-opacity="0" result="BackgroundImageFix"/>
<feColorMatrix in="SourceAlpha" type="matrix" values="0 0 0 0 0 0 0 0 0 0 0 0 0 0 0 0 0 0 127 0" result="hardAlpha"/>
<feOffset dy="2"/>
<feGaussianBlur stdDeviation="1.5"/>
<feColorMatrix type="matrix" values="0 0 0 0 0 0 0 0 0 0 0 0 0 0 0 0 0 0 0.1 0"/>
<feBlend mode="normal" in2="BackgroundImageFix" result="effect1_dropShadow_78_15118"/>
<feColorMatrix in="SourceAlpha" type="matrix" values="0 0 0 0 0 0 0 0 0 0 0 0 0 0 0 0 0 0 127 0" result="hardAlpha"/>
<feOffset/>
<feGaussianBlur stdDeviation="0.5"/>
<feColorMatrix type="matrix" values="0 0 0 0 0 0 0 0 0 0 0 0 0 0 0 0 0 0 0.1 0"/>
<feBlend mode="normal" in2="effect1_dropShadow_78_15118" result="effect2_dropShadow_78_15118"/>
<feBlend mode="normal" in="SourceGraphic" in2="effect2_dropShadow_78_15118" result="shape"/>
</filter>
<clipPath id="clip0_78_15118">
<rect x="3.5" y="1" width="103" height="103" rx="51.5" fill="white"/>
</clipPath>
</defs>
</svg>
