<svg width="35" height="34" viewBox="0 0 35 34" fill="none" xmlns="http://www.w3.org/2000/svg">
<path d="M31.6667 6.61557V23.7147C31.6667 25.0747 30.5617 26.3497 29.2017 26.5197L28.7342 26.5764C25.6458 26.9873 20.8858 28.5597 18.1658 30.0614C17.7975 30.2739 17.1883 30.2739 16.8058 30.0614L16.7491 30.0331C14.0291 28.5456 9.28337 26.9873 6.20921 26.5764L5.79832 26.5197C4.43832 26.3497 3.33333 25.0747 3.33333 23.7147V6.60139C3.33333 4.91556 4.70746 3.64057 6.39329 3.78224C9.36829 4.02307 13.8733 5.52478 16.395 7.09728L16.7491 7.30972C17.16 7.56472 17.84 7.56472 18.2509 7.30972L18.4917 7.15391C19.3842 6.60141 20.5175 6.04891 21.75 5.55307V11.3331L24.5833 9.44891L27.4167 11.3331V3.93814C27.7992 3.8673 28.1675 3.82475 28.5075 3.79642H28.5925C30.2784 3.65475 31.6667 4.91557 31.6667 6.61557Z" stroke="#222222" stroke-width="1.5" stroke-linecap="round" stroke-linejoin="round"/>
<path d="M17.5 7.77734V29.0273" stroke="#222222" stroke-width="1.5" stroke-linecap="round" stroke-linejoin="round"/>
<path d="M27.4167 3.93848V11.3334L24.5833 9.44924L21.75 11.3334V5.55341C23.6058 4.81674 25.6742 4.22181 27.4167 3.93848Z" stroke="#222222" stroke-width="1.5" stroke-linecap="round" stroke-linejoin="round"/>
</svg>
