<svg width="211" height="94" viewBox="0 0 211 94" fill="none" xmlns="http://www.w3.org/2000/svg">
<g clip-path="url(#clip0_584_15091)">
<path d="M81.0187 27.3291H34.6289C34.1822 27.3291 33.9577 27.8702 34.2735 28.1864L38.7832 32.7014C38.8079 32.7261 38.8301 32.7533 38.8498 32.7792H64.8085C65.0862 32.7792 65.3107 33.0041 65.3107 33.282V48.1723C65.3107 48.6763 64.6568 48.8641 64.3841 48.4403C60.9997 43.1755 55.6707 40.5419 48.401 40.5419C44.3305 40.5419 40.9905 41.3547 38.3785 42.9779C35.7665 44.6023 33.8281 46.6813 32.5634 49.2124C31.2975 51.7448 30.6658 54.3883 30.6658 57.1405C30.6658 59.9484 31.2704 62.6191 32.4807 65.1515C33.6899 67.6838 35.4777 69.7628 37.8418 71.386C40.2058 73.0104 43.093 73.822 46.5021 73.822C49.9112 73.7677 52.7009 72.9277 54.8737 71.3032C57.0452 69.6801 58.1322 67.4911 58.1322 64.7376C58.1322 63.4307 57.8102 62.0052 57.1661 60.461C56.4518 58.7489 54.564 57.8459 52.7724 58.324L52.5627 58.3796C51.0401 58.786 50.2233 60.4289 50.7958 61.8977C51.1771 62.876 51.3683 63.7123 51.3683 64.4078C51.3683 65.5097 50.997 66.2805 50.2554 66.7203C49.5126 67.1613 48.7008 67.3812 47.8223 67.3812C45.8432 67.3268 44.4539 66.6659 43.6569 65.3997C42.8598 64.1336 42.4613 62.6747 42.4613 61.0231C42.5711 57.5544 43.7815 54.8293 46.0912 52.8479C48.1801 50.9764 50.5454 50.0401 53.1845 50.0401C55.0538 50.0401 56.8824 50.6058 58.6702 51.7324C60.4568 52.8615 61.9559 54.6366 63.1651 57.059C64.3718 59.479 65.0874 62.6389 65.3082 66.5399C65.3082 66.5498 65.3095 66.5609 65.3095 66.5708V73.0401C65.3095 75.381 67.0356 77.3636 69.3515 77.6823L73.6181 78.2703C75.2431 78.4939 76.6916 77.2302 76.6916 75.5873V33.282C76.6916 33.0041 76.9162 32.7792 77.1938 32.7792H82.3624C83.4049 32.7792 84.1576 31.7786 83.8689 30.7756L83.3926 29.119C83.0891 28.0579 82.1205 27.3291 81.0187 27.3291Z" fill="url(#paint0_linear_584_15091)"/>
<path d="M57.7646 63.4857C57.7646 66.2392 56.6775 68.4281 54.506 70.0513C52.3332 71.6757 49.5423 72.5157 46.1344 72.5701C42.7241 72.5701 39.8369 71.7585 37.4741 70.1341C35.1088 68.5109 33.321 66.4319 32.1131 63.8995C31.5307 62.6827 31.0902 61.4326 30.7892 60.1504C31.0692 61.8675 31.5924 63.5289 32.3598 65.1348C33.569 67.6672 35.3568 69.7462 37.7209 71.3694C40.0849 72.9938 42.9721 73.8054 46.3812 73.8054C49.7903 73.751 52.58 72.911 54.7528 71.2866C56.9243 69.6634 58.0113 67.4745 58.0113 64.721C58.0113 63.9588 57.9003 63.1546 57.6819 62.3122C57.7362 62.7124 57.7646 63.104 57.7646 63.4857Z" fill="url(#paint1_linear_584_15091)"/>
<path d="M64.4396 31.5257H38.4809C38.4612 31.4998 38.4402 31.4726 38.4143 31.4479L34.3179 27.3467C34.0033 27.4714 33.8836 27.9001 34.1514 28.1682L38.6611 32.6832C38.6857 32.7079 38.7079 32.735 38.7277 32.761H64.6864C64.7802 32.761 64.8665 32.7882 64.9418 32.8326V32.0285C64.9406 31.7505 64.716 31.5257 64.4396 31.5257Z" fill="url(#paint2_linear_584_15091)"/>
<path d="M62.7961 55.8051C61.5858 53.3827 60.0866 51.6076 58.3013 50.4785C56.5134 49.3507 54.6849 48.7861 52.8156 48.7861C50.1765 48.7861 47.8112 49.7225 45.7223 51.594C43.4126 53.5754 42.2022 56.3017 42.0923 59.7692C42.0923 60.6178 42.1985 61.4158 42.4094 62.1619C42.3638 61.7864 42.3391 61.401 42.3391 61.0045C42.4489 57.5357 43.6593 54.8107 45.9691 52.8293C48.058 50.9578 50.4232 50.0214 53.0624 50.0214C54.9317 50.0214 56.7602 50.5872 58.548 51.7138C60.3346 52.8429 61.8338 54.618 63.0429 57.0404C63.6487 58.2535 64.1299 59.6543 64.4877 61.2392C64.1188 59.1355 63.555 57.3245 62.7961 55.8051Z" fill="url(#paint3_linear_584_15091)"/>
<path d="M50.9821 62.7758C50.9316 62.2063 50.7687 61.5541 50.4948 60.8203C50.4824 61.1711 50.5392 61.5306 50.6762 61.8802C50.7983 62.1927 50.8982 62.4904 50.9821 62.7758Z" fill="url(#paint4_linear_584_15091)"/>
<path d="M83.7479 30.7574L83.5567 30.0928C83.4888 30.8735 82.8374 31.5257 81.9947 31.5257H76.8261C76.5485 31.5257 76.3239 31.7505 76.3239 32.0285V74.335C76.3239 75.9779 74.8754 77.2416 73.2505 77.018L68.9838 76.43C67.196 76.1842 65.7611 74.9464 65.1984 73.3183C65.3366 75.5283 67.0122 77.359 69.2306 77.6653L73.4972 78.2533C75.1222 78.4769 76.5707 77.2132 76.5707 75.5703V33.2638C76.5707 32.9858 76.7953 32.761 77.0729 32.761H82.2414C83.284 32.761 84.0367 31.7604 83.7479 30.7574Z" fill="url(#paint5_linear_584_15091)"/>
<path d="M120.708 75.2928C120.481 75.2397 120.32 75.0371 120.32 74.8036V72.7839V34.8812C120.32 34.6033 120.545 34.3785 120.822 34.3785H124.313C125.561 34.3785 126.462 33.1802 126.117 31.9795L125.934 31.3421C125.675 30.4403 124.851 29.819 123.913 29.819H119.08C117.838 29.819 116.907 29.4509 116.285 28.7134C115.872 28.223 115.554 27.5572 115.334 26.7184C115.118 25.8945 114.452 25.2657 113.613 25.131C113.594 25.1286 113.577 25.1249 113.56 25.1224C113.329 25.0767 113.147 25.0421 113.008 25.0186C112.87 24.9964 112.721 24.9729 112.561 24.9494C112.408 24.9284 112.163 24.9161 111.826 24.9149C111.788 24.9149 111.749 24.9112 111.71 24.9037L111.703 24.9025C111.234 24.816 110.801 25.1767 110.801 25.6548V36.4847C110.801 36.98 110.162 37.1752 109.884 36.7663C108.248 34.3587 106.265 32.5959 103.936 31.478C101.152 30.1426 98.4047 29.4743 95.6915 29.4743C92.6563 29.4743 90.08 30.0735 87.964 31.2705C85.099 33.011 82.6844 35.2592 80.7201 38.014C79.2074 40.1374 79.0507 42.944 80.3068 45.2293L81.3432 47.1132C82.0366 48.3756 83.4346 49.0933 84.8596 48.8945C85.5654 48.7956 86.2551 48.7462 86.9288 48.7462C91.4816 48.9303 93.7593 50.4275 93.7593 53.2365C93.7593 54.6176 93.3793 55.8158 92.6205 56.8288C91.8703 57.8306 89.0559 60.652 89.03 60.6953C88.8894 60.9275 88.9634 61.2301 89.1966 61.3697L93.2362 63.8045C94.7192 64.6976 96.6193 64.4654 97.8433 63.24L109.74 51.3292C110.037 51.0315 110.546 51.2094 110.594 51.6269C110.732 52.7992 110.8 54.0271 110.8 55.3094V68.8482V73.5597C110.8 73.8512 110.554 74.0785 110.264 74.06C109.201 73.992 108.138 73.9587 107.075 73.9587C106.072 73.9587 105.022 74.0031 103.927 74.0945C103.91 74.0958 103.892 74.0982 103.874 74.1007C97.9581 75.1174 95.0006 77.9252 95.0006 82.523C95.0006 83.022 95.0462 83.5446 95.135 84.0881C95.1375 84.1029 95.14 84.119 95.1437 84.1338C96.0271 88.0324 99.6348 90.0521 105.971 90.1892C114.691 90.1435 119.458 86.5809 120.271 79.5002C120.303 79.2247 120.552 79.0296 120.826 79.0679C123.226 79.4063 126.197 80.0178 129.738 80.8986C132.407 81.5619 134.796 82.2426 136.907 82.9405C137.92 83.2753 138.873 82.2969 138.508 81.2926L138.322 80.7787C138.149 80.3044 137.77 79.9338 137.292 79.7732C133.533 78.5144 128.006 77.021 120.708 75.2928ZM98.3344 51.37C98.0136 51.685 97.4732 51.4515 97.483 51.0006C97.4843 50.9624 97.4843 50.9253 97.4843 50.887C97.4843 49.5986 97.0808 48.4584 96.2763 47.4677C95.4706 46.4782 94.528 45.6147 93.4471 44.8773C92.3737 44.146 91.3336 43.5283 90.328 43.0231C90.3144 43.0157 90.3009 43.0083 90.2873 42.9996C90.2022 42.944 90.117 42.8922 90.0307 42.844C89.758 42.6933 89.6975 42.3239 89.8986 42.0855C91.1991 40.5476 92.5662 39.395 93.9974 38.6267C95.5842 37.7755 97.1598 37.3494 98.723 37.3494C101.873 37.3494 104.66 38.9565 107.084 42.172C107.237 42.3746 107.216 42.6587 107.035 42.8366L98.3344 51.37ZM110.42 81.3136C110.259 82.5798 109.799 83.6162 109.04 84.4216C108.282 85.227 107.373 85.631 106.315 85.631C104.338 85.631 103.349 84.6872 103.349 82.7985C103.349 80.3637 105.6 78.9505 110.104 78.5589C110.406 78.533 110.662 78.7813 110.644 79.0851C110.611 79.6521 110.537 80.3946 110.42 81.3136Z" fill="url(#paint6_linear_584_15091)"/>
<path d="M97.4401 50.1766C97.4203 50.0123 97.3919 49.8517 97.3572 49.6924C97.3572 49.7196 97.3584 49.7467 97.3584 49.7751C97.3584 49.8134 97.3584 49.8505 97.3572 49.8888C97.3547 50 97.3869 50.0976 97.4401 50.1766Z" fill="url(#paint7_linear_584_15091)"/>
<path d="M89.9073 41.7315C89.9714 41.7673 90.0368 41.808 90.101 41.8488C91.341 40.4294 92.639 39.3547 93.9975 38.6247C95.5842 37.7736 97.1586 37.3474 98.7231 37.3474C101.757 37.3474 104.453 38.8384 106.812 41.8192L106.912 41.7216C107.093 41.5437 107.113 41.2596 106.96 41.057C104.537 37.8427 101.75 36.2344 98.5997 36.2344C97.0352 36.2344 95.4608 36.6606 93.8741 37.5117C92.4416 38.2813 91.0745 39.4338 89.7753 40.9705C89.5742 41.2114 89.6346 41.5807 89.9073 41.7315Z" fill="url(#paint8_linear_584_15091)"/>
<path d="M124.187 33.2664H120.696C120.419 33.2664 120.194 33.4913 120.194 33.7692V71.6706V73.6903C120.194 73.8139 120.241 73.9287 120.318 74.0177V72.7824V34.881C120.318 34.603 120.542 34.3782 120.82 34.3782H124.31C125.559 34.3782 126.46 33.18 126.114 31.9793L126.037 31.71C125.886 32.5722 125.137 33.2664 124.187 33.2664Z" fill="url(#paint9_linear_584_15091)"/>
<path d="M110.102 78.5589C110.241 78.5466 110.368 78.5948 110.466 78.6775C110.489 78.4181 110.506 78.1834 110.519 77.9734C110.536 77.6695 110.28 77.4212 109.978 77.4472C105.476 77.8388 103.223 79.2532 103.223 81.6867C103.223 82.0721 103.266 82.4155 103.349 82.7219C103.396 80.3353 105.646 78.9468 110.102 78.5589Z" fill="url(#paint10_linear_584_15091)"/>
<path d="M97.8396 63.2369L109.736 51.3262C110.007 51.0556 110.452 51.1792 110.565 51.5189C110.537 51.1792 110.506 50.8432 110.467 50.5121C110.417 50.0946 109.91 49.9167 109.613 50.2144L97.7162 62.1252C96.4923 63.3506 94.5922 63.5828 93.1091 62.6897L89.3089 60.3994C89.1361 60.5761 89.0313 60.6836 89.0263 60.6922C88.8857 60.9244 88.9597 61.2271 89.1929 61.3667L93.2325 63.8015C94.7168 64.6958 96.6169 64.4623 97.8396 63.2369Z" fill="url(#paint11_linear_584_15091)"/>
<path d="M138.506 81.2935L138.401 81.0057C138.197 81.6369 137.504 82.068 136.781 81.8296C134.67 81.1317 132.28 80.451 129.612 79.7877C126.07 78.9057 123.1 78.2954 120.7 77.9569C120.426 77.9187 120.176 78.1138 120.145 78.3893C119.332 85.47 114.566 89.0326 105.845 89.0783C99.5102 88.94 95.9013 86.9215 95.0178 83.0229C95.0154 83.0143 95.0141 83.0056 95.0129 82.997C95.0326 83.3503 95.0709 83.7147 95.1326 84.089C95.135 84.1038 95.1375 84.1199 95.1412 84.1347C96.0246 88.0333 99.6324 90.053 105.968 90.1901C114.689 90.1444 119.455 86.5818 120.268 79.5011C120.3 79.2256 120.55 79.0304 120.824 79.0687C123.223 79.4072 126.194 80.0187 129.736 80.8994C132.404 81.5628 134.793 82.2434 136.904 82.9414C137.917 83.2761 138.871 82.2978 138.506 81.2935Z" fill="url(#paint12_linear_584_15091)"/>
<path d="M93.6322 52.1762C93.6322 52.1589 93.6335 52.1404 93.6335 52.1231C93.6335 49.3152 91.357 47.8181 86.8029 47.6328C86.1293 47.6328 85.4396 47.6822 84.7338 47.781C83.3087 47.9799 81.9108 47.2622 81.2174 45.9997L80.1809 44.1159C79.8355 43.4883 79.5986 42.8213 79.4653 42.1406C79.4962 43.2017 79.7738 44.2616 80.3043 45.2276L81.3407 47.1115C82.0342 48.3739 83.4321 49.0916 84.8572 48.8928C85.5629 48.7939 86.2527 48.7445 86.9263 48.7445C90.8684 48.9051 93.1029 50.0502 93.6322 52.1762Z" fill="url(#paint13_linear_584_15091)"/>
<path d="M200.617 60.0151C198.252 54.1795 197.07 49.0049 197.07 44.4899C197.07 39.8983 198.723 37.125 202.031 36.1689C202.078 36.1553 202.126 36.1491 202.174 36.1491H206.029C207.49 36.1491 208.545 34.7471 208.14 33.3413L207.947 32.6718C207.612 31.5032 206.543 30.699 205.329 30.699H179.172H177.686H171.418C169.988 30.699 168.903 30.2592 168.16 29.3772C167.68 28.809 167.31 28.0443 167.048 27.0833C166.762 26.0345 165.887 25.2501 164.819 25.0562C164.79 25.0512 164.763 25.0463 164.737 25.0413C164.568 25.0092 164.311 24.9722 163.966 24.9289C162.712 24.7708 161.603 25.7479 161.603 27.0129V39.8797C161.603 40.3677 160.979 40.569 160.695 40.1725C158.464 37.062 155.853 34.7582 152.86 33.2585C149.45 31.5526 146.014 30.699 142.55 30.699C137.325 30.699 132.953 32.3234 129.436 35.571C125.311 39.7006 123.249 44.3243 123.249 49.4446C123.249 54.2895 124.982 58.5574 128.446 62.2448C131.911 65.9334 136.006 67.7777 140.736 67.7777C142.606 67.7777 144.502 67.4207 146.428 66.7042C149.398 65.4936 151.542 63.8556 152.861 61.7902C154.18 59.7248 154.84 57.6198 154.84 55.4729C154.84 54.3722 154.675 53.2988 154.346 52.2525C153.74 50.3254 152.681 48.8665 151.17 47.8758C149.657 46.8851 148.021 46.3898 146.262 46.3898C144.783 46.3898 143.367 46.7505 142.012 47.4719C140.88 48.0747 140.48 49.5052 141.109 50.6244L141.287 50.9406C141.816 51.8819 142.988 52.2562 143.956 51.7781C144.876 51.3235 145.673 51.0962 146.344 51.0962C147.114 51.0962 147.705 51.3581 148.117 51.8807C148.529 52.4044 148.735 52.9961 148.735 53.6558C148.735 54.4278 148.501 55.1974 148.035 55.9683C147.567 56.7403 146.811 57.3728 145.767 57.8681C144.722 58.3635 143.677 58.6118 142.633 58.6118C140.762 58.6118 139.128 57.9657 137.725 56.6711C136.322 55.3778 135.621 53.657 135.621 51.5101C135.621 49.6929 136.308 47.6572 137.683 45.399C138.727 43.803 140.212 42.4961 142.137 41.477C144.06 40.4591 146.096 39.9489 148.241 39.9489C150.274 39.9489 152.254 40.4999 154.179 41.6005C156.104 42.7024 157.726 44.5195 159.045 47.0506C160.363 49.5793 161.214 52.9838 161.601 57.2666C161.602 57.2826 161.603 57.2987 161.603 57.3135V80.0578C161.603 80.3086 161.788 80.521 162.036 80.5556L172.415 81.9861C172.716 82.0281 172.985 81.7934 172.985 81.4883V36.6519C172.985 36.374 173.21 36.1491 173.487 36.1491H179.171H180.739H187.139C187.625 36.1491 187.832 36.7779 187.435 37.0596C184.235 39.33 182.635 42.632 182.635 46.9679C182.635 50.0512 183.35 53.0381 184.78 55.9275C186.208 58.8181 187.749 61.5839 189.399 64.2275C191.863 67.9556 193.536 71.4107 194.42 74.5928C194.427 74.62 194.432 74.6472 194.436 74.6756L194.51 75.3439C194.512 75.3661 194.513 75.3884 194.513 75.4106C194.507 76.2234 194.259 76.9696 193.771 77.6477C193.276 78.337 192.587 78.6804 191.709 78.6804C190.957 78.6804 190.079 78.3309 189.073 77.6304C188.037 76.9078 186.597 77.371 186.182 78.5656L185.944 79.2524C185.419 80.7656 186.224 82.4259 187.743 82.9299C188.06 83.0349 188.392 83.1325 188.739 83.2226C190.223 83.6068 191.626 83.8008 192.945 83.8008C193.659 83.8008 194.292 83.7452 194.843 83.6352C200.891 82.3134 203.916 78.7632 203.916 72.982C203.916 69.6245 203.037 65.8531 201.277 61.6679L200.617 60.0151Z" fill="url(#paint14_linear_584_15091)"/>
<path d="M153.678 50.668C153.735 50.8224 153.789 50.978 153.84 51.1386C154.169 52.1849 154.335 53.2584 154.335 54.359C154.335 56.506 153.674 58.6122 152.356 60.6764C151.037 62.7405 148.891 64.3798 145.922 65.5904C143.996 66.3068 142.1 66.6638 140.231 66.6638C135.501 66.6638 131.405 64.8195 127.94 61.1309C126.499 59.5967 125.359 57.9624 124.518 56.228C125.384 58.3799 126.689 60.3848 128.434 62.2427C131.898 65.9313 135.994 67.7756 140.724 67.7756C142.593 67.7756 144.49 67.4186 146.416 66.7021C149.386 65.4915 151.53 63.8535 152.849 61.7881C154.168 59.7227 154.828 57.6178 154.828 55.4708C154.828 54.3702 154.663 53.2967 154.333 52.2504C154.156 51.6821 153.936 51.1547 153.678 50.668Z" fill="url(#paint15_linear_584_15091)"/>
<path d="M158.542 45.9357C157.222 43.4046 155.599 41.5875 153.676 40.4856C151.75 39.3849 149.771 38.834 147.737 38.834C145.593 38.834 143.557 39.3442 141.633 40.362C139.707 41.3812 138.223 42.6881 137.179 44.2841C135.805 46.5422 135.118 48.578 135.118 50.3951C135.118 51.7787 135.41 52.9843 135.992 54.0133C135.739 53.2549 135.611 52.4198 135.611 51.5069C135.611 49.6898 136.298 47.654 137.673 45.3959C138.717 43.7999 140.202 42.4929 142.127 41.4738C144.051 40.4559 146.086 39.9458 148.231 39.9458C150.264 39.9458 152.244 40.4967 154.169 41.5973C156.094 42.6992 157.717 44.5164 159.036 47.0475C159.098 47.1685 159.159 47.2933 159.221 47.4181C159.01 46.8943 158.784 46.4002 158.542 45.9357Z" fill="url(#paint16_linear_584_15091)"/>
<path d="M167.199 27.5998C167.142 27.433 167.088 27.2613 167.038 27.0809C166.948 26.7523 166.801 26.4485 166.608 26.1816C166.768 26.7202 166.965 27.1933 167.199 27.5998Z" fill="url(#paint17_linear_584_15091)"/>
<path d="M141.276 50.937C141.805 51.8783 142.977 52.2526 143.944 51.7746C144.865 51.32 145.662 51.0927 146.333 51.0927C147.103 51.0927 147.694 51.3546 148.106 51.8771C148.131 51.908 148.152 51.9401 148.174 51.971C148.088 51.5361 147.903 51.1334 147.613 50.7653C147.201 50.2428 146.608 49.9809 145.84 49.9809C145.168 49.9809 144.371 50.2082 143.451 50.6628C142.518 51.1236 141.398 50.79 140.844 49.9229C140.889 50.1613 140.972 50.3972 141.098 50.6196L141.276 50.937Z" fill="url(#paint18_linear_584_15091)"/>
<path d="M208.13 33.3376L207.937 32.668C207.847 32.3543 207.703 32.0677 207.518 31.8145L207.636 32.2246C208.041 33.6303 206.986 35.0324 205.525 35.0324H201.671C201.623 35.0324 201.575 35.0386 201.528 35.0522C198.22 36.0083 196.566 38.7803 196.566 43.3731C196.566 47.8882 197.748 53.064 200.114 58.8984L200.774 60.55C202.533 64.7351 203.413 68.5065 203.413 71.864C203.413 77.6452 200.388 81.1955 194.339 82.5173C193.789 82.6272 193.156 82.6828 192.442 82.6828C191.121 82.6828 189.72 82.4888 188.236 82.1047C187.889 82.0145 187.557 81.9169 187.24 81.8119C186.653 81.6167 186.174 81.2498 185.836 80.7854C186.038 81.7526 186.73 82.5901 187.733 82.9237C188.05 83.0287 188.382 83.1263 188.729 83.2164C190.213 83.6006 191.616 83.7946 192.935 83.7946C193.65 83.7946 194.283 83.739 194.833 83.629C200.881 82.3073 203.906 78.757 203.906 72.9758C203.906 69.6183 203.027 65.8469 201.267 61.6617L200.607 60.0101C198.242 54.1746 197.06 48.9999 197.06 44.4849C197.06 39.8933 198.713 37.1201 202.021 36.1639C202.068 36.1503 202.116 36.1442 202.164 36.1442H206.019C207.481 36.1466 208.535 34.7446 208.13 33.3376Z" fill="url(#paint19_linear_584_15091)"/>
<path d="M192.728 70.1122C191.791 67.8973 190.516 65.565 188.896 63.113C187.246 60.4707 185.706 57.7036 184.276 54.813C184.228 54.7154 184.182 54.6178 184.137 54.5215C184.33 54.9921 184.54 55.4603 184.77 55.9248C186.198 58.8154 187.74 61.5812 189.389 64.2247C190.74 66.2692 191.852 68.2308 192.728 70.1122Z" fill="url(#paint20_linear_584_15091)"/>
<path d="M186.931 35.9446C187.329 35.6629 187.123 35.0342 186.635 35.0342H180.235H178.667H172.984C172.706 35.0342 172.482 35.259 172.482 35.5369V80.3733C172.482 80.6784 172.213 80.9131 171.912 80.8711L161.593 79.4493V80.0546C161.593 80.3054 161.778 80.5178 162.026 80.5524L172.405 81.9829C172.706 82.0249 172.975 81.7902 172.975 81.4851V36.6487C172.975 36.3708 173.2 36.1459 173.478 36.1459H179.161H180.729H186.655C186.746 36.0792 186.838 36.0113 186.931 35.9446Z" fill="url(#paint21_linear_584_15091)"/>
<path d="M44.0369 27.3534L39.9677 31.5423L38.7918 31.5633L42.0997 27.3213L44.0369 27.3534Z" fill="url(#paint22_linear_584_15091)"/>
<path d="M34.0169 91.9248L24.1165 87.2652C24.1165 87.2652 17.0516 84.6489 14.6962 73.1186C14.6962 73.1186 10.6615 55.6107 22.6335 33.4643L26.6891 37.2221C26.6891 37.2221 29.7132 40.0015 33.4641 35.8324C37.215 31.6632 33.3185 28.6281 33.3185 28.6281L28.6373 24.0044C28.6373 24.0044 39.2496 8.51004 53.2499 7.10551C53.2499 7.10551 57.5239 6.87204 60.1841 8.10487L71.0875 13.3376C71.0875 13.3376 65.4612 10.5298 56.4332 14.9966C56.4332 14.9966 47.0351 19.1027 37.6147 33.0159C37.6147 33.0159 22.5027 54.6089 26.166 78.3501C26.166 78.3526 27.5614 88.3931 34.0169 91.9248Z" fill="url(#paint23_linear_584_15091)"/>
<path d="M32.1488 84.9687C32.1488 84.9687 42.2231 100.797 62.8307 79.6075L45.3632 79.416C45.3632 79.416 39.4754 85.0317 32.1488 84.9687Z" fill="#92278F"/>
<path d="M64.3705 16.2328C64.3705 16.2328 70.9777 15.1482 75.8847 21.7855H67.1183C67.1183 21.7855 66.9875 19.2321 64.3705 16.2328Z" fill="url(#paint24_linear_584_15091)"/>
<path d="M15.0042 18.0224C17.7491 14.9493 17.9493 10.6449 15.4513 8.40835C12.9532 6.17175 8.70294 6.84986 5.95796 9.92296C3.21298 12.9961 3.01279 17.3004 5.51083 19.537C8.00887 21.7736 12.2592 21.0955 15.0042 18.0224Z" fill="#92278F"/>
<path d="M16.8061 10.3809C16.8887 12.1597 16.2595 14.1152 14.9109 15.7853C12.3223 18.9884 8.06803 19.9272 5.40787 17.8816C4.65153 17.2998 4.10494 16.5388 3.77057 15.6741C3.84583 17.3084 4.52198 18.7945 5.7953 19.7741C8.45545 21.8197 12.7097 20.8809 15.2983 17.6778C17.1503 15.3851 17.6463 12.555 16.8061 10.3809Z" fill="url(#paint25_linear_584_15091)"/>
<path d="M6.24316 21.3384L16.1435 30.912C16.1435 30.912 17.9313 32.6994 21.4638 31.9756L26.7409 37.2083C26.7409 37.2083 30.2302 40.4843 34.2427 35.2083C34.2427 35.2083 31.2333 37.8037 28.3548 36.0162L23.4268 31.2504C23.4268 31.2504 27.6132 29.5914 28.6608 24.187C28.6608 24.187 29.6639 20.6133 26.3054 17.7622L17.539 9.08301C17.539 9.08301 18.1522 9.80689 18.6062 11.0175C19.3626 13.0347 19.676 16.4021 15.9695 20.0179C15.9695 20.0191 10.8232 24.7849 6.24316 21.3384Z" fill="#92278F"/>
<path d="M33.2272 28.2838L33.3185 28.6285C33.3185 28.6285 37.215 31.6636 33.4641 35.8327C29.7132 40.0019 26.6891 37.2224 26.6891 37.2224C26.5657 37.1076 26.3609 37.1533 26.2992 37.3077C15.3538 64.7646 21.1331 80.7988 25.607 87.966L34.0169 91.9239C27.5627 88.3922 26.1672 78.3517 26.1672 78.3517C22.5039 54.6105 37.616 33.0175 37.616 33.0175C47.0363 19.1043 56.4345 14.9982 56.4345 14.9982C65.1602 10.6808 70.7063 13.1588 71.069 13.3293L66.774 11.2676C59.1551 7.08858 41.5593 14.7128 33.2272 28.2838Z" fill="url(#paint26_linear_584_15091)"/>
<path d="M71.0678 13.3301L71.0872 13.3397C71.0872 13.3397 71.0799 13.3361 71.0678 13.3301Z" fill="url(#paint27_linear_584_15091)"/>
<path d="M28.2585 36.0168L23.3306 31.251C23.3306 31.251 23.7883 31.0681 24.4373 30.6321C19.2811 28.2282 16.6247 23.7898 15.3032 20.4854C13.8411 21.5946 9.81266 24.0961 6.14816 21.3377L16.0485 30.9113C16.0485 30.9113 17.8363 32.6987 21.3688 31.9749L26.6459 37.2076C26.6459 37.2076 30.1352 40.4836 34.1476 35.2076C34.1452 35.2076 31.1371 37.803 28.2585 36.0168Z" fill="url(#paint28_linear_584_15091)"/>
<path d="M54.0803 79.5127C50.6502 82.5997 47.3226 87.9572 32.2081 85.1419C33.3901 86.8034 43.452 99.4726 62.7715 79.6078L54.0803 79.5127Z" fill="url(#paint29_linear_584_15091)"/>
<path opacity="0.24" d="M11.7325 9.86027C12.3963 9.4194 12.7301 8.75368 12.4781 8.37334C12.2261 7.99301 11.4837 8.0421 10.8199 8.48297C10.1561 8.92385 9.82227 9.58957 10.0743 9.9699C10.3263 10.3502 11.0687 10.3012 11.7325 9.86027Z" fill="#EFD0E4"/>
<path opacity="0.24" d="M18.9307 12.1359C21.4922 14.2865 26.9655 19.1573 28.8002 22.9682C28.8113 21.6749 28.4374 19.5749 26.3054 17.7651L17.5389 9.08594C17.5389 9.08594 18.1522 9.80982 18.6062 11.0204C18.7321 11.3552 18.8456 11.7295 18.9307 12.1359Z" fill="#EFD0E4"/>
</g>
<defs>
<linearGradient id="paint0_linear_584_15091" x1="57.2991" y1="85.1057" x2="57.2991" y2="32.0464" gradientUnits="userSpaceOnUse">
<stop stop-color="#D01A8A"/>
<stop offset="1" stop-color="#7E3C97"/>
</linearGradient>
<linearGradient id="paint1_linear_584_15091" x1="44.3999" y1="75.6289" x2="44.3999" y2="61.4137" gradientUnits="userSpaceOnUse">
<stop stop-color="#D01A8A"/>
<stop offset="1" stop-color="#7E3C97"/>
</linearGradient>
<linearGradient id="paint2_linear_584_15091" x1="49.4726" y1="33.5659" x2="49.4726" y2="27.8551" gradientUnits="userSpaceOnUse">
<stop stop-color="#D01A8A"/>
<stop offset="1" stop-color="#7E3C97"/>
</linearGradient>
<linearGradient id="paint3_linear_584_15091" x1="53.2903" y1="63.9488" x2="53.2903" y2="50.0233" gradientUnits="userSpaceOnUse">
<stop stop-color="#D01A8A"/>
<stop offset="1" stop-color="#7E3C97"/>
</linearGradient>
<linearGradient id="paint4_linear_584_15091" x1="50.737" y1="63.0369" x2="50.737" y2="61.0009" gradientUnits="userSpaceOnUse">
<stop stop-color="#D01A8A"/>
<stop offset="1" stop-color="#7E3C97"/>
</linearGradient>
<linearGradient id="paint5_linear_584_15091" x1="74.5041" y1="84.7161" x2="74.5041" y2="34.5526" gradientUnits="userSpaceOnUse">
<stop stop-color="#D01A8A"/>
<stop offset="1" stop-color="#7E3C97"/>
</linearGradient>
<linearGradient id="paint6_linear_584_15091" x1="109.025" y1="80.4845" x2="109.025" y2="29.7772" gradientUnits="userSpaceOnUse">
<stop stop-color="#D01A8A"/>
<stop offset="1" stop-color="#7E3C97"/>
</linearGradient>
<linearGradient id="paint7_linear_584_15091" x1="97.3983" y1="50.1047" x2="97.3983" y2="49.7289" gradientUnits="userSpaceOnUse">
<stop stop-color="#D01A8A"/>
<stop offset="1" stop-color="#7E3C97"/>
</linearGradient>
<linearGradient id="paint8_linear_584_15091" x1="98.3597" y1="41.0153" x2="98.3597" y2="36.6563" gradientUnits="userSpaceOnUse">
<stop stop-color="#D01A8A"/>
<stop offset="1" stop-color="#7E3C97"/>
</linearGradient>
<linearGradient id="paint9_linear_584_15091" x1="123.191" y1="67.7304" x2="123.191" y2="34.8764" gradientUnits="userSpaceOnUse">
<stop stop-color="#D01A8A"/>
<stop offset="1" stop-color="#7E3C97"/>
</linearGradient>
<linearGradient id="paint10_linear_584_15091" x1="106.871" y1="81.9377" x2="106.871" y2="77.8402" gradientUnits="userSpaceOnUse">
<stop stop-color="#D01A8A"/>
<stop offset="1" stop-color="#7E3C97"/>
</linearGradient>
<linearGradient id="paint11_linear_584_15091" x1="99.7615" y1="62.2205" x2="99.7615" y2="51.1355" gradientUnits="userSpaceOnUse">
<stop stop-color="#D01A8A"/>
<stop offset="1" stop-color="#7E3C97"/>
</linearGradient>
<linearGradient id="paint12_linear_584_15091" x1="116.799" y1="88.3704" x2="116.799" y2="78.867" gradientUnits="userSpaceOnUse">
<stop stop-color="#D01A8A"/>
<stop offset="1" stop-color="#7E3C97"/>
</linearGradient>
<linearGradient id="paint13_linear_584_15091" x1="86.5493" y1="50.6851" x2="86.5493" y2="42.8926" gradientUnits="userSpaceOnUse">
<stop stop-color="#D01A8A"/>
<stop offset="1" stop-color="#7E3C97"/>
</linearGradient>
<linearGradient id="paint14_linear_584_15091" x1="165.737" y1="84.1939" x2="165.737" y2="30.939" gradientUnits="userSpaceOnUse">
<stop stop-color="#D01A8A"/>
<stop offset="1" stop-color="#7E3C97"/>
</linearGradient>
<linearGradient id="paint15_linear_584_15091" x1="139.673" y1="67.8904" x2="139.673" y2="52.4187" gradientUnits="userSpaceOnUse">
<stop stop-color="#D01A8A"/>
<stop offset="1" stop-color="#7E3C97"/>
</linearGradient>
<linearGradient id="paint16_linear_584_15091" x1="147.169" y1="54.1152" x2="147.169" y2="40.3875" gradientUnits="userSpaceOnUse">
<stop stop-color="#D01A8A"/>
<stop offset="1" stop-color="#7E3C97"/>
</linearGradient>
<linearGradient id="paint17_linear_584_15091" x1="166.903" y1="27.6098" x2="166.903" y2="26.3273" gradientUnits="userSpaceOnUse">
<stop stop-color="#D01A8A"/>
<stop offset="1" stop-color="#7E3C97"/>
</linearGradient>
<linearGradient id="paint18_linear_584_15091" x1="144.51" y1="51.997" x2="144.51" y2="50.135" gradientUnits="userSpaceOnUse">
<stop stop-color="#D01A8A"/>
<stop offset="1" stop-color="#7E3C97"/>
</linearGradient>
<linearGradient id="paint19_linear_584_15091" x1="197.026" y1="84.1449" x2="197.026" y2="37.1364" gradientUnits="userSpaceOnUse">
<stop stop-color="#D01A8A"/>
<stop offset="1" stop-color="#7E3C97"/>
</linearGradient>
<linearGradient id="paint20_linear_584_15091" x1="188.432" y1="70.2163" x2="188.432" y2="56.1163" gradientUnits="userSpaceOnUse">
<stop stop-color="#D01A8A"/>
<stop offset="1" stop-color="#7E3C97"/>
</linearGradient>
<linearGradient id="paint21_linear_584_15091" x1="174.367" y1="82.3036" x2="174.367" y2="39.8408" gradientUnits="userSpaceOnUse">
<stop stop-color="#D01A8A"/>
<stop offset="1" stop-color="#7E3C97"/>
</linearGradient>
<linearGradient id="paint22_linear_584_15091" x1="41.6231" y1="29.6393" x2="40.7486" y2="28.8822" gradientUnits="userSpaceOnUse">
<stop stop-color="#D01A8A"/>
<stop offset="1" stop-color="#7E3C97"/>
</linearGradient>
<linearGradient id="paint23_linear_584_15091" x1="22.1399" y1="2.39705" x2="68.5155" y2="95.7939" gradientUnits="userSpaceOnUse">
<stop stop-color="#D01A8A"/>
<stop offset="1" stop-color="#7E3C97"/>
</linearGradient>
<linearGradient id="paint24_linear_584_15091" x1="68.0436" y1="22.7183" x2="70.3376" y2="18.6448" gradientUnits="userSpaceOnUse">
<stop stop-color="#D01A8A"/>
<stop offset="1" stop-color="#7E3C97"/>
</linearGradient>
<linearGradient id="paint25_linear_584_15091" x1="3.77035" y1="15.6187" x2="17.2018" y2="15.6187" gradientUnits="userSpaceOnUse">
<stop stop-color="#D01A8A"/>
<stop offset="1" stop-color="#7E3C97"/>
</linearGradient>
<linearGradient id="paint26_linear_584_15091" x1="25.2683" y1="31.1822" x2="50.2656" y2="52.2264" gradientUnits="userSpaceOnUse">
<stop stop-color="#D01A8A"/>
<stop offset="1" stop-color="#7E3C97"/>
</linearGradient>
<linearGradient id="paint27_linear_584_15091" x1="51.5404" y1="-3.04708" x2="77.8951" y2="19.2815" gradientUnits="userSpaceOnUse">
<stop stop-color="#D01A8A"/>
<stop offset="1" stop-color="#7E3C97"/>
</linearGradient>
<linearGradient id="paint28_linear_584_15091" x1="25.6509" y1="19.612" x2="18.597" y2="30.6837" gradientUnits="userSpaceOnUse">
<stop stop-color="#D01A8A"/>
<stop offset="1" stop-color="#7E3C97"/>
</linearGradient>
<linearGradient id="paint29_linear_584_15091" x1="46.6695" y1="78.5768" x2="48.6807" y2="87.8674" gradientUnits="userSpaceOnUse">
<stop stop-color="#D01A8A"/>
<stop offset="1" stop-color="#7E3C97"/>
</linearGradient>
<clipPath id="clip0_584_15091">
<rect width="211" height="94" fill="white"/>
</clipPath>
</defs>
</svg>
