<svg width="24" height="25" viewBox="0 0 24 25" fill="none" xmlns="http://www.w3.org/2000/svg">
<path d="M14.53 9.92012L9.46998 14.9801C8.81998 14.3301 8.41998 13.4401 8.41998 12.4501C8.41998 10.4701 10.02 8.87012 12 8.87012C12.99 8.87012 13.88 9.27012 14.53 9.92012Z" stroke="#555555" stroke-width="1.5" stroke-linecap="round" stroke-linejoin="round"/>
<path d="M17.82 6.22066C16.07 4.90066 14.07 4.18066 12 4.18066C8.47003 4.18066 5.18003 6.26066 2.89003 9.86066C1.99003 11.2707 1.99003 13.6407 2.89003 15.0507C3.68003 16.2907 4.60003 17.3607 5.60003 18.2207" stroke="#555555" stroke-width="1.5" stroke-linecap="round" stroke-linejoin="round"/>
<path d="M8.41998 19.9799C9.55998 20.4599 10.77 20.7199 12 20.7199C15.53 20.7199 18.82 18.6399 21.11 15.0399C22.01 13.6299 22.01 11.2599 21.11 9.84988C20.78 9.32988 20.42 8.83988 20.05 8.37988" stroke="#555555" stroke-width="1.5" stroke-linecap="round" stroke-linejoin="round"/>
<path d="M15.51 13.1504C15.25 14.5604 14.1 15.7104 12.69 15.9704" stroke="#555555" stroke-width="1.5" stroke-linecap="round" stroke-linejoin="round"/>
<path d="M9.47 14.9805L2 22.4505" stroke="#555555" stroke-width="1.5" stroke-linecap="round" stroke-linejoin="round"/>
<path d="M22 2.4502L14.53 9.9202" stroke="#555555" stroke-width="1.5" stroke-linecap="round" stroke-linejoin="round"/>
</svg>
