<svg width="24" height="24" viewBox="0 0 24 24" fill="none" xmlns="http://www.w3.org/2000/svg">
<path d="M19.9384 11.0019C19.4879 7.38163 16.6184 4.51214 12.998 4.06161C12.45 3.99341 12 4.44768 12 4.99996V9.49996C12 9.77611 12.2274 9.99355 12.495 10.0617C13.2019 10.2416 13.7584 10.7981 13.9383 11.505C14.0064 11.7726 14.2239 12 14.5 12H19C19.5523 12 20.0066 11.55 19.9384 11.0019Z" stroke="black" stroke-width="1.5" stroke-linecap="round" stroke-linejoin="round"/>
<path d="M7.0199 5.50486C4.10988 7.70519 3.05957 11.625 4.47956 14.9855C4.69453 15.4943 5.31292 15.6568 5.79121 15.3807L9.68832 13.1307C9.92747 12.9926 10.0021 12.687 9.92731 12.4212C9.72971 11.719 9.9334 10.9588 10.4556 10.4495C10.6533 10.2567 10.7415 9.95475 10.6034 9.7156L8.35339 5.81849C8.07724 5.3402 7.46043 5.17176 7.0199 5.50486Z" stroke="black" stroke-width="1.5" stroke-linecap="round" stroke-linejoin="round"/>
<path d="M8.86796 19.3738C12.2285 20.7937 16.1483 19.7434 18.3486 16.8334C18.6817 16.3929 18.5133 15.7761 18.035 15.4999L14.1379 13.2499C13.8988 13.1119 13.5968 13.2 13.404 13.3977C12.8947 13.9199 12.1345 14.1236 11.4323 13.926C11.1665 13.8512 10.8609 13.9258 10.7228 14.165L8.47284 18.0621C8.19669 18.5404 8.35923 19.1588 8.86796 19.3738Z" stroke="black" stroke-width="1.5" stroke-linecap="round" stroke-linejoin="round"/>
</svg>
