<svg width="67" height="67" viewBox="0 0 67 67" fill="none" xmlns="http://www.w3.org/2000/svg">
<g clip-path="url(#clip0_156_27476)">
<path d="M48.8318 28.2629C51.1621 21.5609 49.3713 12.3803 43.2573 9.01808C42.9985 8.86936 42.7307 8.73681 42.4555 8.62121C41.7168 8.2904 40.9254 8.09267 40.1178 8.03712C40.1178 8.03712 38.0648 5.71577 33.9138 6.03027C30.9845 5.97354 28.0979 6.73884 25.582 8.2393C19.363 11.5266 16.6881 21.2764 19.1232 28.2629C21.5584 35.2494 21.3111 37.9078 18.7561 39.0685C22.2517 40.7494 26.1255 41.4901 29.9951 41.2176H37.9824C41.852 41.4901 45.7258 40.7494 49.2215 39.0685C46.584 37.9078 46.3593 35.242 48.8318 28.2629Z" fill="#534040"/>
<path d="M38.9565 35.8555H29.0436L28.3618 44.8489L39.5034 43.0217L38.9565 35.8555Z" fill="#FFD7D0"/>
<path d="M29.0436 35.8779L28.6614 40.925C28.6614 40.925 36.4389 39.2626 38.9564 35.8779H29.0436Z" fill="#FFBBB8"/>
<path d="M44.1564 19.3063C44.1564 21.3955 44.2313 23.3574 44.2463 24.1736C44.3287 27.3711 44.014 32.0438 39.9604 35.2038C38.2146 36.5667 36.1017 37.7948 33.9663 37.8172C31.8308 37.8397 29.568 36.6116 27.7623 35.2038C23.7087 32.0438 23.4015 27.3711 23.4765 24.1736C23.4765 23.2975 23.5589 21.1034 23.6263 18.8345C23.7162 15.4498 27.2678 12.0127 33.9663 12.0127C40.6648 12.0127 44.1564 16.1312 44.1564 19.3063Z" fill="#FFD7D0"/>
<path d="M33.8464 32.7634C32.6171 32.744 31.435 32.2874 30.5122 31.4755C30.4472 31.4096 30.4108 31.3209 30.4108 31.2284C30.4108 31.1359 30.4472 31.0471 30.5122 30.9812C30.5789 30.918 30.6674 30.8828 30.7594 30.8828C30.8514 30.8828 30.9399 30.918 31.0067 30.9812C31.1116 31.0861 33.6591 33.4898 36.9409 30.8465C37.0135 30.788 37.1063 30.7607 37.199 30.7705C37.2917 30.7803 37.3767 30.8265 37.4354 30.8989C37.4642 30.9342 37.4856 30.9748 37.4986 31.0185C37.5115 31.0621 37.5157 31.1079 37.5108 31.1532C37.5059 31.1984 37.4921 31.2423 37.4702 31.2822C37.4482 31.3221 37.4186 31.3572 37.383 31.3856C36.4037 32.2475 35.151 32.7356 33.8464 32.7634Z" fill="#FF6F65"/>
<path d="M29.9427 23.8973C29.9427 24.5413 29.5905 25.0655 29.1485 25.0655C28.7064 25.0655 28.3542 24.5413 28.3542 23.8973C28.3542 23.2534 28.7139 22.7217 29.1485 22.7217C29.5831 22.7217 29.9427 23.2159 29.9427 23.8973Z" fill="#452C1A"/>
<path d="M39.6158 23.8973C39.6158 24.5413 39.2562 25.0655 38.8216 25.0655C38.387 25.0655 38.0273 24.5413 38.0273 23.8973C38.0273 23.2534 38.387 22.7217 38.8216 22.7217C39.2562 22.7217 39.6158 23.2159 39.6158 23.8973Z" fill="#452C1A"/>
<path d="M30.7968 21.1637C30.7622 21.1709 30.7265 21.1709 30.6919 21.1637C29.6894 20.8674 28.6225 20.8674 27.6199 21.1637C27.5761 21.1789 27.5298 21.1854 27.4835 21.1827C27.4372 21.18 27.3919 21.1683 27.3501 21.1481C27.3084 21.1279 27.271 21.0998 27.2402 21.0652C27.2093 21.0306 27.1856 20.9902 27.1703 20.9465C27.1551 20.9027 27.1486 20.8564 27.1513 20.8101C27.1539 20.7639 27.1657 20.7186 27.1859 20.6769C27.2061 20.6352 27.2343 20.5978 27.2689 20.567C27.3035 20.5362 27.3439 20.5124 27.3876 20.4972C28.5316 20.1559 29.7503 20.1559 30.8942 20.4972C30.9835 20.5233 31.0588 20.5836 31.1037 20.665C31.1486 20.7463 31.1595 20.8422 31.134 20.9315C31.1081 20.9999 31.0619 21.0587 31.0017 21.1002C30.9415 21.1417 30.87 21.1638 30.7968 21.1637Z" fill="#E5A245"/>
<path d="M40.47 21.164C40.4354 21.1713 40.3997 21.1713 40.3651 21.164C39.3625 20.8677 38.2956 20.8677 37.2931 21.164C37.2493 21.1792 37.2029 21.1857 37.1566 21.183C37.1103 21.1804 37.065 21.1686 37.0233 21.1484C36.9815 21.1283 36.9442 21.1001 36.9133 21.0655C36.8825 21.0309 36.8588 20.9906 36.8435 20.9468C36.8283 20.9031 36.8218 20.8567 36.8244 20.8105C36.8271 20.7642 36.8389 20.7189 36.859 20.6772C36.8792 20.6355 36.9074 20.5981 36.942 20.5673C36.9767 20.5365 37.017 20.5128 37.0608 20.4975C38.2047 20.1558 39.4235 20.1558 40.5674 20.4975C40.612 20.5094 40.6538 20.5304 40.69 20.5591C40.7262 20.5877 40.7561 20.6235 40.7779 20.6643C40.7997 20.705 40.8128 20.7498 40.8166 20.7958C40.8203 20.8418 40.8146 20.8881 40.7997 20.9318C40.7761 21.0002 40.7315 21.0595 40.6723 21.1011C40.6132 21.1428 40.5424 21.1648 40.47 21.164Z" fill="#E5A245"/>
<path d="M47.0036 23.8067C46.8998 23.5006 46.7321 23.2199 46.5117 22.9833C46.2913 22.7468 46.0231 22.5597 45.7249 22.4344C45.4267 22.3091 45.1054 22.2485 44.782 22.2566C44.4586 22.2647 44.1407 22.3413 43.8492 22.4813L43.3397 30.6435C45.5275 29.1983 47.7828 26.6673 47.0036 23.8067Z" fill="#FFD7D0"/>
<path d="M23.8961 22.4813C23.6045 22.3413 23.2866 22.2647 22.9632 22.2566C22.6399 22.2485 22.3185 22.3091 22.0203 22.4344C21.7221 22.5597 21.454 22.7468 21.2335 22.9833C21.0131 23.2199 20.8454 23.5006 20.7416 23.8067C19.9924 26.6673 22.2402 29.1983 24.4131 30.6435L23.8961 22.4813Z" fill="#FFD7D0"/>
<path d="M34.2435 29.0337H34.1386C33.4971 28.8417 32.9364 28.4444 32.5427 27.903C32.4989 27.8256 32.4861 27.7346 32.5068 27.6482C32.5274 27.5617 32.58 27.4863 32.6539 27.437C32.7279 27.3877 32.8178 27.3683 32.9056 27.3825C32.9933 27.3967 33.0725 27.4435 33.1271 27.5136C33.4277 27.9261 33.8576 28.2266 34.3484 28.3673C34.3925 28.3801 34.4335 28.4016 34.4692 28.4305C34.5048 28.4594 34.5343 28.4951 34.556 28.5356C34.5776 28.576 34.5909 28.6204 34.5952 28.6661C34.5994 28.7118 34.5945 28.7578 34.5807 28.8016C34.5557 28.8706 34.5098 28.93 34.4493 28.9717C34.3889 29.0133 34.3169 29.035 34.2435 29.0337Z" fill="#FFACA8"/>
<path d="M33.8464 53.7746C39.3236 51.4458 46.1045 52.8311 46.1045 52.8311L47.2209 44.1148C43.2123 43.4109 39.5034 43.0215 39.5034 43.0215H28.4966C28.4966 43.0215 24.6304 43.4258 20.5319 44.1597L21.6108 52.8311C21.6108 52.8311 28.3992 51.4458 33.8464 53.7746Z" fill="#FFD7D0"/>
<path d="M42.4181 43.6592C42.3911 43.6669 42.3626 43.6669 42.3356 43.6592C42.3043 43.6526 42.2756 43.6371 42.253 43.6145C42.2304 43.5919 42.2149 43.5632 42.2083 43.5319C42.1995 43.5026 42.1995 43.4714 42.2083 43.4421C42.2016 43.415 42.2016 43.3867 42.2083 43.3597C42.2169 43.3314 42.2323 43.3057 42.2532 43.2848C42.2856 43.2517 42.3272 43.229 42.3726 43.2196C42.418 43.2103 42.4651 43.2147 42.508 43.2324C42.5383 43.2406 42.5648 43.2591 42.5829 43.2848C42.6061 43.3053 42.6241 43.3309 42.6354 43.3597C42.6387 43.387 42.6387 43.4147 42.6354 43.4421C42.6405 43.4718 42.6405 43.5022 42.6354 43.5319C42.6224 43.562 42.6047 43.5898 42.5829 43.6143C42.5348 43.6478 42.4766 43.6637 42.4181 43.6592Z" fill="#E7AF49"/>
<path d="M34.0187 47.3436C34.0187 47.282 34.0432 47.223 34.0868 47.1794C34.1303 47.1359 34.1894 47.1114 34.251 47.1114C34.3126 47.1114 34.3717 47.1359 34.4153 47.1794C34.4588 47.223 34.4833 47.282 34.4833 47.3436C34.4833 47.4052 34.4588 47.4642 34.4153 47.5077C34.3717 47.5513 34.3126 47.5757 34.251 47.5757C34.1894 47.5757 34.1303 47.5513 34.0868 47.5077C34.0432 47.4642 34.0187 47.4052 34.0187 47.3436ZM32.8349 47.5233C32.7726 47.5176 32.715 47.4877 32.6744 47.4402C32.6338 47.3926 32.6134 47.3311 32.6176 47.2687C32.6204 47.2382 32.6293 47.2085 32.6436 47.1814C32.658 47.1543 32.6775 47.1303 32.7012 47.1108C32.7249 47.0913 32.7522 47.0767 32.7816 47.0678C32.811 47.0589 32.8418 47.0559 32.8724 47.059C32.9029 47.0609 32.9327 47.0689 32.9602 47.0823C32.9876 47.0958 33.0122 47.1145 33.0324 47.1375C33.0525 47.1604 33.068 47.1872 33.0778 47.2161C33.0877 47.2451 33.0917 47.2757 33.0896 47.3062C33.0842 47.3645 33.0575 47.4187 33.0147 47.4588C32.9719 47.4988 32.9159 47.5217 32.8574 47.5233H32.8349ZM35.4124 47.3062C35.41 47.2442 35.4311 47.1837 35.4713 47.1365C35.5116 47.0893 35.5681 47.059 35.6297 47.0516C35.6916 47.0492 35.7522 47.0702 35.7994 47.1105C35.8466 47.1507 35.8769 47.2072 35.8844 47.2687C35.8868 47.3306 35.8657 47.3912 35.8255 47.4384C35.7852 47.4855 35.7287 47.5158 35.6671 47.5233C35.6047 47.5275 35.5431 47.5071 35.4955 47.4665C35.4479 47.426 35.4181 47.3684 35.4124 47.3062ZM31.4262 47.3436C31.3958 47.3391 31.3665 47.3285 31.3404 47.3123C31.3142 47.2961 31.2916 47.2747 31.2741 47.2494C31.2565 47.2242 31.2443 47.1955 31.2383 47.1654C31.2322 47.1352 31.2325 47.1041 31.2389 47.074C31.2499 47.013 31.2842 46.9586 31.3345 46.9223C31.3848 46.886 31.4472 46.8706 31.5087 46.8793C31.569 46.8936 31.6217 46.9301 31.6563 46.9814C31.691 47.0327 31.7052 47.0951 31.696 47.1564C31.6844 47.21 31.6553 47.2582 31.6132 47.2935C31.5712 47.3287 31.5186 47.349 31.4637 47.3511H31.4262V47.3436ZM36.806 47.1564C36.795 47.0949 36.8083 47.0315 36.8433 46.9798C36.8783 46.928 36.9322 46.892 36.9934 46.8793C37.0559 46.8684 37.1203 46.8828 37.1723 46.9193C37.2242 46.9558 37.2596 47.0115 37.2706 47.074C37.2759 47.1041 37.275 47.135 37.268 47.1647C37.2609 47.1945 37.2479 47.2225 37.2296 47.247C37.2114 47.2715 37.1884 47.2921 37.1619 47.3074C37.1354 47.3227 37.1061 47.3325 37.0758 47.3361H37.0383C36.9914 47.3296 36.9475 47.3089 36.9127 47.2767C36.8779 47.2446 36.8537 47.2026 36.8435 47.1564H36.806ZM30.0626 47.0291C30.0043 47.0117 29.9552 46.9721 29.9257 46.9189C29.8963 46.8657 29.889 46.8031 29.9052 46.7445C29.9227 46.686 29.9619 46.6363 30.0149 46.6057C30.0678 46.575 30.1304 46.5658 30.19 46.5798C30.2203 46.5875 30.2488 46.6014 30.2737 46.6204C30.2986 46.6395 30.3194 46.6634 30.3348 46.6906C30.3502 46.7179 30.3599 46.748 30.3633 46.7792C30.3668 46.8103 30.3639 46.8418 30.3548 46.8718C30.3402 46.9199 30.3104 46.9619 30.2699 46.9916C30.2294 47.0213 30.1803 47.0371 30.13 47.0366H30.0626V47.0291ZM38.2072 46.8643C38.1909 46.8058 38.1983 46.7431 38.2277 46.6899C38.2571 46.6367 38.3062 46.5972 38.3645 46.5798C38.4251 46.5636 38.4896 46.5718 38.5443 46.6026C38.5989 46.6334 38.6393 46.6843 38.6567 46.7445C38.6733 46.8041 38.6661 46.8677 38.6368 46.9221C38.6075 46.9766 38.5582 47.0176 38.4994 47.0366H38.4319C38.3758 47.0438 38.3189 47.0303 38.2719 46.9986C38.225 46.9669 38.1913 46.9192 38.1772 46.8643H38.2072ZM28.7214 46.5573C28.6646 46.5325 28.6195 46.4867 28.5958 46.4295C28.572 46.3722 28.5714 46.308 28.594 46.2503C28.6062 46.2222 28.6239 46.1968 28.6459 46.1755C28.668 46.1543 28.6941 46.1376 28.7226 46.1265C28.7512 46.1153 28.7817 46.1099 28.8123 46.1106C28.843 46.1113 28.8732 46.1181 28.9012 46.1305C28.93 46.142 28.9562 46.1591 28.9782 46.1809C29.0003 46.2026 29.0178 46.2285 29.0296 46.2572C29.0415 46.2858 29.0475 46.3165 29.0474 46.3474C29.0472 46.3784 29.0408 46.409 29.0286 46.4375C29.0088 46.4782 28.9779 46.5124 28.9394 46.5363C28.901 46.5601 28.8566 46.5726 28.8113 46.5723C28.7708 46.5807 28.7286 46.5754 28.6914 46.5573H28.7214ZM39.5334 46.43C39.5212 46.4015 39.5148 46.3709 39.5146 46.34C39.5144 46.309 39.5204 46.2783 39.5323 46.2497C39.5442 46.2211 39.5617 46.1951 39.5837 46.1734C39.6058 46.1516 39.632 46.1345 39.6608 46.123C39.7165 46.1002 39.7789 46.1 39.8348 46.1224C39.8908 46.1447 39.9358 46.1879 39.9605 46.2428C39.974 46.2707 39.9816 46.301 39.9828 46.3319C39.984 46.3628 39.9789 46.3936 39.9676 46.4225C39.9563 46.4513 39.9392 46.4775 39.9174 46.4994C39.8955 46.5213 39.8694 46.5385 39.8406 46.5498H39.7507C39.7021 46.5587 39.6519 46.5519 39.6074 46.5304C39.5629 46.5088 39.5265 46.4737 39.5034 46.43H39.5334ZM27.4476 45.8684C27.3986 45.8323 27.3652 45.779 27.354 45.7192C27.3429 45.6594 27.3549 45.5977 27.3877 45.5464C27.405 45.5203 27.4274 45.498 27.4535 45.4808C27.4796 45.4636 27.509 45.4518 27.5397 45.4462C27.5705 45.4406 27.6022 45.4413 27.6327 45.4483C27.6632 45.4552 27.692 45.4682 27.7174 45.4865C27.765 45.5236 27.7973 45.5768 27.8084 45.6361C27.8194 45.6955 27.8084 45.7568 27.7773 45.8085C27.7557 45.8399 27.7266 45.8653 27.6925 45.8823C27.6584 45.8993 27.6206 45.9075 27.5825 45.9059C27.5248 45.9145 27.466 45.9011 27.4177 45.8684H27.4476ZM40.7847 45.801C40.75 45.7503 40.7369 45.688 40.7481 45.6276C40.7594 45.5673 40.794 45.5139 40.8446 45.479C40.8953 45.4444 40.9577 45.4313 41.0181 45.4425C41.0784 45.4537 41.1319 45.4884 41.1668 45.5389C41.1849 45.5637 41.1979 45.5919 41.2047 45.6218C41.2115 45.6517 41.2121 45.6827 41.2065 45.7129C41.2009 45.7431 41.1892 45.7718 41.172 45.7972C41.1549 45.8227 41.1327 45.8443 41.1068 45.8609C41.0702 45.889 41.0256 45.9048 40.9795 45.9059C40.9359 45.9114 40.8917 45.9045 40.8519 45.8859C40.8121 45.8674 40.7784 45.8379 40.7547 45.801H40.7847ZM26.3537 44.865C26.3341 44.8411 26.3198 44.8134 26.3117 44.7836C26.3037 44.7538 26.3021 44.7226 26.307 44.6921C26.312 44.6616 26.3234 44.6326 26.3405 44.6069C26.3576 44.5811 26.38 44.5594 26.4061 44.543C26.4304 44.5245 26.4583 44.5111 26.4879 44.5037C26.5175 44.4963 26.5484 44.495 26.5785 44.4999C26.6087 44.5048 26.6375 44.5158 26.6633 44.5322C26.689 44.5487 26.7112 44.5702 26.7283 44.5954C26.7645 44.6443 26.7801 44.7054 26.7717 44.7656C26.7632 44.8258 26.7316 44.8803 26.6834 44.9174C26.6413 44.9458 26.5918 44.9614 26.541 44.9623C26.5042 44.9627 26.4679 44.954 26.4352 44.937C26.4025 44.92 26.3745 44.8953 26.3537 44.865ZM41.8336 44.9099C41.7838 44.8726 41.7504 44.8173 41.7406 44.7558C41.7308 44.6943 41.7454 44.6314 41.7812 44.5804C41.7996 44.5555 41.8229 44.5345 41.8496 44.5187C41.8762 44.5029 41.9058 44.4926 41.9365 44.4885C41.9673 44.4843 41.9985 44.4863 42.0285 44.4944C42.0584 44.5024 42.0864 44.5164 42.1109 44.5355C42.1591 44.5726 42.1908 44.6271 42.1992 44.6873C42.2076 44.7475 42.192 44.8086 42.1558 44.8575C42.1353 44.8863 42.1084 44.9101 42.0772 44.927C42.046 44.9439 42.0114 44.9534 41.976 44.9548C41.9224 44.9576 41.8694 44.9417 41.8261 44.9099H41.8336Z" fill="#E7AF49"/>
<path d="M26.069 43.6588C26.0063 43.6564 25.9472 43.6295 25.9041 43.584C25.8815 43.5631 25.8637 43.5376 25.8521 43.5091C25.8404 43.4806 25.8351 43.4499 25.8367 43.4192C25.8357 43.3897 25.8413 43.3603 25.8529 43.3331C25.8646 43.3059 25.8821 43.2816 25.9041 43.2619C25.9257 43.2402 25.9514 43.223 25.9797 43.2112C26.008 43.1994 26.0383 43.1934 26.069 43.1934C26.0996 43.1934 26.13 43.1994 26.1583 43.2112C26.1865 43.223 26.2122 43.2402 26.2338 43.2619C26.2559 43.2816 26.2733 43.3059 26.285 43.3331C26.2966 43.3603 26.3022 43.3897 26.3012 43.4192C26.3028 43.4499 26.2975 43.4806 26.2859 43.5091C26.2742 43.5376 26.2564 43.5631 26.2338 43.584C26.1908 43.6295 26.1316 43.6564 26.069 43.6588Z" fill="#E7AF49"/>
<path d="M34.2435 50.2188C34.5994 50.2188 34.8879 49.7695 34.8879 49.2153C34.8879 48.6612 34.5994 48.2119 34.2435 48.2119C33.8876 48.2119 33.5991 48.6612 33.5991 49.2153C33.5991 49.7695 33.8876 50.2188 34.2435 50.2188Z" fill="#E7AF49"/>
<path d="M44.2613 22.3319C43.0354 18.4691 40.7199 15.0421 37.5928 12.4624C37.5928 12.4624 39.8406 11.8783 43.0475 14.4467C46.2544 17.0152 44.2613 22.3319 44.2613 22.3319Z" fill="#423535"/>
<path d="M37.9299 12.5596C37.9299 12.5596 26.069 13.9599 24.4431 26.8547C24.4431 26.8547 21.2886 16.3337 24.7203 13.7128C28.1519 11.0919 38.7841 10.373 38.7841 10.373L39.6383 12.8292L37.9299 12.5596Z" fill="#423535"/>
<path d="M38.402 12.2076L38.1472 11.8182C39.1512 11.1593 39.6458 9.88626 40.0429 8.77051L40.4775 8.93525C40.0354 10.1184 39.5334 11.4663 38.402 12.2076Z" fill="#2F2E2D"/>
<path d="M30.9917 17.27L30.8268 16.8357C33.4049 15.9046 35.7187 14.363 37.5703 12.3428L37.9149 12.6573C36.0141 14.7314 33.6385 16.3142 30.9917 17.27Z" fill="#3E3D3C"/>
<path d="M46.127 20.9393C45.4656 17.7989 43.8759 14.9293 41.5639 12.7022L41.8861 12.3652C44.267 14.6562 45.9038 17.6096 46.584 20.842L46.127 20.9393Z" fill="#2F2E2D"/>
<path d="M21.8581 21.7631L21.416 21.6208C22.1237 19.5141 23.2506 17.5723 24.7288 15.9122C26.2071 14.2521 28.0061 12.908 30.0177 11.9609L30.2125 12.3878C28.2609 13.3091 26.5153 14.6142 25.0799 16.225C23.6444 17.8359 22.5487 19.7194 21.8581 21.7631Z" fill="#2F2E2D"/>
<path d="M22.8171 38.1697L22.5999 37.7504C22.7888 37.6272 22.9485 37.4642 23.0676 37.2727C23.1867 37.0812 23.2623 36.866 23.2892 36.6421C23.5641 35.6219 23.5641 34.5472 23.2892 33.527L23.7388 33.4072C24.0311 34.5064 24.0311 35.6628 23.7388 36.762C23.6943 37.0487 23.5891 37.3226 23.4302 37.5654C23.2712 37.8082 23.0622 38.0142 22.8171 38.1697Z" fill="#2F2E2D"/>
<path d="M15.8639 57.3844L16.3284 57.347L16.9578 65H50.7724L51.4393 58.7922L51.9038 58.8447L51.2445 65H60.985C60.0784 58.0434 58.2501 47.5748 55.3655 46.2419C53.4773 45.3733 50.2629 44.6544 47.2059 44.1152L46.1194 52.8316C46.1194 52.8316 39.376 51.4462 33.8614 53.7751C28.3842 51.4462 21.5958 52.8316 21.5958 52.8316L20.5168 44.1602C17.8108 44.5613 15.1574 45.2594 12.6045 46.2419C9.71983 47.5748 7.8916 58.0434 6.98499 65H16.4558L15.8639 57.3844Z" fill="#B2C76B"/>
<path d="M29 73L14.5 45L18.5 44H22L37 63.5L44.5 43.5L54 45.5L44 73H29Z" fill="#A6C1FD"/>
<path d="M15.8489 57.3841L16.4708 64.9997H16.9428L16.3134 57.3467L15.8489 57.3841Z" fill="#97B337"/>
<path d="M51.4243 58.792L50.7574 64.9998H51.2295L51.8888 58.8444L51.4243 58.792Z" fill="#97B337"/>
</g>
<defs>
<clipPath id="clip0_156_27476">
<rect width="54" height="59" fill="white" transform="translate(7 6)"/>
</clipPath>
</defs>
</svg>
