<svg width="25" height="24" viewBox="0 0 25 24" fill="none" xmlns="http://www.w3.org/2000/svg">
<path d="M10.57 2.81984L3.64001 8.36983C2.86001 8.98983 2.36001 10.2999 2.53001 11.2799L3.86001 19.2398C4.10001 20.6598 5.46 21.8098 6.9 21.8098H18.1C19.53 21.8098 20.9 20.6498 21.14 19.2398L22.47 11.2799C22.63 10.2999 22.13 8.98983 21.36 8.36983L14.43 2.82985C13.36 1.96985 11.63 1.96984 10.57 2.81984Z" fill="#428F92"/>
<path d="M12.5 15.5C13.8807 15.5 15 14.3807 15 13C15 11.6193 13.8807 10.5 12.5 10.5C11.1193 10.5 10 11.6193 10 13C10 14.3807 11.1193 15.5 12.5 15.5Z" stroke="white" stroke-width="1.5" stroke-linecap="round" stroke-linejoin="round"/>
</svg>
