<svg width="433" height="292" viewBox="0 0 433 292" fill="none" xmlns="http://www.w3.org/2000/svg">
<path d="M168.58 48.0799L261.04 46.4399L282.87 46.0599C283.66 46.0799 284.47 46.4599 285.06 47.1399C285.35 47.4699 285.56 47.8499 285.69 48.2699C285.74 48.3699 285.72 48.4899 285.77 48.5899C285.8 48.6999 285.78 48.8199 285.82 48.9399L285.83 48.9799V49.1499L285.84 49.5099L285.85 50.2299L285.88 51.6699L286.7 97.8999L288.34 190.36L289.16 236.59L289.57 259.7L289.58 260.42V260.76L289.57 260.94C289.55 261.18 289.59 261.44 289.54 261.67C289.49 262.15 289.41 262.64 289.25 263.1C288.96 264.03 288.47 264.91 287.82 265.67C286.5 267.2 284.58 268.15 282.5 268.21L190.04 269.85L178.48 270.06L172.7 270.16L169.81 270.21L169.09 270.22C168.87 270.22 168.56 270.24 168.43 270.22C168.1 270.2 167.77 270.22 167.45 270.18C164.85 269.96 162.35 268.58 160.72 266.45C159.9 265.39 159.3 264.17 158.98 262.86C158.88 262.54 158.86 262.2 158.79 261.87C158.73 261.54 158.74 261.19 158.7 260.85C158.66 260 158.66 258.96 158.64 258.02L157.82 211.79L156.18 208.59H152.89L151.25 211.79L150.43 258.02C150.42 259.01 150.39 259.89 150.39 260.97C150.42 261.59 150.41 262.22 150.49 262.84C150.58 263.46 150.64 264.08 150.78 264.69C151.29 267.15 152.32 269.5 153.78 271.55C156.68 275.66 161.36 278.52 166.43 279.16C167.06 279.25 167.7 279.26 168.33 279.31C168.68 279.33 168.86 279.33 169.12 279.33L169.84 279.34L172.73 279.39L178.51 279.49L190.07 279.7L282.53 281.34C288.18 281.45 293.89 279.03 297.79 274.87C299.75 272.81 301.3 270.33 302.28 267.62C302.78 266.27 303.12 264.86 303.33 263.44C303.47 262.73 303.47 262.01 303.52 261.3L303.55 260.76L303.56 260.38L303.57 259.66L303.98 236.55L304.8 190.32L306.44 97.8599L307.26 51.6299L307.29 50.1899L307.3 49.4699L307.31 49.1099V48.9199L307.3 48.5999C307.27 47.7599 307.26 46.9099 307.16 46.0699C307.04 45.2299 306.95 44.3799 306.76 43.5499C306.05 40.2099 304.64 37.0099 302.64 34.2399C298.7 28.6799 292.32 24.8199 285.44 23.9799C284.59 23.8599 283.73 23.8299 282.87 23.7899L281.27 23.7499L278.38 23.6999L272.6 23.5999L261.04 23.3899L157.79 25.9199C154.38 25.9999 152.62 30.0399 154.89 32.5899L168.58 48.0799Z" fill="#B3B3B3"/>
<path d="M44.8401 162.42C101.55 170.02 187.09 177.66 198.61 246.6C188.91 175.7 113.96 142.01 45.7501 137.18C45.2901 148.69 44.9901 152.46 44.8401 162.42Z" fill="#09603F"/>
<path d="M44.84 195.91C101.55 203.51 183.32 190.18 198.61 246.6C183.93 185.96 109.44 175.5 41.22 170.67C44.84 181.42 44.99 185.95 44.84 195.91Z" fill="#09603F"/>
<path d="M387.88 63.4598C291.33 117.77 213.19 184.75 198.61 246.6C208.31 175.7 307.33 79.4498 367.67 47.7798C375.51 58.6298 380.34 56.2198 387.88 63.4598Z" fill="#09603F"/>
<path d="M422.58 88.6997C365.87 96.2997 213.9 190.17 198.61 246.59C213.29 185.95 351.34 68.2797 419.56 63.4497C415.94 74.2197 417.45 78.8397 422.58 88.6997Z" fill="#09603F"/>
<path d="M39.93 70.2699V67.9299C39.93 66.0799 39.6 64.7799 38.93 64.0299C38.26 63.2799 37.33 62.8999 36.11 62.8999H35.94C31.37 62.8999 27.71 62.5499 24.93 61.8599C22.16 61.1699 19.93 59.8399 18.26 57.8699C17.22 56.6599 16.45 55.1999 15.96 53.4899C15.47 51.7899 15.22 49.7799 15.22 47.4699C15.22 46.6599 15.26 45.8199 15.35 44.9599C15.44 44.0899 15.57 43.1399 15.74 42.0999L30.04 42.9699C29.98 43.4899 29.92 43.9699 29.87 44.3999C29.81 44.8299 29.78 45.2499 29.78 45.6599C29.78 46.6399 29.88 47.4699 30.08 48.1299C30.28 48.7999 30.67 49.3599 31.25 49.8199C31.89 50.3399 32.65 50.6699 33.55 50.8199C34.45 50.9699 35.76 51.0399 37.49 51.0399H37.66C40.55 51.0399 42.92 51.2699 44.77 51.7299C46.62 52.1899 48.32 53.0599 49.88 54.3299C51.38 55.5999 52.47 57.2599 53.13 59.3099C53.79 61.3599 54.21 64.0899 54.39 67.4999L39.93 70.2699ZM54.41 67.4899V79.4499H48.69C46.61 80.7799 44.76 82.1799 43.14 83.6499C41.52 85.1199 40.15 86.6699 39.02 88.2899C37.89 89.9099 37.04 91.5699 36.46 93.2699C35.88 94.9799 35.59 96.7499 35.59 98.5999C35.59 101.49 36.04 103.73 36.93 105.32C37.83 106.91 38.95 108.02 40.31 108.66C41.67 109.3 43.04 109.61 44.43 109.61C45.59 109.61 46.61 109.52 47.51 109.35C48.41 109.18 49.29 108.89 50.15 108.48L54.31 119.75C52.52 120.5 50.74 121.04 48.98 121.35C47.22 121.67 45.18 121.83 42.87 121.83C38.42 121.83 34.5 121.04 31.12 119.45C27.74 117.86 25.11 115.36 23.23 111.95C21.35 108.54 20.41 104.18 20.41 98.8599C20.41 95.3399 20.97 91.9799 22.1 88.7999C23.23 85.6199 24.79 82.6999 26.78 80.0499C28.77 77.3899 31.07 74.9899 33.67 72.8499C36.27 70.7099 39.07 68.9199 42.08 67.4799H54.41V67.4899Z" fill="#7E1324"/>
<path d="M111.54 67.4897V79.4497H104.17V121.41H88.9999V105.37L90.9099 109.27C89.1199 106.96 87.2399 104.99 85.2799 103.37C83.3099 101.75 81.3799 100.51 79.4699 99.6397C77.5599 98.7697 75.7099 98.3397 73.9199 98.3397C73.1099 98.3397 72.4499 98.5097 71.9299 98.8597C71.4099 99.2097 71.1499 99.7297 71.1499 100.42C71.1499 101.29 71.5699 102 72.4099 102.54C73.2499 103.09 74.4799 103.68 76.0899 104.32L69.7599 116.2C65.4799 114.58 62.0599 112.33 59.4899 109.44C56.9199 106.55 55.6299 103.34 55.6299 99.8197C55.6299 96.5297 56.3699 93.8398 57.8399 91.7598C59.3099 89.6798 61.2199 88.1597 63.5599 87.2097C65.8999 86.2597 68.3699 85.7797 70.9699 85.7797C73.3399 85.7797 75.6399 86.0998 77.8599 86.7298C80.0799 87.3698 82.2799 88.3197 84.4499 89.5897C86.6199 90.8597 88.7699 92.4497 90.9099 94.3597L89.2599 95.3997C89.1999 94.0697 89.1399 92.6097 89.0899 91.0197C89.0299 89.4397 88.9999 88.0698 88.9999 86.9098V79.4497H52.6799V67.4897H111.54Z" fill="#7E1324"/>
<path d="M180.54 67.4899V79.4499H173.17V121.41H158V87.6899L159.56 94.1899C157.54 91.5899 155.64 89.3099 153.88 87.3399C152.12 85.3799 150.41 83.7399 148.77 82.4399C147.12 81.1399 145.46 80.1599 143.79 79.4899C142.11 78.8299 140.35 78.4899 138.5 78.4899C136.71 78.4899 135.18 78.7099 133.91 79.1399C132.64 79.5699 131.35 80.2799 130.05 81.2599C128.75 82.2399 127.2 83.5399 125.41 85.1599L121.77 84.3799C123.04 83.2799 124.41 82.4899 125.89 81.9999C127.36 81.5099 128.71 81.2599 129.92 81.2599C132.98 81.2599 135.28 82.0599 136.81 83.6399C138.34 85.2299 139.11 87.0399 139.11 89.0599C139.11 89.8099 139.07 90.6099 138.98 91.4399C138.89 92.2799 138.71 93.0999 138.42 93.9099L133.83 92.2599C134.29 91.6299 134.97 90.8599 135.87 89.9599C136.77 89.0599 137.73 88.1499 138.77 87.2299C139.81 86.3099 140.73 85.4999 141.54 84.7999L151.68 76.5599L160.09 85.0599L133.65 108.03L124.11 98.8399L130.61 93.8999L128.7 96.8499L126.01 97.4599C127.34 96.4799 128.26 95.6099 128.78 94.8599C129.3 94.1099 129.56 93.3299 129.56 92.5199C129.56 91.6499 129.31 90.9999 128.82 90.5699C128.33 90.1399 127.56 89.9199 126.52 89.9199C125.65 89.9199 124.8 90.0799 123.96 90.3999C123.12 90.7199 122.21 91.1699 121.23 91.7399L111.69 82.8099C114.75 79.3999 117.63 76.5099 120.32 74.1399C123.01 71.7699 125.75 69.9699 128.56 68.7199C131.36 67.4799 134.44 66.8599 137.79 66.8599C140.56 66.8599 143.15 67.3099 145.55 68.1999C147.95 69.0999 150.3 70.4099 152.61 72.1399C154.92 73.8699 157.26 76.0699 159.63 78.7299L158.33 80.0299C158.27 79.0499 158.2 77.8199 158.11 76.3499C158.02 74.8799 157.98 73.5599 157.98 72.4099V61.4299H170.98L173.06 67.4999H180.54V67.4899Z" fill="#7E1324"/>
<path d="M152.37 144.47C149.94 144.47 147.56 144.09 145.22 143.34C142.88 142.59 140.94 141.4 139.41 139.79C137.88 138.17 137.11 136.03 137.11 133.37C137.11 129.9 138.45 127.21 141.14 125.31C143.83 123.4 147.83 122.45 153.15 122.45C156.79 122.45 160.4 122.91 163.99 123.84C167.57 124.76 171.25 126.35 175.22 128.22C217.09 147.98 196.84 230.24 198.62 239.41C198.62 239.41 199.58 175.39 180.2 144.9C177.85 141.21 173.91 139.38 170.88 137.36C167.85 135.34 164.94 133.82 162.17 132.81C159.4 131.8 156.8 131.29 154.37 131.29C152.98 131.29 152.02 131.52 151.47 131.98C150.92 132.44 150.65 133.02 150.65 133.71C150.65 134.4 150.88 134.94 151.34 135.31C151.8 135.69 152.44 135.87 153.25 135.87C154.29 135.87 155.13 135.64 155.76 135.18C156.4 134.72 156.87 134.1 157.19 133.32C157.51 132.54 157.72 131.63 157.84 130.59C157.96 129.55 158.01 128.42 158.01 127.21V119.58H173.18V122.79C173.18 125.04 172.93 127.41 172.44 129.9C171.95 132.38 171 134.74 169.58 136.97C168.16 139.19 166.08 141 163.34 142.39C160.59 143.78 156.93 144.47 152.37 144.47Z" fill="#7E1324"/>
<path d="M239.75 67.4899V79.4499H232.38V121.41H217.21V86.4799L217.82 90.4699C216.03 88.2699 214.29 86.3499 212.62 84.7099C210.94 83.0599 209.27 81.7599 207.59 80.8099C205.91 79.8599 204.15 79.3799 202.3 79.3799C201.43 79.3799 200.67 79.5199 200 79.8099C199.33 80.0999 198.83 80.4999 198.48 81.0199C198.13 81.5399 197.96 82.1799 197.96 82.9299C197.96 83.7399 198.18 84.5199 198.61 85.2699C199.04 86.0199 199.92 86.6599 201.25 87.1799C202.58 87.6999 204.57 88.0199 207.23 88.1299L205.42 102C199.99 101.37 195.58 100.21 192.2 98.5299C188.82 96.8599 186.36 94.6899 184.83 92.0299C183.3 89.3699 182.53 86.2199 182.53 82.5799C182.53 79.6899 183.25 77.0599 184.7 74.6899C186.14 72.3199 188.15 70.4299 190.72 69.0099C193.29 67.5899 196.25 66.8899 199.61 66.8899C202.79 66.8899 205.62 67.4699 208.11 68.6199C210.59 69.7799 212.82 71.1899 214.78 72.8699C216.74 74.5499 218.48 76.1599 219.98 77.7199L217.55 76.3299C217.43 74.8299 217.35 73.3299 217.29 71.8199C217.23 70.3199 217.2 68.9899 217.2 67.8299V61.4199H230.2L232.28 67.4899H239.75Z" fill="#7E1324"/>
<path d="M266.45 67.4897V79.4497H258.91L263.85 78.1497C262.75 79.3597 261.86 80.5198 261.16 81.6198C260.47 82.7198 259.96 83.7998 259.64 84.8698C259.32 85.9398 259.16 87.1397 259.16 88.4697C259.16 90.3197 259.38 92.2097 259.81 94.1497C260.24 96.0898 260.69 98.0897 261.15 100.17C261.61 102.25 261.84 104.48 261.84 106.84C261.84 109.21 261.55 111.38 260.97 113.34C260.39 115.3 259.34 117.08 257.81 118.67C256.28 120.26 254.07 121.7 251.18 123C248.29 124.3 244.53 125.47 239.91 126.51L236.62 114.72C239.51 114.08 241.66 113.38 243.08 112.6C244.5 111.82 245.43 110.88 245.9 109.78C246.36 108.68 246.59 107.38 246.59 105.88C246.59 103.74 246.37 101.78 245.94 99.9798C245.51 98.1898 245.06 96.3498 244.6 94.4798C244.14 92.5998 243.91 90.5397 243.91 88.2797C243.91 86.9497 244.1 85.6797 244.47 84.4697C244.85 83.2597 245.38 82.0997 246.07 80.9997C246.76 79.8997 247.57 78.8297 248.5 77.7897L248.85 79.4398H238.01V67.4897H266.45Z" fill="#7E1324"/>
</svg>
