<svg width="24" height="24" viewBox="0 0 24 24" fill="none" xmlns="http://www.w3.org/2000/svg">
<path d="M2 22.9475H1.25V23.6975H2V22.9475ZM9.77367 13.544L10.4114 13.1492L9.74574 12.074L9.12144 13.1737L9.77367 13.544ZM21.5825 22.9475V23.6975H22.3325V22.9475H21.5825ZM16.3021 5.75162L16.5403 6.46278L17.9627 5.98632L17.7244 5.27516L16.3021 5.75162ZM18.3781 3.62384L18.7814 4.25615L18.3781 3.62384ZM19.5946 2L20.3444 2.01794C20.3541 1.61012 20.0362 1.26929 19.6287 1.25077C19.2211 1.23226 18.8736 1.54284 18.8463 1.94986L19.5946 2ZM21.2654 5.25177L21.0037 5.95466L22.4095 6.4779L22.6711 5.77501L21.2654 5.25177ZM9.56598 7.61344L10.2093 7.99889C10.3839 7.70758 10.3409 7.33535 10.1046 7.09149C9.86823 6.84763 9.49754 6.79299 9.2009 6.95829L9.56598 7.61344ZM9.77367 9.88681L10.3111 9.36363L9.77367 9.88681ZM12.3253 10.3001L12.9281 10.7465C13.1277 10.4768 13.124 10.1074 12.919 9.8418C12.7139 9.57622 12.3574 9.47915 12.046 9.60409L12.3253 10.3001ZM9.06158 10.4182L9.67086 9.98089L9.06158 10.4182ZM6.06486 22.1975H2V23.6975H6.06486V22.1975ZM2.75 22.9475C2.75 21.7717 3.05618 20.9118 3.52789 20.2116C4.01086 19.4947 4.69137 18.9089 5.50294 18.3221C6.26321 17.7723 7.26338 17.1423 8.09459 16.4927C8.96761 15.8104 9.81023 14.9988 10.4259 13.9143L9.12144 13.1737C8.63931 14.023 7.96131 14.6931 7.17093 15.3108C6.33873 15.9612 5.53272 16.4495 4.62402 17.1065C3.76662 17.7265 2.9154 18.4361 2.28387 19.3735C1.64108 20.3276 1.25 21.4808 1.25 22.9475H2.75ZM9.13597 13.9388C9.7621 14.9502 10.5924 15.8024 11.45 16.5626C12.2849 17.3029 13.2414 18.0343 14.0205 18.6876C15.6745 20.0745 16.7677 21.302 16.7677 22.9475H18.2677C18.2677 20.5481 16.6311 18.9191 14.9843 17.5382C14.113 16.8076 13.2762 16.1771 12.445 15.4402C11.6364 14.7234 10.9276 13.9831 10.4114 13.1492L9.13597 13.9388ZM16.7677 22.9475C16.7677 22.7002 16.8858 22.5253 16.9745 22.433C17.0569 22.3474 17.1395 22.3032 17.1764 22.285C17.2519 22.2479 17.3124 22.2356 17.3181 22.2343C17.3427 22.2289 17.3452 22.2306 17.3042 22.234C17.2324 22.2399 17.1114 22.2447 16.9393 22.2474C16.6007 22.2528 16.1246 22.2492 15.5845 22.2419C14.5165 22.2273 13.202 22.1975 12.3253 22.1975V23.6975C13.1893 23.6975 14.471 23.7268 15.564 23.7417C16.1044 23.7491 16.6 23.753 16.963 23.7472C17.1417 23.7444 17.3039 23.7391 17.4277 23.7289C17.4845 23.7242 17.5628 23.7162 17.6388 23.6996C17.6703 23.6927 17.7504 23.6744 17.839 23.6307C17.8825 23.6093 17.9701 23.5618 18.0558 23.4727C18.1478 23.3769 18.2677 23.1984 18.2677 22.9475H16.7677ZM17.5177 23.6975H21.5825V22.1975H17.5177V23.6975ZM22.3325 22.9475V11.8212H20.8325V22.9475H22.3325ZM18.2677 22.9475V7.81246H16.7677V22.9475H18.2677ZM18.2677 7.81246C18.2677 7.60213 18.3601 7.43384 18.563 7.29333C18.7833 7.14081 19.1183 7.04096 19.489 7.04916C19.8572 7.0573 20.1929 7.17041 20.4273 7.35896C20.6443 7.53342 20.8135 7.80087 20.8333 8.23089L22.3317 8.16166C22.2923 7.30737 21.9237 6.63742 21.3673 6.19004C20.8285 5.75673 20.1554 5.56352 19.5222 5.54952C18.8915 5.53558 18.2325 5.69776 17.7092 6.06006C17.1685 6.43438 16.7677 7.03373 16.7677 7.81246H18.2677ZM17.7244 5.27516C17.7507 5.35365 17.6879 5.31009 17.8314 5.09349C17.9699 4.88438 18.2574 4.59041 18.7814 4.25615L17.9748 2.99152C17.3417 3.39537 16.8726 3.82474 16.5809 4.26517C16.2941 4.6981 16.1275 5.23026 16.3021 5.75162L17.7244 5.27516ZM18.7814 4.25615C19.1599 4.01477 19.5242 3.64019 19.7925 3.28347C19.9297 3.1009 20.0561 2.90428 20.1522 2.7089C20.2402 2.5301 20.338 2.28291 20.3444 2.01794L18.8448 1.98206C18.8462 1.92376 18.8597 1.93816 18.8063 2.04666C18.7611 2.1386 18.689 2.25501 18.5936 2.382C18.3962 2.64442 18.1573 2.87509 17.9748 2.99152L18.7814 4.25615ZM18.8463 1.94986C18.8027 2.60022 19.2523 3.59902 20.4824 4.42389L21.3178 3.17807C20.3641 2.53853 20.3469 1.99027 20.3429 2.05014L18.8463 1.94986ZM20.4824 4.42389C21.4325 5.061 21.1909 5.45177 21.2654 5.25177L22.6711 5.77501C22.9434 5.04357 22.5515 4.00536 21.3178 3.17807L20.4824 4.42389ZM8.9226 7.22799C8.5251 7.89148 8.16573 9.31034 9.23628 10.41L10.3111 9.36363C9.90996 8.95163 9.99366 8.3589 10.2093 7.99889L8.9226 7.22799ZM9.23628 10.41C10.4265 11.6326 11.9046 11.2771 12.6046 10.9962L12.046 9.60409C11.5196 9.8153 10.8454 9.91248 10.3111 9.36363L9.23628 10.41ZM11.7226 9.85382C11.475 10.1882 11.0649 10.3652 10.6216 10.3661C10.1598 10.3671 9.81393 10.1802 9.67086 9.98089L8.4523 10.8556C8.9528 11.5529 9.82345 11.8678 10.6249 11.8661C11.4449 11.8644 12.3449 11.534 12.9281 10.7465L11.7226 9.85382ZM9.67086 9.98089C9.44661 9.6685 9.40339 9.30234 9.48636 8.95997C9.57481 8.59496 9.78188 8.35171 9.93105 8.26859L9.2009 6.95829C8.60831 7.2885 8.1923 7.93099 8.02855 8.6067C7.85932 9.30507 7.93478 10.1346 8.4523 10.8556L9.67086 9.98089Z" fill="#222222"/>
</svg>
