<svg width="20" height="20" viewBox="0 0 20 20" fill="none" xmlns="http://www.w3.org/2000/svg">
<path d="M9.18334 16.25H6.25C5.73334 16.25 5.275 16.2333 4.86667 16.175C2.675 15.9333 2.08334 14.9 2.08334 12.0833V7.91667C2.08334 5.1 2.675 4.06667 4.86667 3.825C5.275 3.76667 5.73334 3.75 6.25 3.75H9.13334" stroke="#555555" stroke-width="1.5" stroke-linecap="round" stroke-linejoin="round"/>
<path d="M12.5167 3.75H13.75C14.2667 3.75 14.725 3.76667 15.1333 3.825C17.325 4.06667 17.9167 5.1 17.9167 7.91667V12.0833C17.9167 14.9 17.325 15.9333 15.1333 16.175C14.725 16.2333 14.2667 16.25 13.75 16.25H12.5167" stroke="#555555" stroke-width="1.5" stroke-linecap="round" stroke-linejoin="round"/>
<path d="M12.5 1.66699V18.3337" stroke="#555555" stroke-width="1.5" stroke-linecap="round" stroke-linejoin="round"/>
<path d="M6.66666 7.08301V12.9163" stroke="#555555" stroke-width="1.5" stroke-linecap="round" stroke-linejoin="round"/>
</svg>
