<svg width="20" height="20" viewBox="0 0 20 20" fill="none" xmlns="http://www.w3.org/2000/svg">
<path d="M17.5667 7.15035V12.8503C17.5667 13.7837 17.0667 14.6504 16.2583 15.1254L11.3083 17.9837C10.5 18.4504 9.5 18.4504 8.68334 17.9837L3.73334 15.1254C2.925 14.6587 2.425 13.792 2.425 12.8503V7.15035C2.425 6.21702 2.925 5.35032 3.73334 4.87532L8.68334 2.01699C9.49167 1.55033 10.4917 1.55033 11.3083 2.01699L16.2583 4.87532C17.0667 5.35032 17.5667 6.20869 17.5667 7.15035Z" stroke="#555555" stroke-width="1.5" stroke-linecap="round" stroke-linejoin="round"/>
<path d="M10 9.16651C11.0724 9.16651 11.9417 8.29719 11.9417 7.22483C11.9417 6.15248 11.0724 5.2832 10 5.2832C8.92765 5.2832 8.05833 6.15248 8.05833 7.22483C8.05833 8.29719 8.92765 9.16651 10 9.16651Z" stroke="#555555" stroke-width="1.5" stroke-linecap="round" stroke-linejoin="round"/>
<path d="M13.3333 13.8836C13.3333 12.3836 11.8417 11.167 10 11.167C8.15833 11.167 6.66666 12.3836 6.66666 13.8836" stroke="#555555" stroke-width="1.5" stroke-linecap="round" stroke-linejoin="round"/>
</svg>
