<svg width="20" height="20" viewBox="0 0 20 20" fill="none" xmlns="http://www.w3.org/2000/svg">
<path d="M5.58334 15.0003H3.45835C2.26668 15.0003 1.66666 14.4003 1.66666 13.2086V3.45868C1.66666 2.26701 2.26668 1.66699 3.45835 1.66699H7.04167C8.23334 1.66699 8.83331 2.26701 8.83331 3.45868V5.00033" stroke="#555555" stroke-width="1.5" stroke-miterlimit="10" stroke-linecap="round" stroke-linejoin="round"/>
<path d="M14.475 7.01665V16.3167C14.475 17.6583 13.8084 18.3333 12.4667 18.3333H7.6C6.25833 18.3333 5.58334 17.6583 5.58334 16.3167V7.01665C5.58334 5.67499 6.25833 5 7.6 5H12.4667C13.8084 5 14.475 5.67499 14.475 7.01665Z" stroke="#555555" stroke-width="1.5" stroke-miterlimit="10" stroke-linecap="round" stroke-linejoin="round"/>
<path d="M11.1667 5.00033V3.45868C11.1667 2.26701 11.7667 1.66699 12.9583 1.66699H16.5416C17.7333 1.66699 18.3333 2.26701 18.3333 3.45868V13.2086C18.3333 14.4003 17.7333 15.0003 16.5416 15.0003H14.475" stroke="#555555" stroke-width="1.5" stroke-miterlimit="10" stroke-linecap="round" stroke-linejoin="round"/>
<path d="M8.33334 9.16699H11.6667" stroke="#555555" stroke-width="1.5" stroke-miterlimit="10" stroke-linecap="round" stroke-linejoin="round"/>
<path d="M8.33334 11.667H11.6667" stroke="#555555" stroke-width="1.5" stroke-miterlimit="10" stroke-linecap="round" stroke-linejoin="round"/>
<path d="M10 18.333V15.833" stroke="#555555" stroke-width="1.5" stroke-miterlimit="10" stroke-linecap="round" stroke-linejoin="round"/>
</svg>
