<svg width="20" height="20" viewBox="0 0 20 20" fill="none" xmlns="http://www.w3.org/2000/svg">
<path d="M18.3333 5.41699H13.3333" stroke="#555555" stroke-width="1.5" stroke-miterlimit="10" stroke-linecap="round" stroke-linejoin="round"/>
<path d="M5 5.41699H1.66666" stroke="#555555" stroke-width="1.5" stroke-miterlimit="10" stroke-linecap="round" stroke-linejoin="round"/>
<path d="M8.33333 8.33333C9.94416 8.33333 11.25 7.0275 11.25 5.41667C11.25 3.80584 9.94416 2.5 8.33333 2.5C6.7225 2.5 5.41666 3.80584 5.41666 5.41667C5.41666 7.0275 6.7225 8.33333 8.33333 8.33333Z" stroke="#555555" stroke-width="1.5" stroke-miterlimit="10" stroke-linecap="round" stroke-linejoin="round"/>
<path d="M18.3333 14.583H15" stroke="#555555" stroke-width="1.5" stroke-miterlimit="10" stroke-linecap="round" stroke-linejoin="round"/>
<path d="M6.66666 14.583H1.66666" stroke="#555555" stroke-width="1.5" stroke-miterlimit="10" stroke-linecap="round" stroke-linejoin="round"/>
<path d="M11.6667 17.5003C13.2775 17.5003 14.5833 16.1945 14.5833 14.5837C14.5833 12.9728 13.2775 11.667 11.6667 11.667C10.0558 11.667 8.75 12.9728 8.75 14.5837C8.75 16.1945 10.0558 17.5003 11.6667 17.5003Z" stroke="#555555" stroke-width="1.5" stroke-miterlimit="10" stroke-linecap="round" stroke-linejoin="round"/>
</svg>
