<svg width="25" height="24" viewBox="0 0 25 24" fill="none" xmlns="http://www.w3.org/2000/svg">
<path d="M3.5 9.11035V14.8804C3.5 17.0004 3.5 17.0004 5.5 18.3504L11 21.5304C11.83 22.0104 13.18 22.0104 14 21.5304L19.5 18.3504C21.5 17.0004 21.5 17.0004 21.5 14.8904V9.11035C21.5 7.00035 21.5 7.00035 19.5 5.65035L14 2.47035C13.18 1.99035 11.83 1.99035 11 2.47035L5.5 5.65035C3.5 7.00035 3.5 7.00035 3.5 9.11035Z" fill="#428F92"/>
<path d="M12.5 15C14.1569 15 15.5 13.6569 15.5 12C15.5 10.3431 14.1569 9 12.5 9C10.8431 9 9.5 10.3431 9.5 12C9.5 13.6569 10.8431 15 12.5 15Z" stroke="white" stroke-width="1.5" stroke-linecap="round" stroke-linejoin="round"/>
</svg>
