<svg width="24" height="24" viewBox="0 0 24 24" fill="none" xmlns="http://www.w3.org/2000/svg">
<path d="M12.4303 14.9975H3.40034C1.58034 14.9975 0.420335 13.0475 1.30034 11.4475L3.63034 7.2075L5.81034 3.2375C6.72034 1.5875 9.10033 1.5875 10.0103 3.2375L12.2003 7.2075L13.2503 9.11751L14.5303 11.4475C15.4103 13.0475 14.2503 14.9975 12.4303 14.9975Z" stroke="#222222" stroke-width="1.5" stroke-linecap="round" stroke-linejoin="round"/>
<path d="M21.0002 15.4976C21.0002 19.0876 18.0902 21.9976 14.5002 21.9976C10.9102 21.9976 8.00024 19.0876 8.00024 15.4976C8.00024 15.3276 8.01024 15.1676 8.02024 14.9976H12.4302C14.2502 14.9976 15.4102 13.0476 14.5302 11.4476L13.2502 9.11755C13.6502 9.03755 14.0702 8.99756 14.5002 8.99756C18.0902 8.99756 21.0002 11.9076 21.0002 15.4976Z" stroke="#222222" stroke-width="1.5" stroke-linecap="round" stroke-linejoin="round"/>
<path d="M9.5 2.27709C10.1259 2.08865 10.8737 2 11.7544 2H15.9544C19.4544 2 20.8544 3.4 20.8544 6.9V11.1C20.8544 11.8202 20.7951 12.4515 20.6704 13" stroke="#222222" stroke-width="1.5" stroke-linecap="round" stroke-linejoin="round"/>
</svg>
