<svg width="103" height="103" viewBox="0 0 103 103" fill="none" xmlns="http://www.w3.org/2000/svg">
<g clip-path="url(#clip0_156_27385)">
<g clip-path="url(#clip1_156_27385)">
<path d="M44.4188 8.59454C28.5986 11.8133 27.9227 23.0789 27.9227 23.0789C21.3565 29.9509 28.6791 43.0674 28.6791 43.0674H73.7416C83.591 16.4161 60.2711 5.3436 44.4188 8.59454Z" fill="#545454"/>
<path d="M60.8344 62.251H41.6185L40.6528 78.1838H61.8L60.8344 62.251Z" fill="#FFC6AE"/>
<path d="M41.6184 62.251L40.9425 73.1786C40.9425 73.1786 59.8204 71.7302 60.8344 62.251H41.6184Z" fill="#FFA893"/>
<path d="M60.3194 20.0049C72.4058 20.0049 70.378 39.5427 70.4745 43.4052C70.5872 48.4265 68.2858 59.1288 61.9449 64.0857C58.9943 66.8958 55.0758 68.4632 51.0011 68.4632C46.9265 68.4632 43.0079 66.8958 40.0573 64.0857C33.7164 59.1288 31.3989 48.4265 31.5277 43.4052C31.6242 39.5427 29.5964 20.0049 41.6828 20.0049H60.3194Z" fill="#FFC6AE"/>
<path d="M50.985 58.7903C48.8036 58.7579 46.7068 57.9409 45.0786 56.4889C44.9655 56.3758 44.902 56.2223 44.902 56.0624C44.902 55.9024 44.9655 55.749 45.0786 55.6359C45.1917 55.5228 45.3451 55.4592 45.5051 55.4592C45.6651 55.4592 45.8184 55.5228 45.9316 55.6359C46.1247 55.8129 50.6471 60.0939 56.4891 55.3784C56.6163 55.3003 56.7677 55.2715 56.9147 55.2973C57.0617 55.3231 57.1942 55.4019 57.2873 55.5186C57.3803 55.6354 57.4274 55.7821 57.4197 55.9312C57.412 56.0803 57.35 56.2214 57.2455 56.3279C55.5124 57.858 53.2962 58.7297 50.985 58.7903Z" fill="#FF7463"/>
<path d="M43.5818 42.1015C43.5818 43.2602 42.9542 44.1937 42.1817 44.1937C41.4092 44.1937 40.7654 43.2602 40.7654 42.1015C40.7654 40.9427 41.4092 40.0254 42.1817 40.0254C42.9542 40.0254 43.5818 40.9588 43.5818 42.1015Z" fill="#472C19"/>
<path d="M61.2206 42.1015C61.2206 43.2602 60.5929 44.1937 59.8204 44.1937C59.0479 44.1937 58.4042 43.2602 58.4042 42.1015C58.4042 40.9427 59.0479 40.0254 59.8204 40.0254C60.5929 40.0254 61.2206 40.9588 61.2206 42.1015Z" fill="#472C19"/>
<path d="M45.0947 37.0798H44.9177C43.136 36.5616 41.2435 36.5616 39.4619 37.0798C39.3103 37.1315 39.1444 37.1217 39 37.0525C38.8555 36.9833 38.744 36.8602 38.6893 36.7096C38.6615 36.6347 38.649 36.5549 38.6527 36.475C38.6563 36.3952 38.676 36.3169 38.7105 36.2448C38.7451 36.1727 38.7938 36.1083 38.8537 36.0554C38.9137 36.0026 38.9837 35.9623 39.0595 35.9371C41.0857 35.3296 43.2456 35.3296 45.2717 35.9371C45.4078 35.9828 45.5234 36.075 45.5983 36.1974C45.6732 36.3198 45.7027 36.4647 45.6816 36.6067C45.6605 36.7486 45.5902 36.8787 45.4829 36.974C45.3756 37.0693 45.2381 37.1238 45.0947 37.1281V37.0798Z" fill="#B46A54"/>
<path d="M56.9075 37.0797C56.7812 37.0807 56.6577 37.0425 56.554 36.9705C56.4502 36.8984 56.3713 36.7961 56.3281 36.6774C56.3003 36.6024 56.2878 36.5227 56.2914 36.4428C56.295 36.3629 56.3147 36.2846 56.3492 36.2126C56.3838 36.1405 56.4325 36.0761 56.4925 36.0232C56.5524 35.9704 56.6224 35.9301 56.6982 35.9049C58.7244 35.2973 60.8843 35.2973 62.9105 35.9049C63.0616 35.9536 63.1878 36.0593 63.2624 36.1994C63.337 36.3396 63.3541 36.5033 63.3103 36.6559C63.2664 36.8085 63.1648 36.9381 63.0272 37.0171C62.8895 37.0962 62.7264 37.1187 62.5725 37.0797C60.7867 36.5521 58.8864 36.5521 57.1006 37.0797H56.9075Z" fill="#B46A54"/>
<path d="M67.9478 55.5236C72.0517 52.8199 77.0891 48.0722 75.6406 42.6486C75.4546 42.0764 75.1483 41.5505 74.7422 41.1065C74.3362 40.6624 73.8397 40.3104 73.2863 40.0741C72.7329 39.8378 72.1354 39.7227 71.5338 39.7365C70.9322 39.7503 70.3406 39.8927 69.7986 40.1541L67.9478 55.5236Z" fill="#FFC6AE"/>
<path d="M34.0383 55.5236C29.9505 52.8199 24.9131 48.0722 26.3616 42.6486C26.5476 42.0764 26.8539 41.5505 27.2599 41.1065C27.666 40.6624 28.1624 40.3104 28.7158 40.0741C29.2692 39.8378 29.8668 39.7227 30.4684 39.7365C31.0699 39.7503 31.6616 39.8927 32.2036 40.1541L34.0383 55.5236Z" fill="#FFC6AE"/>
<path d="M51.4195 52.0634C51.3454 52.0801 51.2684 52.0801 51.1943 52.0634C49.97 51.5488 48.9708 50.6123 48.3779 49.424C48.3422 49.3534 48.321 49.2763 48.3155 49.1974C48.31 49.1184 48.3203 49.0392 48.3458 48.9643C48.3713 48.8894 48.4114 48.8203 48.4639 48.761C48.5164 48.7018 48.5801 48.6536 48.6514 48.6193C48.7233 48.5834 48.8015 48.5619 48.8817 48.5562C48.9618 48.5505 49.0423 48.5607 49.1185 48.5861C49.1948 48.6115 49.2652 48.6517 49.3259 48.7043C49.3866 48.757 49.4363 48.8211 49.4722 48.893C49.9324 49.819 50.7088 50.5497 51.661 50.953C51.7345 50.9829 51.8013 51.0271 51.8574 51.0832C51.9135 51.1393 51.9579 51.2061 51.9879 51.2795C52.0179 51.353 52.0329 51.4317 52.032 51.511C52.0311 51.5904 52.0144 51.6687 51.9828 51.7415C51.9286 51.8426 51.847 51.9264 51.7474 51.9833C51.6478 52.0402 51.5342 52.068 51.4195 52.0634Z" fill="#FFA893"/>
<path d="M28.7274 37.9493L32.7669 44.918C32.7669 44.918 30.9 34.9237 33.0244 26.8125L30.0631 31.367L28.7274 37.9493Z" fill="#514A48"/>
<path d="M73.2266 37.5632L69.187 44.5479C69.187 44.5479 70.9573 34.5536 68.8329 26.4424L71.8747 30.9808L73.2266 37.5632Z" fill="#4B4A4A"/>
<path d="M97.7373 93.8428C92.2172 86.3592 76.0912 81.7081 68.1248 79.616L61.8 78.1836H40.6528L34.3279 79.616C26.3615 81.7081 10.1873 86.3592 4.71546 93.8428C2.5428 96.7719 1.06219 107.249 0 120.896H102.485C101.391 107.249 99.8939 96.7719 97.7373 93.8428Z" fill="#EBEAE8"/>
<path d="M51.6127 86.6325C59.3377 86.6325 65.9361 83.961 68.8812 79.8249C67.465 79.5191 66.1614 79.1329 65.0831 78.9236C62.4277 81.4504 57.4225 83.0597 51.6127 83.0597C45.8028 83.0597 40.6206 81.3216 37.9813 78.7627L34.3279 79.6157C37.2731 83.7518 43.9038 86.6325 51.6127 86.6325Z" fill="#65A5E2"/>
<path d="M40.6528 78.1836C40.6528 78.1836 39.655 78.3767 37.9813 78.763C40.6206 81.3219 45.7384 83.06 51.6127 83.06C57.4869 83.06 62.4277 81.4507 65.0831 78.9239C63.007 78.5055 61.8644 78.1836 61.8644 78.1836H40.6528Z" fill="#FFC6AE"/>
<path d="M28.7274 29.0974C28.7274 29.0974 33.0244 36.2591 46.4305 31.9782C46.4305 31.9782 36.1948 29.0974 42.2139 18.7491C42.1817 18.7491 34.2958 15.8201 28.7274 29.0974Z" fill="#595959"/>
<path d="M55.2982 17.1396C54.6544 19.0387 62.0415 35.1968 71.923 38.0615L71.0378 23.0621L65.1475 16.3027L55.2982 17.1396Z" fill="#595959"/>
<path d="M36.1627 19.5699C36.1627 19.5699 53.8657 20.4873 58.4042 33.3462C58.4042 33.3462 61.462 23.9635 56.8753 17.011C52.2886 10.0585 36.1627 19.5699 36.1627 19.5699Z" fill="#595959"/>
<path d="M53.4473 33.2332C50.6792 25.0415 43.0668 20.3582 40.4597 20.5031V19.6984C43.6784 19.5535 51.4356 24.5265 54.2681 32.9757L53.4473 33.2332Z" fill="#606060"/>
<path d="M73.2748 35.5997C69.0338 32.6722 65.4582 28.8827 62.7817 24.479L63.4737 24.0605C66.0956 28.3617 69.5875 32.0674 73.7255 34.9399L73.2748 35.5997Z" fill="#6A6969"/>
<path d="M41.2 19.8438C39.1467 18.8001 37.5445 17.0435 36.6937 14.903L37.4501 14.6133C38.2269 16.5682 39.6924 18.1712 41.5701 19.1196L41.2 19.8438Z" fill="#6A6969"/>
<path d="M52.0472 22.1772L51.6931 21.4529C54.9185 19.8517 57.821 17.6693 60.255 15.0154C60.8762 14.431 61.3315 13.6925 61.5747 12.875L62.3633 13.052C62.0945 14.0099 61.5718 14.8774 60.8505 15.5627C58.3439 18.2858 55.3603 20.5275 52.0472 22.1772Z" fill="#6A6969"/>
<path d="M30.6908 31.1575C29.5129 30.0886 28.6173 28.7452 28.0836 27.2468L28.84 26.9893C29.3226 28.3601 30.1482 29.5845 31.238 30.546L30.6908 31.1575Z" fill="#6A6969"/>
</g>
</g>
<defs>
<clipPath id="clip0_156_27385">
<rect width="103" height="103" fill="white"/>
</clipPath>
<clipPath id="clip1_156_27385">
<rect width="102.453" height="112.849" fill="white" transform="translate(0 8.04688)"/>
</clipPath>
</defs>
</svg>
