<svg width="20" height="20" viewBox="0 0 20 20" fill="none" xmlns="http://www.w3.org/2000/svg">
<path d="M14.4833 8.65047V11.3421C14.4833 13.5838 13.5833 14.4838 11.3417 14.4838H8.65C6.40833 14.4838 5.50833 13.5838 5.50833 11.3421V8.65047C5.50833 6.40881 6.40833 5.50879 8.65 5.50879H11.3417C13.5917 5.51712 14.4833 6.40881 14.4833 8.65047Z" stroke="#555555" stroke-width="1.5" stroke-linecap="round" stroke-linejoin="round"/>
<path d="M18.3333 4.80865V7.50033C18.3333 9.74199 17.4333 10.642 15.1917 10.642H14.4833V8.65867C14.4833 6.417 13.5833 5.51699 11.3417 5.51699H9.35833V4.80865C9.35833 2.56698 10.2583 1.66699 12.5 1.66699H15.1917C17.4333 1.66699 18.3333 2.56698 18.3333 4.80865Z" stroke="#555555" stroke-width="1.5" stroke-linecap="round" stroke-linejoin="round"/>
<path d="M1.66666 15.1917V12.5001C1.66666 10.2584 2.56666 9.3584 4.80833 9.3584H5.51666V11.3417C5.51666 13.5834 6.41666 14.4834 8.65833 14.4834H10.6417V15.1917C10.6417 17.4334 9.74166 18.3334 7.5 18.3334H4.80833C2.56666 18.3334 1.66666 17.4334 1.66666 15.1917Z" stroke="#555555" stroke-width="1.5" stroke-linecap="round" stroke-linejoin="round"/>
</svg>
