<svg width="24" height="24" viewBox="0 0 24 24" fill="none" xmlns="http://www.w3.org/2000/svg">
<path d="M12.0001 9.32C13.1901 9.32 14.1601 8.35 14.1601 7.16C14.1601 5.97 13.1901 5 12.0001 5C10.8101 5 9.84009 5.97 9.84009 7.16C9.84009 8.35 10.8101 9.32 12.0001 9.32Z" stroke="#222222" stroke-width="1.5" stroke-linecap="round" stroke-linejoin="round"/>
<path d="M6.78988 19.0001C7.97988 19.0001 8.94988 18.0301 8.94988 16.8401C8.94988 15.6501 7.97988 14.6801 6.78988 14.6801C5.59988 14.6801 4.62988 15.6501 4.62988 16.8401C4.62988 18.0301 5.58988 19.0001 6.78988 19.0001Z" stroke="#222222" stroke-width="1.5" stroke-linecap="round" stroke-linejoin="round"/>
<path d="M17.21 19.0001C18.4 19.0001 19.37 18.0301 19.37 16.8401C19.37 15.6501 18.4 14.6801 17.21 14.6801C16.02 14.6801 15.05 15.6501 15.05 16.8401C15.05 18.0301 16.02 19.0001 17.21 19.0001Z" stroke="#222222" stroke-width="1.5" stroke-linecap="round" stroke-linejoin="round"/>
</svg>
