<svg width="67" height="72" viewBox="0 0 67 72" fill="none" xmlns="http://www.w3.org/2000/svg">
<g filter="url(#filter0_dd_87_18012)">
<mask id="mask0_87_18012" style="mask-type:alpha" maskUnits="userSpaceOnUse" x="0" y="0" width="67" height="67">
<circle cx="33.5" cy="33.5" r="33.5" fill="#2C98F0"/>
</mask>
<g mask="url(#mask0_87_18012)">
</g>
<g clip-path="url(#clip0_87_18012)">
<path d="M40.2759 53.0449H25.5942V57.9548H40.2759V53.0449Z" fill="#717EBA"/>
<path d="M38.8359 47.2852H26.9099C26.9099 47.2852 27.211 54.1209 25.7513 56.1062H40.1516C38.6854 54.1209 38.8359 47.2852 38.8359 47.2852Z" fill="#F4B88E"/>
<g style="mix-blend-mode:multiply">
<path d="M26.7593 52.4506C28.671 53.443 30.8346 53.9654 33.0366 53.9663C35.1387 53.9462 37.2127 53.525 39.1239 52.7299C38.9038 50.9222 38.8076 49.1038 38.8359 47.2852H26.9099C26.9723 49.0082 26.9221 50.733 26.7593 52.4506Z" fill="#F5DCD6"/>
</g>
<path d="M55.9984 60.8498L38.6854 55.2148H27.1979L9.88485 60.8498C9.88485 60.8498 3.82364 62.6331 4.53056 71.4422H61.3396C62.1709 62.1159 55.9984 60.8498 55.9984 60.8498Z" fill="#F4B88E"/>
<path d="M55.9984 60.8495L41.8403 56.2666L32.9449 61.9017L24.2589 56.1953L9.85865 60.8733C9.85865 60.8733 3.79746 62.6566 4.50438 71.4657H61.3134C62.1709 62.1156 55.9984 60.8495 55.9984 60.8495Z" fill="#42A7D9"/>
<path d="M46.0099 33.8456C45.5975 36.1519 46.311 38.2027 47.6004 38.4226C48.8899 38.6425 50.2645 36.9544 50.6703 34.6481C51.0761 32.3418 50.3692 30.2851 49.0797 30.0652C47.7903 29.8452 46.4157 31.5334 46.0099 33.8456Z" fill="#F4B88E"/>
<path d="M47.5547 33.2216C47.5547 33.2216 47.5546 33.0908 47.6266 32.8827C47.698 32.5959 47.8033 32.3168 47.9408 32.0506C48.0979 31.7415 48.3597 31.3848 48.687 31.367C48.7717 31.3641 48.8562 31.3763 48.9358 31.4027C48.9785 31.4179 49.0201 31.4358 49.0601 31.4561C49.0601 31.4859 49.119 31.4918 49.1518 31.5275C49.2986 31.6713 49.4062 31.8443 49.466 32.0327C49.5406 32.2454 49.591 32.4645 49.6165 32.6866C49.6393 32.906 49.6393 33.1269 49.6165 33.3464C49.5772 33.5782 49.5641 33.816 49.5183 34.0181L49.394 34.6125C49.3416 34.7967 49.3023 34.9632 49.2696 35.1118C49.2369 35.2604 49.1845 35.3852 49.1518 35.4922C49.0863 35.7062 49.0536 35.8251 49.0536 35.8251C49.0536 35.8251 49.119 35.724 49.2238 35.5279C49.2761 35.4327 49.3481 35.3198 49.4136 35.1772C49.4791 35.0345 49.5511 34.874 49.6231 34.6957C49.6951 34.5174 49.7605 34.3093 49.826 34.1013C49.8914 33.8932 49.9307 33.6674 49.9831 33.4296C50.0327 33.1686 50.0437 32.9027 50.0158 32.639C49.993 32.3728 49.9381 32.1097 49.8521 31.8544C49.7669 31.5993 49.6114 31.3681 49.4005 31.1827C49.3464 31.1333 49.2847 31.0912 49.2172 31.0579L49.0405 30.9925C48.9131 30.9686 48.7817 30.9686 48.6543 30.9925C48.5204 31.0153 48.3932 31.0629 48.2805 31.1325C48.1679 31.2021 48.0723 31.292 47.9997 31.3967C47.8646 31.5795 47.7608 31.78 47.6921 31.9911C47.5906 32.292 47.5333 32.6038 47.5219 32.9184C47.5276 33.0199 47.5385 33.121 47.5547 33.2216Z" fill="#F2A57F"/>
<path d="M47.5546 33.2221C47.5546 33.2221 47.4368 32.9724 48.2877 32.9189C48.2877 32.9189 49.2368 33.0735 48.6805 34.2267C48.5505 34.4727 48.4538 34.7322 48.3925 34.9994C48.3074 35.3857 48.4579 35.9088 48.2354 36.2476C47.9408 36.6935 47.1946 36.4379 47.1488 35.9326C47.2274 35.4528 47.4341 34.9977 47.751 34.6071C47.9162 34.3961 47.9878 34.1364 47.9514 33.8797C47.915 33.6229 47.7733 33.3881 47.5546 33.2221Z" fill="#F2A57F"/>
<path d="M47.1489 35.8848C47.1231 35.9007 47.1009 35.9209 47.0834 35.9442C47.0299 36.0114 46.988 36.0855 46.959 36.1641C46.9361 36.2156 46.9207 36.2696 46.9132 36.3246C46.8999 36.3875 46.8999 36.452 46.9132 36.5148C46.9132 36.5802 46.9132 36.6516 46.9132 36.7229C46.9132 36.7942 46.959 36.8477 46.9787 36.9131C47.0061 36.9748 47.0389 37.0344 47.0768 37.0914C47.1161 37.139 47.1619 37.1806 47.2012 37.2222C47.2666 37.3017 47.3584 37.36 47.463 37.3886C47.5523 37.4302 47.6508 37.4525 47.751 37.454C47.7167 37.3575 47.6729 37.264 47.6201 37.1746C47.5985 37.1377 47.5745 37.102 47.5481 37.0677C47.5325 37.0246 47.5128 36.9828 47.4892 36.9428C47.4692 36.8994 47.4451 36.8577 47.4172 36.818C47.3969 36.7774 47.3794 36.7357 47.3649 36.6932C47.3204 36.6115 47.2853 36.5258 47.2601 36.4376C47.244 36.3968 47.2309 36.3551 47.2208 36.3127C47.2208 36.2652 47.2208 36.2236 47.2208 36.1879C47.1685 36.0572 47.1489 35.8848 47.1489 35.8848Z" fill="#F2A57F"/>
<path d="M20.0763 33.8456C20.4887 36.1519 19.7752 38.2027 18.4858 38.4226C17.1963 38.6425 15.8217 36.9544 15.4093 34.6481C14.997 32.3418 15.7104 30.2851 17.0065 30.0652C18.3025 29.8452 19.664 31.5334 20.0763 33.8456Z" fill="#F4B88E"/>
<path d="M18.5251 33.2214C18.5251 33.2214 18.5251 33.0907 18.4531 32.8826C18.3844 32.5958 18.2813 32.3167 18.1454 32.0504C17.9818 31.7413 17.7199 31.3847 17.3927 31.3669C17.3102 31.3648 17.228 31.3769 17.1505 31.4025C17.105 31.4165 17.0612 31.4344 17.0196 31.456C17.0196 31.4857 16.9672 31.4917 16.9279 31.5274C16.7833 31.6716 16.678 31.8447 16.6203 32.0326C16.5426 32.2446 16.492 32.464 16.4697 32.6864C16.4438 32.9057 16.4438 33.1269 16.4697 33.3462C16.509 33.5781 16.5221 33.8158 16.5679 34.0179L16.6923 34.6123C16.7447 34.7966 16.7839 34.963 16.8232 35.1116C16.8625 35.2603 16.9083 35.3851 16.9345 35.4921C17.0065 35.706 17.0392 35.8249 17.0392 35.8249C16.9743 35.7289 16.9153 35.6297 16.8625 35.5277C16.8167 35.4326 16.7381 35.3197 16.6792 35.177C16.6203 35.0344 16.5352 34.8739 16.4632 34.6956C16.3912 34.5172 16.3323 34.3092 16.2603 34.1011C16.1883 33.8931 16.1556 33.6672 16.1032 33.4295C16.0672 33.1669 16.0672 32.9014 16.1032 32.6389C16.1228 32.3723 16.1777 32.1089 16.2668 31.8543C16.3523 31.6006 16.5051 31.3699 16.7119 31.1826C16.7673 31.1345 16.8288 31.0926 16.8952 31.0578L17.0719 30.9924C17.2016 30.9687 17.3351 30.9687 17.4647 30.9924C17.5988 31.0145 17.7264 31.0618 17.8391 31.1315C17.9519 31.2011 18.0473 31.2914 18.1192 31.3966C18.257 31.5781 18.3609 31.7789 18.4269 31.991C18.5265 32.2925 18.5859 32.6039 18.6036 32.9183C18.5849 33.0208 18.5587 33.1221 18.5251 33.2214Z" fill="#F2A57F"/>
<path d="M18.525 33.2221C18.525 33.2221 18.6428 32.9724 17.7984 32.9189C17.7984 32.9189 16.8493 33.0735 17.4057 34.2267C17.5307 34.474 17.625 34.7332 17.6872 34.9994C17.7723 35.3857 17.6217 35.9088 17.8508 36.2476C18.1454 36.6935 18.8916 36.4379 18.9374 35.9326C18.8589 35.4517 18.6497 34.9961 18.3286 34.6071C18.1634 34.3961 18.0918 34.1364 18.1282 33.8797C18.1646 33.6229 18.3063 33.3881 18.525 33.2221Z" fill="#F2A57F"/>
<path d="M18.9374 35.8848L19.0029 35.9442C19.0563 36.0114 19.0983 36.0855 19.1273 36.1641C19.1479 36.2159 19.1611 36.2698 19.1665 36.3246C19.1766 36.3877 19.1766 36.4518 19.1665 36.5148C19.1665 36.5802 19.1665 36.6516 19.1665 36.7229C19.1665 36.7942 19.1207 36.8477 19.0945 36.9131C19.0698 36.9759 19.0368 37.0358 18.9963 37.0914C18.9584 37.1377 18.9169 37.1814 18.872 37.2222C18.8089 37.3013 18.7194 37.3597 18.6167 37.3886C18.5251 37.4301 18.4245 37.4524 18.3221 37.454C18.3605 37.358 18.4065 37.2647 18.4596 37.1746C18.4787 37.1365 18.5029 37.1005 18.5316 37.0677C18.5473 37.0246 18.567 36.9828 18.5905 36.9428C18.6084 36.8996 18.6303 36.8578 18.656 36.818C18.6808 36.7786 18.7006 36.7367 18.7149 36.6932C18.7573 36.6113 18.7902 36.5256 18.8131 36.4376C18.8292 36.3968 18.8423 36.3551 18.8523 36.3127C18.8523 36.2652 18.8523 36.2236 18.8851 36.1879C18.9178 36.0572 18.9374 35.8848 18.9374 35.8848Z" fill="#F2A57F"/>
<path d="M33.2002 8.93457H32.7943C22.544 9.01779 16.7839 11.6689 18.3613 28.6333L20.1221 42.1443C20.3016 42.984 20.6897 43.7754 21.2569 44.4583C21.824 45.1412 22.5552 45.6976 23.3949 46.0852L28.9586 49.8359C28.9586 49.8359 31.5769 50.9 32.9776 50.793C34.3456 50.9 36.99 49.83 36.99 49.83L42.5603 46.0852C43.4 45.6976 44.1312 45.1412 44.6984 44.4583C45.2655 43.7754 45.6536 42.984 45.8331 42.1443L47.7248 28.9246C49.3023 11.978 43.444 9.01779 33.2002 8.93457Z" fill="#F4B88E"/>
<path d="M45.244 33.8464C44.884 35.2848 44.6287 37.5852 43.6011 38.8156C43.2498 39.2373 42.7985 39.5818 42.2807 39.8236C41.7629 40.0654 41.1918 40.1983 40.6097 40.2125C39.7899 40.2444 38.9688 40.1926 38.1617 40.058C37.5499 39.8818 36.924 39.7487 36.2897 39.6597C35.6342 39.6657 34.9949 39.8454 34.4504 40.1768C34.0991 40.3455 33.7115 40.4424 33.3146 40.4609C32.9178 40.4794 32.5213 40.4189 32.1529 40.2838C31.0147 39.858 29.8025 39.6185 28.5724 39.5765C27.1651 39.6181 25.5418 39.9629 24.1607 39.5765C22.6749 39.1604 21.909 37.9953 21.3265 36.759C21.0123 36.0992 20.7897 34.5299 20.5672 33.8464C20.2923 32.9904 19.8603 33.5789 19.0028 33.567L20.1221 43.1073C20.3016 43.9469 20.6897 44.7384 21.2569 45.4213C21.824 46.1042 22.5552 46.6606 23.3949 47.0482L28.9586 50.793C28.9586 50.793 31.5768 51.8629 32.9776 51.756C34.3456 51.8629 36.99 50.793 36.99 50.793L42.5603 47.0482C43.3997 46.6603 44.1307 46.1037 44.6978 45.4209C45.2649 44.738 45.6531 43.9468 45.8331 43.1073L47.0637 33.4006C46.1342 33.3827 45.5255 32.8418 45.244 33.8464Z" fill="#1B1B1B"/>
<path d="M25.4437 29.7446C25.4437 30.6243 25.9935 31.3376 26.6611 31.3317C27.3288 31.3257 27.8655 30.6124 27.859 29.7268C27.8524 28.8411 27.3091 28.1337 26.6415 28.1397C25.9738 28.1456 25.4371 28.8589 25.4437 29.7446Z" fill="#2F1807"/>
<path d="M26.1703 29.2333C26.1711 29.2955 26.1584 29.3572 26.1328 29.4149C26.1072 29.4725 26.0692 29.525 26.0211 29.5692C25.973 29.6135 25.9157 29.6486 25.8526 29.6726C25.7894 29.6965 25.7216 29.7089 25.6532 29.7089C25.5143 29.7089 25.3811 29.6588 25.2829 29.5696C25.1847 29.4804 25.1295 29.3595 25.1295 29.2333C25.1295 29.1072 25.1847 28.9863 25.2829 28.8971C25.3811 28.8079 25.5143 28.7578 25.6532 28.7578C25.7216 28.7578 25.7894 28.7701 25.8526 28.7941C25.9157 28.8181 25.973 28.8532 26.0211 28.8974C26.0692 28.9417 26.1072 28.9942 26.1328 29.0518C26.1584 29.1095 26.1711 29.1712 26.1703 29.2333Z" fill="white"/>
<path d="M40.6359 29.7446C40.6359 30.6243 40.0861 31.3376 39.4185 31.3317C38.7508 31.3257 38.2206 30.6124 38.2272 29.7268C38.2337 28.8411 38.777 28.1337 39.4446 28.1397C40.1123 28.1456 40.6425 28.8589 40.6359 29.7446Z" fill="#2F1807"/>
<path d="M39.9094 29.2333C39.9094 29.3274 39.9401 29.4193 39.9977 29.4975C40.0552 29.5757 40.137 29.6367 40.2327 29.6727C40.3284 29.7087 40.4336 29.7181 40.5352 29.6997C40.6368 29.6814 40.7301 29.6361 40.8033 29.5696C40.8766 29.5031 40.9264 29.4184 40.9467 29.3261C40.9669 29.2339 40.9565 29.1383 40.9169 29.0514C40.8772 28.9645 40.8101 28.8902 40.724 28.838C40.6379 28.7857 40.5366 28.7578 40.4331 28.7578C40.3643 28.7578 40.2962 28.7701 40.2327 28.794C40.1691 28.8179 40.1114 28.8529 40.0628 28.8971C40.0142 28.9412 39.9756 28.9937 39.9493 29.0514C39.923 29.1091 39.9094 29.1709 39.9094 29.2333Z" fill="white"/>
<path d="M34.817 38.3273C34.5336 38.5741 34.206 38.7751 33.8482 38.9217C33.4819 39.074 33.0905 39.1704 32.6896 39.207C32.4836 39.2319 32.2756 39.2418 32.0678 39.2368C31.8475 39.2253 31.6286 39.1975 31.4133 39.1536C31.2039 39.1169 30.9997 39.0591 30.8045 38.9812C30.6064 38.9101 30.414 38.8266 30.2285 38.7315L29.9863 38.6186L29.9339 38.256C29.9095 38.1023 29.8942 37.9475 29.8881 37.7924C29.8881 37.6438 29.8881 37.4952 29.8881 37.3466C29.905 37.0502 29.951 36.7558 30.0256 36.4668C30.097 36.1734 30.2045 35.8883 30.3463 35.6168C30.4907 35.3267 30.6827 35.0582 30.9158 34.8203C31.0433 35.1095 31.1355 35.4104 31.1907 35.7179C31.2485 36.0008 31.2878 36.2866 31.3085 36.5738C31.3085 36.8532 31.3085 37.1266 31.3085 37.406V37.8161C31.3085 37.9528 31.3085 38.0955 31.2627 38.2144L30.9682 37.7389C31.0991 37.8102 31.2169 37.9112 31.3543 37.9707C31.4869 38.0442 31.6247 38.1097 31.7667 38.1668C31.9114 38.2251 32.06 38.2748 32.2118 38.3154C32.3689 38.3452 32.526 38.3987 32.6896 38.4165C32.8565 38.4414 33.0248 38.4573 33.1937 38.464C33.3681 38.473 33.5429 38.473 33.7173 38.464C34.0872 38.4441 34.4548 38.3984 34.817 38.3273Z" fill="#EBA17D"/>
<path d="M29.1616 26.4868C29.1143 26.6772 28.9895 26.8443 28.8123 26.9545C28.635 27.0648 28.4184 27.11 28.2059 27.0813C26.5733 26.8064 24.8895 26.9336 23.3294 27.4498C23.1275 27.504 22.9108 27.4899 22.7194 27.4101C22.5281 27.3303 22.375 27.1903 22.2887 27.0159C22.2372 26.9273 22.2071 26.8297 22.2006 26.7296C22.1941 26.6296 22.2113 26.5295 22.251 26.436C22.2907 26.3425 22.352 26.2578 22.4307 26.1876C22.5095 26.1174 22.6039 26.0634 22.7076 26.0292C24.5438 25.4134 26.5276 25.2534 28.4546 25.5655C28.5687 25.5819 28.6779 25.619 28.7758 25.6747C28.8737 25.7304 28.9581 25.8034 29.0242 25.8895C29.0902 25.9755 29.1364 26.0728 29.16 26.1754C29.1836 26.2781 29.1841 26.384 29.1616 26.4868Z" fill="#472009"/>
<path d="M36.4403 26.4869C36.4875 26.6772 36.6123 26.8443 36.7895 26.9546C36.9668 27.0648 37.1834 27.1101 37.3959 27.0813C39.0285 26.8064 40.7123 26.9337 42.2724 27.4498C42.4743 27.504 42.691 27.4899 42.8824 27.4102C43.0737 27.3304 43.2268 27.1903 43.3131 27.0159C43.3645 26.9269 43.3943 26.829 43.4003 26.7286C43.4064 26.6283 43.3887 26.528 43.3483 26.4344C43.308 26.3408 43.246 26.2562 43.1665 26.1863C43.087 26.1164 42.9919 26.0628 42.8877 26.0292C41.0537 25.4134 39.072 25.2533 37.1472 25.5656C37.0325 25.5819 36.9226 25.6192 36.8242 25.6752C36.7258 25.7313 36.641 25.8049 36.5749 25.8916C36.5088 25.9783 36.4628 26.0763 36.4396 26.1797C36.4165 26.283 36.4167 26.3896 36.4403 26.4928V26.4869Z" fill="#472009"/>
<path d="M33.5471 44.2842C33.073 44.3813 32.5811 44.3813 32.1071 44.2842" stroke="#E89780" stroke-linecap="round" stroke-linejoin="round"/>
<path d="M29.574 41.5732L30.4118 43.0652C30.4118 43.0652 34.1559 44.9792 36.8003 41.6505C34.3918 41.7456 31.9793 41.7198 29.574 41.5732Z" fill="white"/>
<path d="M25.7513 12.8335C25.7513 12.8335 29.574 17.0419 38.2272 18.1475C38.2272 18.1475 47.0114 20.9056 46.8936 25.4053L45.3423 33.5665L47.103 33.4001C47.103 33.4001 47.1488 30.113 49.0667 30.0654C49.0667 30.0654 50.8013 23.4615 50.7751 22.3381C50.7489 21.2147 48.327 10.016 48.327 10.016L38.9014 3.91138C38.9014 3.91138 29.8227 2.41941 21.8829 4.41663C22.671 4.6247 23.4969 4.68719 24.312 4.60041C25.1271 4.51363 25.9148 4.27933 26.6285 3.91138C26.6285 3.91138 20.1876 5.26663 19.9978 5.74216C19.3432 7.3649 21.0058 7.16874 21.0058 7.16874L16.0704 14.0639L17.0326 30.0476C17.0326 30.0476 18.5643 30.1843 19.029 33.5487H20.4691L20.2203 23.2892C20.2203 23.2892 22.2167 16.9587 25.7513 12.8335Z" fill="#131212"/>
<path d="M25.3586 12.4648C23.6026 10.9465 22.1165 9.1899 20.9534 7.25781L16.0704 14.0638V14.0995C17.6872 16.4771 19.3432 18.8191 21.0123 21.1254C21.9091 18.9083 23.5389 15.4191 25.771 12.8037C26.2374 13.2789 26.7524 13.7127 27.3092 14.0995C26.6219 13.5942 25.9804 13.0355 25.3586 12.4648Z" fill="#1D1D1D"/>
<path d="M32.9383 61.8541L31.7732 56.439L25.5942 53.0449L24.6974 56.4568L32.9383 61.8541Z" fill="#717EBA"/>
<path d="M32.9384 61.8541L34.1035 56.439L40.2759 53.0449L41.1792 56.4568L32.9384 61.8541Z" fill="#717EBA"/>
<path d="M35.897 57.1709H30.006C29.6426 57.3679 29.3673 57.675 29.2284 58.0381C29.0896 58.4012 29.096 58.797 29.2467 59.1562L31.1253 61.8549H34.7777L36.6563 59.1562C36.807 58.797 36.8134 58.4012 36.6746 58.0381C36.5357 57.675 36.2604 57.3679 35.897 57.1709Z" fill="#6A54A1"/>
<g style="mix-blend-mode:multiply">
<path d="M36.2962 57.4556C36.4177 57.9864 36.377 58.5373 36.1784 59.0486C36.0054 59.5976 35.6698 60.0931 35.2081 60.4809C34.7464 60.8687 34.1764 61.134 33.5602 61.2479C33.0037 61.3708 32.4166 61.2982 31.9165 61.0447C31.4164 60.7911 31.0403 60.3754 30.8634 59.8808C30.5492 58.9297 30.379 57.8538 31.0467 57.1465H29.9994C29.636 57.3435 29.3607 57.6506 29.2218 58.0136C29.083 58.3767 29.0894 58.7726 29.2401 59.1318L31.1252 61.8542H34.7777L36.6563 59.1556C36.7955 58.8729 36.8356 58.5582 36.7712 58.2541C36.7068 57.95 36.541 57.6712 36.2962 57.4556Z" fill="#6A54A1"/>
</g>
<path d="M31.1122 61.8545L29.0961 71.4423H36.7937L34.7646 61.8545H31.1122Z" fill="#6A54A1"/>
<path d="M31.7733 56.439L28.854 61.2953L21.7128 56.8908L25.5943 53.0449L31.7733 56.439Z" fill="#86B4DB"/>
<path d="M34.1035 56.439L37.0228 61.2953L44.164 56.8908L40.2759 53.0449L34.1035 56.439Z" fill="#86B4DB"/>
<g clip-path="url(#clip1_87_18012)">
<path d="M45.175 26.6506C45.175 26.6506 44.375 25.2367 38.0459 25.8231C38.0459 25.8231 34.925 26.1284 33.8125 27.3334C33.7102 27.4617 33.5786 27.5657 33.428 27.6372C33.2773 27.7087 33.1117 27.7459 32.9438 27.7459C32.7759 27.7459 32.6102 27.7087 32.4596 27.6372C32.3089 27.5657 32.1774 27.4617 32.075 27.3334C30.9583 26.1284 27.8417 25.8231 27.8417 25.8231C21.5125 25.2367 20.7125 26.6506 20.7125 26.6506L18.9833 26.9317L19.15 28.8518L20.5125 28.7674L20.9042 31.3382C21.5042 34.8127 25.3333 34.6038 25.3333 34.6038C31.0833 34.8609 31.6917 29.9805 31.6917 29.9805C31.8037 29.7611 31.9844 29.5812 32.2083 29.4663C32.4206 29.3855 32.6436 29.3341 32.8708 29.3137H33.0125C33.2412 29.3336 33.4656 29.385 33.6792 29.4663C33.9014 29.5833 34.0816 29.7626 34.1959 29.9805C34.1959 29.9805 34.8042 34.8609 40.55 34.6038C40.55 34.6038 44.3833 34.8127 44.9833 31.3382L45.375 28.7674L46.7375 28.8518L46.9042 26.9317L45.175 26.6506ZM30.7417 31.2297C30.7417 31.2297 29.2167 34.9091 23.6958 33.7201C23.6958 33.7201 21.8667 33.5072 21.3875 30.6834C21.3875 30.6834 20.1375 26.8313 24.0208 26.4578C24.0208 26.4578 30.0917 26.3935 30.9042 27.5825C30.9042 27.5825 31.8125 28.2573 30.7417 31.2297ZM44.4917 30.6834C44.0125 33.4952 42.1875 33.7201 42.1875 33.7201C36.6667 34.9251 35.1417 31.2297 35.1417 31.2297C34.0667 28.2573 34.9792 27.5825 34.9792 27.5825C35.8125 26.3774 41.8625 26.4578 41.8625 26.4578C45.7625 26.8313 44.4958 30.6834 44.4958 30.6834H44.4917Z" fill="#231F20"/>
<path opacity="0.3" d="M30.7416 31.2296C30.7416 31.2296 29.2166 34.909 23.6958 33.72C23.6958 33.72 21.8666 33.5071 21.3875 30.6833C21.3875 30.6833 20.1375 26.8312 24.0208 26.4576C24.0208 26.4576 30.0916 26.3934 30.9041 27.5823C30.9041 27.5823 31.8125 28.2572 30.7416 31.2296Z" fill="white"/>
<path opacity="0.3" d="M44.4958 30.6838C44.0167 33.4956 42.1917 33.7205 42.1917 33.7205C36.6708 34.9255 35.1458 31.2301 35.1458 31.2301C34.0708 28.2577 34.9833 27.5828 34.9833 27.5828C35.8167 26.3778 41.8667 26.4581 41.8667 26.4581C45.7625 26.8317 44.4958 30.6838 44.4958 30.6838Z" fill="white"/>
</g>
</g>
</g>
<defs>
<filter id="filter0_dd_87_18012" x="-3" y="-1" width="73" height="73" filterUnits="userSpaceOnUse" color-interpolation-filters="sRGB">
<feFlood flood-opacity="0" result="BackgroundImageFix"/>
<feColorMatrix in="SourceAlpha" type="matrix" values="0 0 0 0 0 0 0 0 0 0 0 0 0 0 0 0 0 0 127 0" result="hardAlpha"/>
<feOffset dy="2"/>
<feGaussianBlur stdDeviation="1.5"/>
<feColorMatrix type="matrix" values="0 0 0 0 0 0 0 0 0 0 0 0 0 0 0 0 0 0 0.1 0"/>
<feBlend mode="normal" in2="BackgroundImageFix" result="effect1_dropShadow_87_18012"/>
<feColorMatrix in="SourceAlpha" type="matrix" values="0 0 0 0 0 0 0 0 0 0 0 0 0 0 0 0 0 0 127 0" result="hardAlpha"/>
<feOffset/>
<feGaussianBlur stdDeviation="0.5"/>
<feColorMatrix type="matrix" values="0 0 0 0 0 0 0 0 0 0 0 0 0 0 0 0 0 0 0.1 0"/>
<feBlend mode="normal" in2="effect1_dropShadow_87_18012" result="effect2_dropShadow_87_18012"/>
<feBlend mode="normal" in="SourceGraphic" in2="effect2_dropShadow_87_18012" result="shape"/>
</filter>
<clipPath id="clip0_87_18012">
<rect width="56.95" height="63.65" fill="white" transform="translate(4.46667 3.34961)"/>
</clipPath>
<clipPath id="clip1_87_18012">
<rect width="27.9167" height="8.93333" fill="white" transform="translate(18.9833 25.6826)"/>
</clipPath>
</defs>
</svg>
