<svg width="73" height="73" viewBox="0 0 73 73" fill="none" xmlns="http://www.w3.org/2000/svg">
<g filter="url(#filter0_dd_87_18072)">
<g clip-path="url(#clip0_87_18072)">
<rect x="3" y="1" width="67" height="67" rx="33.5" fill="#E4FEFF"/>
<path d="M20.9986 28.3281C20.9986 28.3281 21.2476 46.0169 22.3403 46.9654C23.4329 47.914 39.7438 64.0975 47.7548 54.109C55.7659 44.1205 50.7997 29.5082 50.7997 29.5082L20.9986 28.3281Z" fill="#A76825"/>
<path d="M22.5804 33.4358C22.5804 33.4358 22.7234 43.1714 27.7293 45.1314C27.7293 45.1314 25.305 48.4818 25.9297 49.9992C26.5545 51.5165 33.3418 54.4883 34.9101 53.729C36.4784 52.9698 39.2924 44.0567 39.2924 44.0567L31.8375 32.9932L22.5804 33.4358Z" fill="#030000"/>
<path d="M41.2924 41.8037H32.1335C32.3606 54.068 26.8054 56.5983 26.8054 56.5983C30.3286 62.7933 36.7128 62.4147 36.7128 62.4147C36.7128 62.4147 43.097 62.7937 46.6182 56.5983C46.6201 56.5972 41.065 54.0672 41.2924 41.8037Z" fill="#BB715A"/>
<path d="M43.1833 52.5444C42.2895 50.6898 41.5259 48.0467 41.3332 44.332H32.0915C31.9759 46.5637 31.6575 48.4121 31.2235 49.9313C33.3723 51.2215 37.9669 53.4212 43.1833 52.5444Z" fill="#A45C4B"/>
<path d="M24.6351 29.6C24.6351 29.6 22.7604 26.5853 20.8729 27.6272C19.8134 28.2127 21.3112 36.3474 25.0097 35.7181C25.0097 35.7181 25.6557 35.4566 25.621 34.1337L24.6351 29.6Z" fill="#D1856A"/>
<path opacity="0.4" d="M21.7995 28.6037C21.7995 28.6037 20.9365 31.8047 22.4162 32.4593C22.4162 32.4593 23.1928 32.6545 23.1701 32.9953C23.1473 33.336 23.6268 35.5892 24.442 34.8089C24.442 34.8089 25.0436 33.7334 24.1918 33.3997C23.34 33.0659 23.9255 33.0124 24.5321 32.1478C24.531 32.1478 23.0648 28.2934 21.7995 28.6037Z" fill="#A6644F"/>
<path d="M21.5971 30.9372C21.5266 30.6511 21.4751 30.3605 21.443 30.0675C21.4068 29.7685 21.4031 29.4663 21.4318 29.1665C21.4526 29.0104 21.4761 28.8542 21.5625 28.6864C21.6107 28.59 21.685 28.5096 21.7768 28.4545C21.8296 28.4244 21.8877 28.4047 21.9479 28.3967L21.9706 28.3936H21.9818H21.9872H21.9903H22.0122H22.0392C22.0602 28.3932 22.0811 28.3951 22.1017 28.3991C22.1552 28.4077 22.2077 28.4222 22.2582 28.4424C22.2996 28.4576 22.3399 28.4757 22.3788 28.4967C22.4515 28.5345 22.5216 28.5774 22.5885 28.6251C22.7141 28.716 22.8332 28.8158 22.945 28.9237C23.1623 29.1317 23.3641 29.3557 23.5486 29.594C23.7322 29.831 23.9032 30.0778 24.0608 30.3333C24.2212 30.5911 24.36 30.8622 24.4755 31.1437C24.5363 31.2899 24.5866 31.4403 24.6262 31.5938C24.6728 31.7663 24.6859 31.9463 24.6647 32.1239L24.6543 32.2062L24.5996 32.2624C24.4979 32.3678 24.393 32.4885 24.2997 32.6071C24.2081 32.7213 24.126 32.843 24.0542 32.971C24.0259 33.0216 24.0042 33.0758 23.9899 33.1322L23.9852 33.165C23.9852 33.1677 23.9771 33.1603 23.9795 33.165C23.99 33.1755 24.0034 33.1824 24.018 33.1849C24.0303 33.1899 24.0433 33.1929 24.0565 33.1938L24.0781 33.1978L24.1097 33.202L24.1248 33.2052L24.2404 33.2313C24.2947 33.2511 24.3478 33.2739 24.3996 33.2996C24.4898 33.3539 24.5673 33.4273 24.627 33.5147C24.6808 33.5968 24.72 33.6878 24.7426 33.7837C24.7635 33.8731 24.7726 33.965 24.7696 34.0569C24.7674 34.146 24.7559 34.2346 24.7353 34.3212L24.6998 34.4477L24.6497 34.5679C24.6129 34.6461 24.5675 34.7198 24.5144 34.7877C24.464 34.8562 24.4032 34.9162 24.3344 34.9657C24.3006 34.9896 24.2655 35.0115 24.2292 35.0313L24.1159 35.0785L24.2134 35.0071C24.2424 34.9804 24.27 34.9521 24.2959 34.9224C24.3217 34.8931 24.3448 34.8615 24.3649 34.8279C24.3877 34.7968 24.407 34.7631 24.4223 34.7276C24.4568 34.6591 24.4836 34.587 24.5021 34.5125L24.5268 34.4012L24.5387 34.2892C24.5444 34.2155 24.542 34.1414 24.5314 34.0683C24.5232 33.9983 24.5057 33.9297 24.4794 33.8645C24.4571 33.8044 24.4243 33.7488 24.3826 33.7005C24.3446 33.659 24.2985 33.6258 24.2473 33.6029C24.2254 33.5976 24.2038 33.5906 24.183 33.5819L24.0631 33.5702L24.0481 33.5682H24.0442L24.0635 33.5702H24.05L24.0114 33.5674C23.9842 33.5664 23.9571 33.5628 23.9305 33.5569C23.8657 33.5456 23.804 33.5206 23.7494 33.4835C23.6815 33.4375 23.6302 33.3703 23.6033 33.2922C23.5806 33.2257 23.5723 33.155 23.579 33.0849C23.5902 32.9808 23.6172 32.879 23.6592 32.7832C23.7304 32.6204 23.819 32.466 23.9232 32.3226C24.0213 32.1825 24.1264 32.0475 24.2381 31.9182L24.1733 32.0567C24.1743 31.9435 24.1585 31.8307 24.1263 31.7222C24.0906 31.5943 24.0459 31.4692 23.9926 31.3478C23.8794 31.0943 23.7506 30.8481 23.6071 30.6108C23.4641 30.3684 23.3084 30.1339 23.1408 29.9082C22.9772 29.6822 22.8009 29.466 22.6127 29.2606C22.5206 29.1625 22.4231 29.0699 22.3206 28.983C22.273 28.9424 22.2229 28.9049 22.1707 28.8706C22.1316 28.8463 22.0913 28.824 22.05 28.8039C22.05 28.7988 22.0196 28.7984 22.0057 28.7953L21.9791 28.7918H21.9895C21.9782 28.7908 21.9667 28.7923 21.956 28.7961C21.9213 28.8128 21.8926 28.8401 21.8739 28.8741C21.8122 28.9585 21.7683 29.0896 21.7355 29.2196C21.6751 29.4965 21.6375 29.778 21.623 30.0612C21.6068 30.352 21.5971 30.6456 21.5971 30.9372Z" fill="#985238"/>
<path d="M22.2439 31.6437C22.2439 31.6437 22.2054 31.4938 22.1699 31.2619C22.1522 31.1448 22.1383 31.0093 22.1294 30.861C22.1212 30.7039 22.1249 30.5464 22.1406 30.3898C22.1474 30.3076 22.1603 30.2261 22.1792 30.1458C22.1959 30.0652 22.2183 29.9859 22.2462 29.9085C22.275 29.8334 22.3083 29.7601 22.3461 29.6891C22.3865 29.622 22.4343 29.5615 22.4759 29.5037C22.5237 29.4514 22.575 29.4073 22.6193 29.3667C22.658 29.3324 22.7007 29.303 22.7465 29.2793L22.8652 29.2109L23.0406 29.7184L22.9704 29.741C22.9419 29.7466 22.9143 29.7566 22.8887 29.7707C22.8606 29.7887 22.8251 29.8051 22.7881 29.8289C22.7565 29.8597 22.7172 29.889 22.6794 29.9272C22.6414 29.9718 22.6062 30.0188 22.5738 30.0678C22.538 30.1239 22.5064 30.1828 22.4794 30.2438C22.4487 30.3083 22.4229 30.3752 22.4023 30.4437C22.3575 30.5826 22.3229 30.7247 22.299 30.8688C22.2774 31.0089 22.2605 31.142 22.2547 31.2568C22.2446 31.3855 22.241 31.5146 22.2439 31.6437Z" fill="#985238"/>
<path d="M48.7438 29.6002C48.7438 29.6002 50.617 26.585 52.5056 27.6273C53.564 28.2128 52.0662 36.3475 48.3692 35.7182C48.3692 35.7182 47.7232 35.4567 47.7564 34.1338L48.7438 29.6002Z" fill="#D1856A"/>
<path opacity="0.4" d="M51.579 28.6037C51.579 28.6037 52.4408 31.8047 50.9623 32.4593C50.9623 32.4593 50.1857 32.6545 50.21 32.9953C50.2343 33.336 49.7529 35.5892 48.9381 34.8089C48.9381 34.8089 48.3364 33.7334 49.1882 33.3997C50.04 33.0659 49.4545 33.0124 48.8467 32.1478C48.8467 32.1478 50.3137 28.2934 51.579 28.6037Z" fill="#A6644F"/>
<path d="M51.7833 30.9364C51.7815 30.6428 51.7712 30.3516 51.7525 30.0628C51.7377 29.7795 51.6998 29.498 51.6391 29.2212C51.6068 29.0912 51.5621 28.96 51.5008 28.8757C51.4819 28.8416 51.4531 28.8143 51.4183 28.7976C51.4077 28.7938 51.3964 28.7924 51.3851 28.7933H51.3956L51.369 28.7968C51.3551 28.8 51.3239 28.8004 51.3246 28.8054C51.2833 28.8255 51.243 28.8478 51.204 28.8722C51.1516 28.9062 51.1015 28.9438 51.0541 28.9846C50.9516 29.0713 50.854 29.1638 50.7619 29.2618C50.5738 29.4673 50.3975 29.6837 50.2339 29.9098C50.066 30.1353 49.9103 30.3698 49.7675 30.6124C49.624 30.8495 49.4952 31.0955 49.3821 31.349C49.3288 31.4706 49.284 31.5958 49.248 31.7238C49.2162 31.8322 49.2006 31.9448 49.2017 32.0579L49.137 31.9197C49.2486 32.0489 49.3536 32.1839 49.4515 32.3241C49.5558 32.4675 49.6445 32.622 49.7159 32.7848C49.7578 32.8807 49.7849 32.9826 49.796 33.0869C49.8028 33.157 49.7944 33.2277 49.7714 33.2942C49.7441 33.3721 49.6928 33.4391 49.6249 33.4851C49.5703 33.5221 49.5086 33.547 49.4438 33.5581C49.4173 33.5641 49.3903 33.5678 49.3632 33.569L49.3247 33.5717H49.3092L49.3285 33.5698H49.3247H49.3096L49.1898 33.5819C49.1688 33.5905 49.1473 33.5975 49.1254 33.6029C49.0742 33.6256 49.0282 33.6588 48.9905 33.7005C48.9487 33.7488 48.9158 33.8044 48.8934 33.8645C48.8672 33.9297 48.8498 33.9983 48.8417 34.0683C48.8312 34.1414 48.8286 34.2155 48.834 34.2892L48.8464 34.4016L48.871 34.5129C48.8898 34.5872 48.9165 34.6592 48.9508 34.7276C48.9663 34.763 48.9855 34.7967 49.0082 34.8279C49.0283 34.8615 49.0516 34.8932 49.0776 34.9224C49.1034 34.9522 49.131 34.9805 49.1601 35.0071L49.2572 35.0785L49.1443 35.0313C49.1078 35.0116 49.0725 34.9897 49.0387 34.9657C48.9698 34.9163 48.9091 34.8562 48.8587 34.7877C48.8056 34.72 48.7604 34.6464 48.7238 34.5683L48.6733 34.4477L48.6382 34.3212C48.6172 34.2347 48.6057 34.146 48.6039 34.0569C48.6004 34.0114 48.6017 33.9656 48.6078 33.9203C48.6102 33.8735 48.6179 33.8272 48.6305 33.7821C48.6532 33.6863 48.6923 33.5952 48.7461 33.5132C48.8057 33.4254 48.8834 33.3519 48.9739 33.2977C49.0255 33.2717 49.0785 33.2489 49.1327 33.2294L49.2507 33.2032L49.2653 33.2001L49.2973 33.1958L49.3185 33.1919C49.3317 33.1909 49.3447 33.1878 49.357 33.1829C49.3716 33.1805 49.3851 33.1735 49.3956 33.163C49.3979 33.1575 49.3917 33.165 49.3898 33.163L49.3852 33.1298C49.371 33.0736 49.3495 33.0195 49.3212 32.969C49.2493 32.8412 49.1673 32.7196 49.0761 32.6052C48.9817 32.4852 48.8813 32.3702 48.7754 32.2605L48.7215 32.2047L48.7107 32.1223C48.6898 31.9446 48.7029 31.7645 48.7492 31.5918C48.7886 31.4383 48.839 31.2879 48.8999 31.1417C49.0162 30.8606 49.1557 30.5899 49.317 30.3325C49.4741 30.0773 49.6445 29.8307 49.8276 29.594C50.012 29.3555 50.2138 29.1313 50.4312 28.9233C50.5431 28.8157 50.6621 28.7159 50.7874 28.6247C50.8544 28.5771 50.9245 28.5343 50.9974 28.4967C51.0362 28.4755 51.0765 28.4574 51.1181 28.4424C51.1685 28.422 51.2209 28.4074 51.2745 28.3987C51.2951 28.3949 51.316 28.3932 51.337 28.3936H51.364H51.3863H51.3886H51.3944H51.4056L51.4283 28.3967C51.4886 28.4046 51.5467 28.4244 51.5994 28.4549C51.6911 28.51 51.7654 28.5902 51.8137 28.6864C51.9001 28.8534 51.9236 29.0115 51.9444 29.1661C51.9806 29.4749 51.9621 29.7727 51.934 30.0675C51.9028 30.3602 51.8525 30.6505 51.7833 30.9364Z" fill="#985238"/>
<path d="M51.1335 31.6431C51.1335 31.6431 51.14 31.4869 51.1246 31.2578C51.1177 31.143 51.1018 31.0099 51.0803 30.8698C51.0567 30.7256 51.0222 30.5834 50.977 30.4447C50.9566 30.3761 50.9308 30.3092 50.8999 30.2448C50.873 30.1838 50.8416 30.1249 50.8058 30.0688C50.7734 30.0197 50.738 29.9728 50.6998 29.9282C50.6613 29.8892 50.6228 29.8607 50.5915 29.8299C50.553 29.806 50.5195 29.7908 50.491 29.7717C50.4654 29.7575 50.4378 29.7475 50.4092 29.742L50.3395 29.7194L50.5145 29.2119L50.6336 29.2802C50.6793 29.3041 50.722 29.3335 50.7607 29.3677C50.8043 29.4067 50.8559 29.4524 50.9037 29.5051C50.9454 29.5625 50.9932 29.6222 51.0336 29.6905C51.0715 29.7612 51.1047 29.8344 51.1331 29.9095C51.1612 29.9869 51.1837 30.0664 51.2001 30.1472C51.2188 30.2273 51.2317 30.3088 51.2387 30.3908C51.2539 30.5474 51.2575 30.7049 51.2495 30.862C51.2402 31.0103 51.2263 31.1469 51.2086 31.2629C51.1899 31.3908 51.1648 31.5177 51.1335 31.6431Z" fill="#985238"/>
<path d="M35.681 47.7184C35.681 47.7184 29.8869 44.61 27.907 41.1537C26.2785 38.7304 23.7683 27.6177 23.5628 25.6983C23.5567 25.6346 23.549 25.571 23.5428 25.5074C23.5366 25.4437 23.5324 25.4133 23.5324 25.4133H23.5362C23.5008 25.0167 23.4803 24.6158 23.4803 24.2098C23.4803 16.8074 29.4051 10.8076 36.7131 10.8076C44.0212 10.8076 49.946 16.8074 49.946 24.2098C49.946 24.6858 49.921 25.1614 49.8712 25.6346C49.8712 25.6346 47.305 38.4985 45.5186 41.1537C43.423 45.1159 37.7445 47.7184 37.7445 47.7184C37.7445 47.7184 36.9475 48.3188 35.681 47.7184Z" fill="#D1856A"/>
<path d="M24.6462 29.1526C24.6462 29.1526 25.846 28.6783 29.5138 22.018C33.1183 15.478 36.937 17.2557 36.937 17.2557C36.937 17.2557 40.9555 14.6847 48.4081 28.3891C50.2966 31.8633 47.6923 16.1673 47.6923 16.1673L35.4231 15.2324L25.2695 16.5737C25.2695 16.5737 22.9419 27.5611 24.6462 29.1526Z" fill="#A45C4B"/>
<path d="M40.8923 25.599C40.8923 25.599 40.8434 25.6662 40.769 25.7798C40.6946 25.8934 40.5851 26.0585 40.4606 26.2622C40.3362 26.466 40.1978 26.7088 40.0448 26.9649L39.8278 27.3748C39.7549 27.5145 39.6736 27.6543 39.6104 27.8006C39.5472 27.947 39.4736 28.0907 39.4061 28.2336C39.3726 28.305 39.3391 28.376 39.3063 28.4463L39.2207 28.659C39.1128 28.9397 38.9933 29.197 38.9228 29.4277C38.7752 29.8895 38.6765 30.1971 38.6765 30.1971L38.843 29.4039C38.8904 29.1642 38.9829 28.8964 39.0627 28.6005C39.0839 28.5271 39.1051 28.4525 39.1271 28.3768C39.149 28.3011 39.1787 28.2277 39.2042 28.1524C39.257 28.0009 39.3109 27.8471 39.3653 27.6933C39.4196 27.5395 39.4809 27.3888 39.5406 27.2397C39.6004 27.0906 39.6601 26.9442 39.7179 26.8025C39.8455 26.5246 39.9561 26.2603 40.0671 26.0413C40.1781 25.8223 40.2664 25.6369 40.3369 25.5085L40.4441 25.3105L40.8923 25.599Z" fill="#985238"/>
<path d="M33.5184 30.1972C33.5184 30.1972 33.7215 30.0345 33.627 29.6718C33.5326 29.3092 30.2738 26.5439 28.0974 29.915C28.0974 29.915 31.1842 32.9657 33.5184 30.1972Z" fill="#D0E5EC"/>
<path d="M32.5737 29.7354C32.5738 30.0139 32.4923 30.2862 32.3395 30.5178C32.1867 30.7493 31.9695 30.9298 31.7155 31.0364C31.4614 31.1429 31.1818 31.1707 30.9121 31.1162C30.6424 31.0618 30.3947 30.9275 30.2004 30.7304C30.0061 30.5333 29.8739 30.2823 29.8205 30.0091C29.7671 29.7359 29.7949 29.4527 29.9004 29.1955C30.006 28.9384 30.1845 28.7187 30.4133 28.5642C30.6422 28.4098 30.9112 28.3277 31.1862 28.3281C31.5543 28.3287 31.9072 28.4773 32.1673 28.7411C32.4274 29.0049 32.5736 29.3625 32.5737 29.7354Z" fill="#2C1217"/>
<path d="M31.8375 29.7349C31.8375 29.8661 31.7991 29.9945 31.7271 30.1036C31.6551 30.2127 31.5528 30.2978 31.4331 30.348C31.3133 30.3982 31.1816 30.4114 31.0545 30.3858C30.9274 30.3602 30.8106 30.297 30.719 30.2041C30.6274 30.1113 30.565 29.9931 30.5397 29.8644C30.5144 29.7356 30.5274 29.6022 30.577 29.4809C30.6266 29.3597 30.7105 29.256 30.8183 29.1831C30.9261 29.1102 31.0527 29.0713 31.1823 29.0713C31.3561 29.0713 31.5228 29.1412 31.6456 29.2657C31.7685 29.3901 31.8375 29.5589 31.8375 29.7349Z" fill="#040000"/>
<path d="M29.2347 30.7554C28.8141 30.5365 28.4047 30.2962 28.0079 30.0356L27.9004 29.9654L27.9725 29.8319C28.12 29.5602 28.2956 29.3052 28.4963 29.071C28.7041 28.8317 28.9442 28.623 29.2093 28.4512C29.4811 28.278 29.7799 28.1527 30.0931 28.0807C30.4059 28.01 30.7282 27.9927 31.0466 28.0296C31.3589 28.0634 31.6652 28.1408 31.9566 28.2595C32.2436 28.3727 32.5172 28.5182 32.7722 28.6932C32.8995 28.7788 33.0215 28.8723 33.1375 28.9731C33.2552 29.0719 33.3657 29.1791 33.4682 29.2939C33.5205 29.3526 33.5694 29.4143 33.6147 29.4786C33.6392 29.5131 33.661 29.5495 33.6798 29.5875C33.7001 29.6312 33.7091 29.6794 33.7061 29.7276C33.6996 29.8839 33.6621 30.0372 33.5958 30.1785C33.6096 30.033 33.6014 29.8862 33.5715 29.7432C33.5662 29.7166 33.555 29.6915 33.5388 29.6699C33.5186 29.6448 33.4968 29.6211 33.4736 29.5988C33.4227 29.5502 33.3692 29.5044 33.3133 29.4618C33.0857 29.2885 32.8435 29.1358 32.5895 29.0055C32.3391 28.876 32.0787 28.7675 31.8109 28.6811C31.5476 28.5978 31.2763 28.5434 31.0015 28.5187C30.7331 28.4972 30.4631 28.5145 30.1995 28.5698C30.0681 28.5975 29.9392 28.6359 29.814 28.6846C29.6888 28.7344 29.5671 28.793 29.4498 28.8599C29.2103 28.9971 28.9886 29.164 28.79 29.3568C28.5845 29.5549 28.3948 29.7691 28.2226 29.9974L28.1871 29.7936C28.3648 29.947 28.5363 30.1059 28.7133 30.2659C28.8902 30.426 29.064 30.5876 29.2347 30.7554Z" fill="#030000"/>
<path d="M30.9136 29.2543C30.9136 29.3205 30.8941 29.3853 30.8577 29.4403C30.8213 29.4954 30.7695 29.5382 30.7091 29.5635C30.6486 29.5888 30.5821 29.5953 30.5179 29.5823C30.4538 29.5692 30.3949 29.5372 30.3487 29.4903C30.3025 29.4434 30.2711 29.3836 30.2585 29.3186C30.2458 29.2536 30.2525 29.1862 30.2777 29.1251C30.3028 29.0639 30.3454 29.0117 30.3998 28.975C30.4543 28.9383 30.5183 28.9188 30.5837 28.9189C30.6272 28.9189 30.6702 28.9275 30.7103 28.9444C30.7504 28.9612 30.7869 28.986 30.8175 29.0171C30.8482 29.0483 30.8725 29.0853 30.889 29.126C30.9055 29.1667 30.9138 29.2103 30.9136 29.2543Z" fill="#D0E5EC"/>
<path d="M28.3995 29.7348C28.3995 29.7348 27.9474 30.6326 27.0262 29.9257C27.0262 29.9257 27.6622 30.1243 28.4311 29.1602L28.3995 29.7348Z" fill="#030000"/>
<path d="M27.2178 29.0411C27.2928 29.0795 27.3713 29.1102 27.4522 29.1329C27.6258 29.1867 27.8074 29.2095 27.9887 29.2C28.0826 29.195 28.1758 29.1798 28.2666 29.1547C28.308 29.1444 28.3486 29.1313 28.3884 29.1157C28.4245 29.1035 28.4596 29.0882 28.4932 29.07C28.5449 29.0465 28.5945 29.0185 28.6416 28.9865L28.6959 28.9521L28.8216 29.1707L28.7526 29.2008C28.6929 29.2285 28.6312 29.2515 28.568 29.2695C28.5267 29.2839 28.4842 29.2948 28.4412 29.3023C28.3938 29.3131 28.3458 29.321 28.2974 29.3257C28.1938 29.3377 28.0893 29.3384 27.9856 29.3277C27.7956 29.3082 27.6104 29.2554 27.4383 29.1715C27.3608 29.1354 27.287 29.0917 27.2178 29.0411Z" fill="#030000"/>
<path d="M27.8692 28.4766C27.9314 28.5182 27.9978 28.5528 28.0673 28.58C28.1002 28.5944 28.1341 28.6062 28.1687 28.6155C28.2065 28.6289 28.2451 28.6397 28.2843 28.6479L28.4084 28.669C28.4509 28.6768 28.4941 28.6797 28.5371 28.6776H28.6647C28.7067 28.6776 28.7476 28.6643 28.7869 28.6589L28.8991 28.6397C28.9326 28.633 28.9653 28.6226 28.9966 28.6085L29.1901 28.5367L29.2764 28.7736L29.039 28.8185C29.0011 28.8276 28.9623 28.8325 28.9233 28.8333H28.7938C28.7482 28.8344 28.7025 28.8331 28.657 28.8294L28.5183 28.8041C28.4721 28.7979 28.4267 28.7867 28.383 28.7705L28.2562 28.7252C28.2175 28.7096 28.1799 28.6915 28.1436 28.671C28.1102 28.6549 28.0779 28.6367 28.0469 28.6163C27.9827 28.5765 27.9231 28.5297 27.8692 28.4766Z" fill="#030000"/>
<path d="M34.5663 25.7997C34.5663 25.7997 33.9739 26.42 31.6471 25.4808C29.0825 24.4447 26.7545 25.1329 26.5275 25.3906C26.5275 25.3906 30.1625 22.5745 34.5663 25.7997Z" fill="#030000"/>
<path d="M39.7233 30.1972C39.7233 30.1972 39.5202 30.0345 39.6142 29.6718C39.7083 29.3092 42.9674 26.5439 45.1443 29.915C45.1443 29.915 42.0574 32.9657 39.7233 30.1972Z" fill="#D0E5EC"/>
<path d="M38.3088 28.8074C36.9734 28.367 35.5354 28.367 34.2 28.8074L33.9799 28.2224C35.4479 27.7214 37.0364 27.7214 38.5045 28.2224L38.3088 28.8074Z" fill="#6E6666"/>
<path d="M42.3736 34.0608C41.113 34.0576 39.9049 33.5464 39.0135 32.639C38.1221 31.7317 37.6199 30.5021 37.6166 29.2189C37.6166 26.3312 40.0624 25.9453 42.3736 25.9453C44.6849 25.9453 47.1306 26.3312 47.1306 29.2189C47.1306 30.5031 46.6294 31.7346 45.7373 32.6427C44.8452 33.5507 43.6353 34.0608 42.3736 34.0608ZM42.3736 26.5926C39.3898 26.5926 38.2281 27.327 38.2281 29.2314C38.2281 30.3505 38.6649 31.4237 39.4423 32.2151C40.2197 33.0064 41.2742 33.4509 42.3736 33.4509C43.4731 33.4509 44.5275 33.0064 45.305 32.2151C46.0824 31.4237 46.5191 30.3505 46.5191 29.2314C46.5191 27.3145 45.3574 26.5801 42.3736 26.5801V26.5926Z" fill="#141414"/>
<path d="M49.3491 26.7435L46.7149 27.7471L46.9292 28.3299L49.5634 27.3264L49.3491 26.7435Z" fill="#141414"/>
<path d="M30.2424 34.0608C28.9808 34.0608 27.7708 33.5507 26.8787 32.6427C25.9866 31.7346 25.4854 30.5031 25.4854 29.2189C25.4854 26.3312 27.9312 25.9453 30.2424 25.9453C32.5536 25.9453 34.9994 26.3312 34.9994 29.2189C34.9962 30.5021 34.4939 31.7317 33.6025 32.639C32.7111 33.5464 31.503 34.0576 30.2424 34.0608ZM30.2424 26.5926C27.2586 26.5926 26.0968 27.327 26.0968 29.2314C26.0968 30.3505 26.5336 31.4237 27.3111 32.2151C28.0885 33.0064 29.1429 33.4509 30.2424 33.4509C31.3419 33.4509 32.3963 33.0064 33.1737 32.2151C33.9512 31.4237 34.388 30.3505 34.388 29.2314C34.388 27.3145 33.2262 26.5801 30.2424 26.5801V26.5926Z" fill="#141414"/>
<path d="M23.2825 26.7517L23.1 27.3457L25.866 28.2264L26.0485 27.6324L23.2825 26.7517Z" fill="#141414"/>
<path d="M40.6676 29.7354C40.6675 30.0138 40.749 30.286 40.9016 30.5175C41.0543 30.7491 41.2714 30.9295 41.5253 31.0361C41.7793 31.1427 42.0587 31.1707 42.3284 31.1164C42.598 31.0621 42.8457 30.9281 43.0401 30.7312C43.2345 30.5344 43.3669 30.2836 43.4206 30.0105C43.4742 29.7375 43.4467 29.4544 43.3415 29.1972C43.2363 28.9399 43.0582 28.7201 42.8296 28.5654C42.6011 28.4107 42.3323 28.3281 42.0574 28.3281C41.8749 28.3278 41.694 28.364 41.5253 28.4346C41.3566 28.5052 41.2032 28.6089 41.0741 28.7396C40.945 28.8703 40.8427 29.0256 40.7729 29.1964C40.7031 29.3673 40.6674 29.5505 40.6676 29.7354Z" fill="#2C1217"/>
<path d="M41.4037 29.7349C41.4037 29.8661 41.4422 29.9945 41.5142 30.1036C41.5862 30.2127 41.6885 30.2978 41.8082 30.348C41.928 30.3982 42.0597 30.4114 42.1868 30.3858C42.3139 30.3602 42.4306 30.297 42.5223 30.2041C42.6139 30.1113 42.6763 29.9931 42.7016 29.8644C42.7269 29.7356 42.7139 29.6022 42.6643 29.4809C42.6147 29.3597 42.5307 29.256 42.423 29.1831C42.3152 29.1102 42.1886 29.0713 42.059 29.0713C41.8852 29.0713 41.7185 29.1412 41.5957 29.2657C41.4728 29.3901 41.4037 29.5589 41.4037 29.7349Z" fill="#040000"/>
<path d="M44.0069 30.7554C44.1775 30.5876 44.3512 30.4244 44.528 30.2659C44.7049 30.1071 44.8749 29.947 45.0545 29.7936L45.019 29.9974C44.8471 29.7692 44.6578 29.555 44.4529 29.3568C44.2536 29.164 44.0316 28.997 43.7918 28.8595C43.6744 28.7928 43.5526 28.7344 43.4272 28.6846C43.302 28.6358 43.1731 28.5975 43.0418 28.5698C42.7781 28.5145 42.5079 28.4972 42.2394 28.5187C41.9646 28.5434 41.6933 28.5978 41.43 28.6811C41.1617 28.7679 40.9009 28.8769 40.6503 29.007C40.396 29.1373 40.1537 29.2901 39.926 29.4637C39.8702 29.5063 39.8166 29.5519 39.7657 29.6004C39.7425 29.6226 39.7208 29.6464 39.7009 29.6718C39.6845 29.6932 39.6733 29.7182 39.6682 29.7448C39.6379 29.8877 39.6298 30.0346 39.6439 30.1801C39.5777 30.0388 39.5401 29.8854 39.5333 29.7292C39.5303 29.681 39.5393 29.6328 39.5595 29.589C39.5785 29.5511 39.6003 29.5147 39.6246 29.4801C39.6699 29.4159 39.7188 29.3544 39.7711 29.2959C39.8737 29.1809 39.9843 29.0735 40.1022 28.9746C40.2181 28.8739 40.34 28.7804 40.4672 28.6947C40.7222 28.5194 40.9957 28.3734 41.2827 28.2595C41.5742 28.1408 41.8804 28.0634 42.1927 28.0296C42.5112 27.9927 42.8334 28.01 43.1463 28.0807C43.4596 28.1526 43.7585 28.2779 44.0304 28.4512C44.295 28.6231 44.5345 28.8318 44.7419 29.071C44.9431 29.3051 45.1192 29.5601 45.2673 29.8319L45.3393 29.9654L45.2318 30.0356C44.8344 30.2972 44.4282 30.5357 44.0069 30.7554Z" fill="#030000"/>
<path d="M42.3265 29.2543C42.3264 29.3207 42.3458 29.3857 42.3822 29.4409C42.4186 29.4962 42.4703 29.5393 42.5309 29.5647C42.5915 29.5902 42.6582 29.5969 42.7225 29.5839C42.7869 29.571 42.8459 29.539 42.8923 29.492C42.9387 29.4451 42.9703 29.3852 42.9831 29.3201C42.9958 29.2549 42.9892 29.1874 42.9641 29.126C42.939 29.0646 42.8964 29.0122 42.8419 28.9754C42.7873 28.9385 42.7232 28.9189 42.6576 28.9189C42.6141 28.9189 42.571 28.9275 42.5308 28.9444C42.4906 28.9612 42.4541 28.9859 42.4233 29.017C42.3926 29.0482 42.3682 29.0852 42.3516 29.1259C42.335 29.1666 42.3264 29.2102 42.3265 29.2543Z" fill="#D0E5EC"/>
<path d="M44.8418 29.7348C44.8418 29.7348 45.2939 30.6326 46.2154 29.9257C46.2154 29.9257 45.5795 30.1243 44.8105 29.1602L44.8418 29.7348Z" fill="#030000"/>
<path d="M46.0239 29.0417C45.9547 29.0918 45.8808 29.1349 45.8034 29.1706C45.6313 29.2544 45.4461 29.3073 45.2561 29.3267C45.1524 29.3374 45.0478 29.3367 44.9443 29.3247C44.8959 29.32 44.8479 29.3122 44.8005 29.3013C44.7574 29.2939 44.715 29.2829 44.6737 29.2685C44.6105 29.2505 44.5488 29.2275 44.4891 29.1998L44.4201 29.1698L44.5458 28.9512L44.6001 28.9855C44.6472 29.0175 44.6968 29.0454 44.7485 29.0691C44.7821 29.0873 44.8172 29.1025 44.8533 29.1147C44.8931 29.1303 44.9338 29.1433 44.9751 29.1538C45.0659 29.1788 45.1591 29.194 45.253 29.1991C45.4342 29.2091 45.6158 29.1871 45.7895 29.1339C45.8704 29.1111 45.9489 29.0802 46.0239 29.0417Z" fill="#030000"/>
<path d="M45.3725 28.4766C45.3176 28.5294 45.2571 28.5759 45.1921 28.6151C45.1611 28.6355 45.1287 28.6537 45.0953 28.6698C45.0591 28.6904 45.0215 28.7086 44.9828 28.724L44.856 28.7693C44.8123 28.7855 44.7669 28.7968 44.7207 28.8029L44.582 28.8283C44.5364 28.8319 44.4908 28.8332 44.4451 28.8322H44.3156C44.2767 28.8314 44.2379 28.8264 44.2 28.8173L43.9626 28.7725L44.0489 28.5355L44.2451 28.6089C44.2764 28.623 44.3091 28.6334 44.3426 28.6401L44.4548 28.6593C44.4933 28.6647 44.5349 28.676 44.577 28.678H44.7045C44.7476 28.6804 44.7908 28.6776 44.8333 28.6698L44.9574 28.6487C44.9966 28.6405 45.0352 28.6297 45.073 28.6163C45.1076 28.607 45.1415 28.5951 45.1744 28.5808C45.2439 28.5534 45.3103 28.5184 45.3725 28.4766Z" fill="#030000"/>
<path d="M38.6749 25.7997C38.6749 25.7997 39.2677 26.42 41.593 25.4808C44.1591 24.4447 46.4879 25.1329 46.7141 25.3906C46.7141 25.3906 43.0792 22.5745 38.6749 25.7997Z" fill="#030000"/>
<path d="M36.4869 37.4792C36.4869 37.4792 34.9691 36.8219 34.9132 37.2645C34.8573 37.7072 35.7557 37.9153 36.4869 37.4792Z" fill="#985238"/>
<path d="M36.9371 37.4792C36.9371 37.4792 38.4549 36.8219 38.5111 37.2645C38.5674 37.7072 37.6694 37.9153 36.9371 37.4792Z" fill="#985238"/>
<path d="M32.8747 40.0821C32.8747 40.0821 35.4042 38.5963 36.7128 39.0773C36.7128 39.0773 37.9681 38.6174 40.5508 40.0821C40.5508 40.0821 39.6447 42.4835 36.9197 42.4839C33.8953 42.4847 32.8747 40.0821 32.8747 40.0821Z" fill="#EF3A52"/>
<path d="M40.547 40.0914C40.5487 40.0881 40.55 40.0846 40.5508 40.0809C40.5077 40.0559 40.4668 40.0356 40.424 40.0122C38.5697 39.5047 36.7128 39.5012 36.7128 39.5012C36.1963 39.3712 34.0148 39.7881 33.0474 39.9845C32.9371 40.0442 32.8747 40.0809 32.8747 40.0809L32.8797 40.0914H40.547Z" fill="#B62743"/>
<path d="M33.0894 40.2151C33.0894 40.2151 34.4815 41.8277 36.8207 41.7434C39.1189 41.6603 40.3377 40.4615 40.5508 40.082L33.0894 40.2151Z" fill="#B62743"/>
<path d="M36.7128 39.9232C35.7403 39.7967 32.8747 40.0793 32.8747 40.0793C34.8404 41.3437 36.7128 41.2172 36.7128 41.2172C36.7128 41.2172 38.5863 41.3437 40.5508 40.0793C40.5508 40.0813 37.6852 39.7967 36.7128 39.9232Z" fill="#55010E"/>
<path d="M34.4981 40.8585C35.7584 41.2812 36.7128 41.2196 36.7128 41.2196C36.7128 41.2196 37.6532 41.2801 38.8997 40.8682C36.8268 39.9692 35.1834 40.5267 34.4981 40.8585Z" fill="#F16362"/>
<path d="M39.2334 41.3691C39.2334 41.3691 37.4501 41.8227 37.7372 42.0808C38.0244 42.3388 39.6166 41.4144 39.2334 41.3691Z" fill="#F37F94"/>
<path d="M37.5098 42.1257C37.5098 42.1257 37.5518 41.7459 36.3293 42.0086C35.1067 42.2713 37.7499 42.5403 37.5098 42.1257Z" fill="#F37F94"/>
<path d="M25.2695 35.569C25.2695 35.7661 25.2119 35.9587 25.1039 36.1226C24.9958 36.2865 24.8423 36.4142 24.6625 36.4897C24.4828 36.5651 24.285 36.5849 24.0942 36.5465C23.9034 36.5081 23.7281 36.4133 23.5905 36.274C23.4529 36.1347 23.3592 35.9572 23.3212 35.7639C23.2832 35.5707 23.3026 35.3704 23.3771 35.1883C23.4515 35.0062 23.5776 34.8506 23.7394 34.7412C23.9011 34.6317 24.0913 34.5732 24.2859 34.5732C24.415 34.5732 24.5429 34.5989 24.6622 34.6489C24.7816 34.699 24.89 34.7723 24.9813 34.8648C25.0727 34.9572 25.1451 35.067 25.1946 35.1879C25.244 35.3087 25.2695 35.4382 25.2695 35.569Z" fill="#EA892E"/>
<path d="M24.871 35.5695C24.8713 35.6868 24.8372 35.8015 24.7731 35.8992C24.709 35.9968 24.6177 36.073 24.5108 36.1181C24.404 36.1632 24.2863 36.1751 24.1727 36.1525C24.0591 36.1298 23.9547 36.0734 23.8727 35.9906C23.7907 35.9078 23.7349 35.8023 23.7122 35.6873C23.6895 35.5723 23.701 35.453 23.7452 35.3447C23.7894 35.2363 23.8644 35.1437 23.9607 35.0785C24.0569 35.0133 24.1701 34.9785 24.2859 34.9785C24.3626 34.9784 24.4386 34.9936 24.5095 35.0233C24.5805 35.0529 24.6449 35.0964 24.6993 35.1513C24.7536 35.2062 24.7967 35.2714 24.8262 35.3431C24.8556 35.4149 24.8709 35.4918 24.871 35.5695Z" fill="#B16226"/>
<path d="M50.028 35.569C50.028 35.766 49.9703 35.9586 49.8623 36.1224C49.7542 36.2861 49.6006 36.4138 49.4209 36.4891C49.2412 36.5645 49.0435 36.5841 48.8527 36.5457C48.662 36.5072 48.4868 36.4123 48.3493 36.2729C48.2118 36.1336 48.1182 35.9561 48.0804 35.7628C48.0425 35.5696 48.0621 35.3694 48.1367 35.1874C48.2112 35.0055 48.3373 34.85 48.4991 34.7407C48.6609 34.6314 48.8511 34.5731 49.0456 34.5732C49.1747 34.5732 49.3025 34.5989 49.4218 34.649C49.5411 34.699 49.6494 34.7723 49.7407 34.8648C49.8319 34.9573 49.9043 35.0671 49.9536 35.188C50.0029 35.3088 50.0282 35.4383 50.028 35.569Z" fill="#EA892E"/>
<path d="M49.6307 35.5691C49.6307 35.6863 49.5963 35.8009 49.5321 35.8983C49.4678 35.9958 49.3764 36.0717 49.2695 36.1166C49.1626 36.1614 49.0449 36.1732 48.9314 36.1503C48.8179 36.1274 48.7137 36.071 48.6319 35.9881C48.5501 35.9053 48.4943 35.7997 48.4718 35.6847C48.4492 35.5698 48.4608 35.4506 48.505 35.3424C48.5493 35.2341 48.6243 35.1415 48.7205 35.0764C48.8167 35.0113 48.9299 34.9766 49.0456 34.9766C49.1224 34.9766 49.1985 34.9919 49.2695 35.0217C49.3405 35.0514 49.405 35.0951 49.4593 35.1501C49.5136 35.2051 49.5567 35.2705 49.5861 35.3424C49.6155 35.4143 49.6307 35.4913 49.6307 35.5691Z" fill="#B16226"/>
<path d="M23.3023 28.2599C23.3023 28.2599 24.4142 30.554 25.6225 27.0673C26.6493 24.1065 32.8747 12.4523 36.7128 16.3715V8.74312C36.7128 8.74312 36.2167 6.17338 33.627 6.50987C30.7895 6.87798 20.151 8.86998 22.7438 27.7064L23.3023 28.2599Z" fill="#030000"/>
<path d="M50.1221 28.2608C50.1221 28.2608 49.0113 30.555 47.8034 27.0683C46.7766 24.1078 40.5508 12.4532 36.7128 16.3724V8.74403C36.7128 8.74403 37.2088 6.17469 39.7962 6.51079C42.6344 6.87889 53.0644 9.12346 50.6798 27.7073L50.1221 28.2608Z" fill="#030000"/>
<path d="M36.7128 16.3717V8.74333C36.6784 8.58972 36.6322 8.43909 36.5744 8.29285C36.5536 8.45151 36.5244 8.60892 36.4869 8.76441C32.9738 7.31032 30.5837 9.64935 30.5837 9.64935C35.0235 8.57469 36.0048 11.5461 36.0048 11.5461C33.57 10.9141 31.5724 12.5575 31.5724 12.5575C34.9437 11.8939 36.4858 14.3278 36.4858 14.3278C32.3417 12.2429 27.7293 20.6516 27.7293 20.6516C28.0658 18.8169 30.2523 15.2358 30.2523 15.2358C27.8079 17.5967 25.2695 23.4962 25.2695 23.4962C26.7052 15.9103 29.7944 11.6113 29.7944 11.6113C23.707 16.8585 23.7008 26.1939 23.7008 26.1939C22.5607 19.6995 24.3799 13.8746 25.7983 10.5804C23.2877 13.5471 21.5043 18.7022 22.743 27.705L23.3015 28.2593C23.3015 28.2593 24.4135 30.5535 25.6218 27.0668C26.6493 24.1067 32.8747 12.4541 36.7128 16.3717Z" fill="black"/>
<path d="M51.0051 23.9106C50.6759 22.1614 50.0288 20.6706 50.0288 20.6706C50.5275 22.6091 50.2813 25.7706 50.2813 25.7706C49.3994 20.1674 45.8265 15.6135 45.8265 15.6135C47.5336 18.1001 49.5717 26.1922 49.0255 26.1922C48.4794 26.1922 44.328 17.9318 42.9882 15.8114C41.6485 13.691 37.7045 14.6013 37.7045 14.6013C39.154 12.3255 41.79 13.0839 41.79 13.0839C39.4177 11.4835 37.4215 12.2829 37.4215 12.2829C38.8773 10.0071 43.2469 12.2829 43.2469 12.2829C40.4587 9.37514 37.4215 10.0497 37.4215 10.0497C39.0403 8.60067 42.0578 10.0497 42.0578 10.0497C40.2197 8.39222 37.3961 8.95668 36.7131 9.12414V16.3723C40.5512 12.4527 46.777 24.1073 47.8037 27.0682C49.0117 30.5549 50.1225 28.2607 50.1225 28.2607L50.6821 27.7064C50.8544 26.3561 50.9584 25.0945 51.0051 23.9106Z" fill="black"/>
<path d="M33.6436 40.014C33.6436 40.014 36.9309 41.3084 39.5888 39.9991C38.6638 39.9265 37.3194 39.8457 36.7128 39.9246C36.0629 39.8391 34.564 39.9382 33.6436 40.014Z" fill="#D7F0FC"/>
<path d="M70 67.9995C69.7768 66.969 69.5344 66.1164 69.2715 65.5453C67.524 61.7522 63.2481 60.9051 60.0853 58.4455C60.0853 58.4455 59.0038 56.1849 57.9212 55.7637C56.8385 55.3425 55.3573 54.4755 54.1706 53.4653C54.1706 53.4653 53.1045 47.3667 52.225 46.0176C52.225 46.0176 58.4669 18.8486 49.9456 9.26569C43.8724 2.43792 35.6987 4.71371 35.6987 4.71371C35.6987 4.71371 24.2227 3.02814 20.5407 19.212C16.8587 35.3959 20.5407 47.3499 20.5407 47.3499C20.5407 47.3499 18.5049 49.5301 17.5883 53.8509C17.5883 53.8509 15.9283 54.417 14.0968 56.3559C12.2652 58.2948 9.73299 59.5607 9.15061 59.8137C9.15061 59.8137 7.06932 60.8997 5.07282 62.417C4.04335 63.1977 3.39236 65.3509 3 67.9991L70 67.9995ZM24.0219 20.403C27.5493 9.94804 36.6885 11.2885 36.6885 11.2885C58.6381 13.649 45.3725 52.1095 45.3725 52.1095C41.8443 54.6629 38.081 54.6141 38.081 54.6141C22.5865 53.3841 20.4505 30.9911 24.0219 20.403Z" fill="#FDE37B"/>
<path d="M70 68C69.7768 66.9695 69.5344 66.1169 69.2716 65.5458C69.0659 65.0985 68.8155 64.6738 68.5242 64.2783C67.7349 65.5603 66.9408 66.8008 66.1419 68H70Z" fill="#E3C963"/>
<path d="M23.5424 11.4727C22.3325 13.4389 21.2792 15.9653 20.5407 19.2123C17.4346 32.8702 19.571 43.5153 20.3137 46.5054C27.9678 63.9397 37.7052 64.7028 37.7052 64.7028C15.6466 49.0962 20.1079 23.103 23.5424 11.4727Z" fill="#E3C963"/>
<path d="M70 68.0001C69.7768 66.9695 69.5344 66.117 69.2715 65.5459C69.2715 65.5459 68.7589 66.4535 67.8146 68.0001H70Z" fill="#D9B83C"/>
<path opacity="0.3" d="M70 68.0001C69.7768 66.9703 69.5344 66.1166 69.2715 65.5459C69.2715 65.5459 68.7578 66.4566 67.8146 68.0001H70Z" fill="#BB4439"/>
<path d="M26.1452 67.9998C21.0418 62.5242 18.7103 56.7414 17.7044 53.3496C17.6658 53.5155 17.6235 53.6787 17.5864 53.8512C17.5864 53.8512 17.2195 53.9781 16.6445 54.3095C17.3822 59.9822 18.8661 64.462 20.8071 67.9998H26.1452Z" fill="#E3C963"/>
<path d="M13.5699 68.0003C12.8453 63.4183 12.9251 59.6174 13.1178 57.2822C12.4409 57.8542 11.7221 58.3734 10.9675 58.8351C10.3994 62.1867 10.1215 65.2315 10.0729 68.0003H13.5699Z" fill="#E3C963"/>
<path d="M48.0431 67.9995C51.2209 65.8224 54.677 62.0375 57.1977 55.4412C56.1142 54.9076 55.0979 54.2442 54.1706 53.4652C54.1706 53.4652 54.1683 53.4539 54.1656 53.4375C52.1895 57.968 48.891 63.2074 43.4053 67.9979L48.0431 67.9995Z" fill="#E3C963"/>
<path d="M58.1597 67.9994C59.4771 65.7966 60.7197 63.0493 61.7958 59.5934C61.2027 59.2471 60.6314 58.8636 60.0853 58.4454C60.0853 58.4454 60.0468 58.3673 59.9836 58.2451C59.0212 61.8243 57.3083 65.1514 54.9615 67.9994H58.1597Z" fill="#E3C963"/>
<path d="M52.9916 48.0732C52.7812 47.3167 52.5611 46.6574 52.3483 46.2386L52.3429 46.2288C52.3152 46.1745 52.2886 46.1261 52.2604 46.0809C52.2581 46.0762 52.2554 46.0707 52.2531 46.0668C52.2443 46.052 52.2354 46.0336 52.225 46.0196C52.225 46.0196 58.467 18.8506 49.9456 9.26764C43.8724 2.43987 35.6987 4.71566 35.6987 4.71566C35.6987 4.71566 56.2928 8.71216 50.7985 40.5854C50.7985 40.5854 47.6026 50.9096 47.586 54.7984C46.3632 56.4656 44.9764 58.0028 43.4469 59.3862C43.4469 59.3862 48.454 58.6836 53.6503 50.8163C53.4599 49.9247 53.2329 48.9383 52.9916 48.0752V48.0732Z" fill="#E3C963"/>
</g>
</g>
<defs>
<filter id="filter0_dd_87_18072" x="0" y="0" width="73" height="73" filterUnits="userSpaceOnUse" color-interpolation-filters="sRGB">
<feFlood flood-opacity="0" result="BackgroundImageFix"/>
<feColorMatrix in="SourceAlpha" type="matrix" values="0 0 0 0 0 0 0 0 0 0 0 0 0 0 0 0 0 0 127 0" result="hardAlpha"/>
<feOffset dy="2"/>
<feGaussianBlur stdDeviation="1.5"/>
<feColorMatrix type="matrix" values="0 0 0 0 0 0 0 0 0 0 0 0 0 0 0 0 0 0 0.1 0"/>
<feBlend mode="normal" in2="BackgroundImageFix" result="effect1_dropShadow_87_18072"/>
<feColorMatrix in="SourceAlpha" type="matrix" values="0 0 0 0 0 0 0 0 0 0 0 0 0 0 0 0 0 0 127 0" result="hardAlpha"/>
<feOffset/>
<feGaussianBlur stdDeviation="0.5"/>
<feColorMatrix type="matrix" values="0 0 0 0 0 0 0 0 0 0 0 0 0 0 0 0 0 0 0.1 0"/>
<feBlend mode="normal" in2="effect1_dropShadow_87_18072" result="effect2_dropShadow_87_18072"/>
<feBlend mode="normal" in="SourceGraphic" in2="effect2_dropShadow_87_18072" result="shape"/>
</filter>
<clipPath id="clip0_87_18072">
<rect x="3" y="1" width="67" height="67" rx="33.5" fill="white"/>
</clipPath>
</defs>
</svg>
