<svg width="24" height="24" viewBox="0 0 24 24" fill="none" xmlns="http://www.w3.org/2000/svg">
<rect width="24" height="24" rx="12" fill="#428F92"/>
<path d="M8.50668 18.6663H15.4933C17.3333 18.6663 18.0667 17.5397 18.1533 16.1663L18.5 10.6597C18.5933 9.21967 17.4467 7.99967 16 7.99967C15.5933 7.99967 15.22 7.76634 15.0333 7.40634L14.5533 6.43967C14.2467 5.83301 13.4467 5.33301 12.7667 5.33301H11.24C10.5533 5.33301 9.75334 5.83301 9.44668 6.43967L8.96668 7.40634C8.78001 7.76634 8.40668 7.99967 8.00001 7.99967C6.55334 7.99967 5.40668 9.21967 5.50001 10.6597L5.84668 16.1663C5.92668 17.5397 6.66668 18.6663 8.50668 18.6663Z" stroke="white" stroke-linecap="round" stroke-linejoin="round"/>
<path d="M11 9.33301H13" stroke="white" stroke-linecap="round" stroke-linejoin="round"/>
<path d="M12 16.0003C13.1933 16.0003 14.1666 15.027 14.1666 13.8337C14.1666 12.6403 13.1933 11.667 12 11.667C10.8066 11.667 9.83331 12.6403 9.83331 13.8337C9.83331 15.027 10.8066 16.0003 12 16.0003Z" stroke="white" stroke-linecap="round" stroke-linejoin="round"/>
</svg>
