<svg width="20" height="20" viewBox="0 0 20 20" fill="none" xmlns="http://www.w3.org/2000/svg">
<path d="M15.1167 18.0166C14.3833 18.2333 13.5167 18.3333 12.5 18.3333H7.5C6.48333 18.3333 5.61666 18.2333 4.88333 18.0166C5.06666 15.85 7.29166 14.1416 10 14.1416C12.7083 14.1416 14.9333 15.85 15.1167 18.0166Z" stroke="#222222" stroke-width="1.5" stroke-linecap="round" stroke-linejoin="round"/>
<path d="M12.5 1.66699H7.49999C3.33332 1.66699 1.66666 3.33366 1.66666 7.50033V12.5003C1.66666 15.6503 2.61666 17.3753 4.88332 18.017C5.06666 15.8503 7.29166 14.142 9.99999 14.142C12.7083 14.142 14.9333 15.8503 15.1167 18.017C17.3833 17.3753 18.3333 15.6503 18.3333 12.5003V7.50033C18.3333 3.33366 16.6667 1.66699 12.5 1.66699ZM9.99999 11.8086C8.34999 11.8086 7.01666 10.467 7.01666 8.81701C7.01666 7.16701 8.34999 5.83366 9.99999 5.83366C11.65 5.83366 12.9833 7.16701 12.9833 8.81701C12.9833 10.467 11.65 11.8086 9.99999 11.8086Z" stroke="#222222" stroke-width="1.5" stroke-linecap="round" stroke-linejoin="round"/>
<path d="M12.9833 8.81636C12.9833 10.4664 11.65 11.808 10 11.808C8.35 11.808 7.01666 10.4664 7.01666 8.81636C7.01666 7.16636 8.35 5.83301 10 5.83301C11.65 5.83301 12.9833 7.16636 12.9833 8.81636Z" stroke="#222222" stroke-width="1.5" stroke-linecap="round" stroke-linejoin="round"/>
</svg>
