<svg width="24" height="25" viewBox="0 0 24 25" fill="none" xmlns="http://www.w3.org/2000/svg">
<path d="M18.14 22.0699C17.26 22.3299 16.22 22.45 15 22.45H8.99998C7.77998 22.45 6.73999 22.3299 5.85999 22.0699C6.07999 19.4699 8.74998 17.4199 12 17.4199C15.25 17.4199 17.92 19.4699 18.14 22.0699Z" stroke="#BBBBBB" stroke-width="1.5" stroke-linecap="round" stroke-linejoin="round"/>
<path d="M15 2.4502H9C4 2.4502 2 4.4502 2 9.4502V15.4502C2 19.2302 3.14 21.3002 5.86 22.0702C6.08 19.4702 8.75 17.4202 12 17.4202C15.25 17.4202 17.92 19.4702 18.14 22.0702C20.86 21.3002 22 19.2302 22 15.4502V9.4502C22 4.4502 20 2.4502 15 2.4502ZM12 14.6202C10.02 14.6202 8.42 13.0102 8.42 11.0302C8.42 9.05021 10.02 7.4502 12 7.4502C13.98 7.4502 15.58 9.05021 15.58 11.0302C15.58 13.0102 13.98 14.6202 12 14.6202Z" stroke="#BBBBBB" stroke-width="1.5" stroke-linecap="round" stroke-linejoin="round"/>
<path d="M15.58 11.0302C15.58 13.0102 13.98 14.6202 12 14.6202C10.02 14.6202 8.41998 13.0102 8.41998 11.0302C8.41998 9.05021 10.02 7.4502 12 7.4502C13.98 7.4502 15.58 9.05021 15.58 11.0302Z" stroke="#BBBBBB" stroke-width="1.5" stroke-linecap="round" stroke-linejoin="round"/>
</svg>
