<svg width="25" height="24" viewBox="0 0 25 24" fill="none" xmlns="http://www.w3.org/2000/svg">
<path d="M18.5 18.8597H17.74C16.94 18.8597 16.18 19.1697 15.62 19.7297L13.91 21.4197C13.13 22.1897 11.86 22.1897 11.08 21.4197L9.37 19.7297C8.81 19.1697 8.04 18.8597 7.25 18.8597H6.5C4.84 18.8597 3.5 17.5298 3.5 15.8898V4.97974C3.5 3.33974 4.84 2.00977 6.5 2.00977H18.5C20.16 2.00977 21.5 3.33974 21.5 4.97974V15.8898C21.5 17.5198 20.16 18.8597 18.5 18.8597Z" fill="#222222"/>
<path d="M12.5 9.99982C13.7868 9.99982 14.83 8.95662 14.83 7.6698C14.83 6.38298 13.7868 5.33984 12.5 5.33984C11.2132 5.33984 10.17 6.38298 10.17 7.6698C10.17 8.95662 11.2132 9.99982 12.5 9.99982Z" stroke="white" stroke-width="1.5" stroke-linecap="round" stroke-linejoin="round"/>
<path d="M16.5 15.6594C16.5 13.8594 14.71 12.3994 12.5 12.3994C10.29 12.3994 8.5 13.8594 8.5 15.6594" stroke="white" stroke-width="1.5" stroke-linecap="round" stroke-linejoin="round"/>
</svg>
